<svg xmlns="http://www.w3.org/2000/svg" viewBox="0 0 62.04 66.49"><title>btn-1950</title><g style="isolation:isolate"><g id="圖層_2" data-name="圖層 2"><g id="_1920x1080" data-name="1920x1080"><g id="wordOnPaper"><g opacity="0.53" style="mix-blend-mode:color-burn"><circle cx="30.39" cy="35.7" r="29.51" fill="#751b1b"/><g opacity="0.7"><path d="M60.75,35.76a17.3,17.3,0,0,0-.66,1.79c-.18.58-.38,1.3-.69,2.12s-.53,1.77-1,2.8l-.68,1.27a16.75,16.75,0,0,1-.92,1.48,21,21,0,0,1-1.34,2,30.91,30.91,0,0,1-11.15,9.36,27.1,27.1,0,0,1-9.43,2.61,27.47,27.47,0,0,1-11-1.34,25.15,25.15,0,0,1-5.44-2.67,29.83,29.83,0,0,1-2.58-1.85A29.77,29.77,0,0,1,13.53,51a26,26,0,0,1-2.14-2.6l-.94-1.45c-.34-.48-.55-1-.84-1.54a24.47,24.47,0,0,1-2.39-6.88,3.87,3.87,0,0,1-.17-.67L7,37a17.14,17.14,0,0,1-.08-2.49,25.16,25.16,0,0,1,2-9.68l.21-.62.74-1.57a26.71,26.71,0,0,1,3-4.71A28.46,28.46,0,0,1,15,15.57l1.12-1.11,1.16-.94A23.08,23.08,0,0,1,19.31,12l.8-.6.6-.41s.23-.22.71-.63c.24-.2.54-.46.92-.74l1.38-.85A21.34,21.34,0,0,1,34.43,6l1.93,0c.66.06,1.33.17,2,.27l1.06.16,1.06.27c.71.21,1.46.38,2.19.65A26.21,26.21,0,0,1,58.09,22.19a25.56,25.56,0,0,1,1.66,12.74l.14-.91a13.89,13.89,0,0,0,.18-2.67,23.35,23.35,0,0,0-2.13-9.88A26.18,26.18,0,0,0,47.73,9.91a26.93,26.93,0,0,0-8.68-3.27,24.13,24.13,0,0,0-9.82.27,8.71,8.71,0,0,0-1.46-.49,9.12,9.12,0,0,0-1.9-.24,11.11,11.11,0,0,0-2.71.1q-.78.1-1.65.27c-.58.13-1.17.34-1.8.55a19.44,19.44,0,0,0-4,1.92,20.82,20.82,0,0,0-7.4,8.47,5.57,5.57,0,0,1,.29-1.81,9.8,9.8,0,0,1,1-2.42c.27-.48.59-1,1-1.61s.9-1.13,1.46-1.78a17.82,17.82,0,0,1,2-1.93,19.91,19.91,0,0,1,2.69-2l.78-.51c.27-.15.56-.29.85-.44l1.84-.89c.64-.3,1.34-.5,2.05-.76a15.76,15.76,0,0,1,2.27-.66,28.67,28.67,0,0,1,11.1-.49,30.78,30.78,0,0,1,13,5.16s-.38-.27-1.42-.92c-.26-.15-.55-.35-.91-.53l-1.23-.59-1.54-.71C43,4.42,42.36,4.2,41.65,4a30.72,30.72,0,0,0-12.07-1.4,28.72,28.72,0,0,0-4.11.6c-.71.18-1.46.27-2.19.53L21,4.43a32.24,32.24,0,0,0-9.2,5.39,8.18,8.18,0,0,1,.62-1c.46-.56,1.15-1.37,2.1-2.32a19.71,19.71,0,0,1,9.61-4.67s-.29.08-.85.29l-2.44,1a36.43,36.43,0,0,0-8.55,5.24A34.88,34.88,0,0,0,2.88,20.66,35.24,35.24,0,0,0,.27,29.87,31.76,31.76,0,0,0,.68,40.51c-.14-.74-.3-1.39-.37-2L.17,37.09,0,35.65a13.15,13.15,0,0,0,.1,2.26,30.51,30.51,0,0,0,1.58,7.43A30.19,30.19,0,0,0,7.12,55a32,32,0,0,0,10,7.93,32.72,32.72,0,0,0,12.21,3.46,39,39,0,0,0,11-.72l2.22-.51c.71-.16,1.34-.38,2-.54s1.2-.29,1.7-.45,1-.27,1.39-.36l1.23-.74c.73-.54,1.82-1.26,3-2.28a30,30,0,0,0,7.15-8.89A26.28,26.28,0,0,0,62,41c0-.79,0-1.5,0-2.13a15.33,15.33,0,0,0-.29-1.65c-.23-.91-.53-1.43-.9-1.48" fill="#843333"/><path d="M12.35,15.45a9.78,9.78,0,0,1,.59-1.22c.22-.37.51-.83.88-1.38l.6-.88.78-.91a15.8,15.8,0,0,1,2-2.07L18.52,7.9c.47-.35,1-.68,1.52-1a23,23,0,0,1,3.64-2c.68-.32,1.41-.52,2.16-.79L27,3.75c.39-.11.79-.18,1.2-.27a26.28,26.28,0,0,1,11.14-.13A28.23,28.23,0,0,1,51.26,8.87,27.5,27.5,0,0,1,60,20.55,26.54,26.54,0,0,1,61.25,35.7" fill="none" stroke="#843333" stroke-width="0"/><path d="M1.5,29s0-.6,0-1.7a14.24,14.24,0,0,1,.2-2,18.18,18.18,0,0,1,.51-2.72l.42-1.6c.17-.56.4-1.11.62-1.71A26.19,26.19,0,0,1,5,15.47,30.76,30.76,0,0,1,11.29,7.7a31.36,31.36,0,0,1,10.35-6A31.78,31.78,0,0,1,34.83.13,30.79,30.79,0,0,1,48,4.48,29,29,0,0,1,57.6,14" fill="none" stroke="#843333" stroke-width="0"/></g></g></g></g></g></g></svg>