<svg xmlns="http://www.w3.org/2000/svg" viewBox="0 0 48.12 52.51"><title>btn</title><g style="isolation:isolate"><g id="圖層_2" data-name="圖層 2"><g id="wordOnPaper"><g opacity="0.53" style="mix-blend-mode:color-burn"><circle cx="23.39" cy="28.71" r="22.5" fill="#751b1b"/><g opacity="0.7"><path d="M46.75,28.75a12.82,12.82,0,0,0-.64,1.37c-.18.44-.36,1-.64,1.6s-.47,1.34-.82,2.12l-.61.93c-.17.31-.47.66-.78,1.09a17.51,17.51,0,0,1-1.12,1.41,23.56,23.56,0,0,1-8.69,6.44,19.93,19.93,0,0,1-6.85,1.55,20.22,20.22,0,0,1-7.72-1.18,18.42,18.42,0,0,1-3.75-1.91c-.63-.35-1.17-.87-1.78-1.29a22,22,0,0,1-1.62-1.59,18.69,18.69,0,0,1-1.5-1.79A20.28,20.28,0,0,1,9,35.44a18,18,0,0,1-1.78-4.76A3.64,3.64,0,0,1,7,30.21s0-.19,0-.58a12.81,12.81,0,0,1-.08-1.75A18.51,18.51,0,0,1,8.16,21l.13-.44.48-1.15a20.84,20.84,0,0,1,2-3.49c.49-.57.93-1.26,1.48-1.8.27-.28.53-.57.79-.85l.81-.73c.5-.51,1-.87,1.45-1.23.21-.17.4-.34.56-.49a3.55,3.55,0,0,0,.43-.35s.15-.19.49-.54c.17-.18.38-.4.65-.64s.61-.48,1-.75A15.11,15.11,0,0,1,26.49,5.9l1.5,0c.51,0,1,.09,1.57.15l.82.1.83.19c.55.15,1.14.26,1.7.46a19.2,19.2,0,0,1,6.79,4,19.46,19.46,0,0,1,5.11,7.5,18.78,18.78,0,0,1,.95,9.85l.15-.69a10.87,10.87,0,0,0,.24-2.06,17,17,0,0,0-1.42-7.68,19.34,19.34,0,0,0-7.9-9,19.73,19.73,0,0,0-6.78-2.37,17.52,17.52,0,0,0-7.53.55A5.22,5.22,0,0,0,21.4,6.4a6.7,6.7,0,0,0-1.46-.29,7.62,7.62,0,0,0-2.1,0c-.4,0-.83.1-1.28.18a11.94,11.94,0,0,0-1.39.41,12.81,12.81,0,0,0-3.05,1.5A14.6,14.6,0,0,0,6.74,15a4.18,4.18,0,0,1,0-1.52,6.85,6.85,0,0,1,.61-2c.18-.4.39-.85.66-1.34s.65-1,1.06-1.48A13,13,0,0,1,10.63,7a14.38,14.38,0,0,1,2.06-1.63,18.29,18.29,0,0,1,2.69-1.53A16.08,16.08,0,0,1,17,3.18a11.94,11.94,0,0,1,1.78-.56,21.82,21.82,0,0,1,8.79-.46A23.74,23.74,0,0,1,37.89,6.28s-.29-.22-1.11-.74a11.57,11.57,0,0,0-1.7-.89l-1.22-.56c-.47-.17-1-.34-1.54-.52a23.71,23.71,0,0,0-9.56-1,22.18,22.18,0,0,0-3.24.52A24.46,24.46,0,0,0,16,4.15,25,25,0,0,0,8.91,8.51a6.94,6.94,0,0,1,.44-.82,17.53,17.53,0,0,1,1.55-2,14,14,0,0,1,7.53-3.94s-.23.07-.67.25l-1.93.86A29.45,29.45,0,0,0,9.19,7.24,27.63,27.63,0,0,0,2,17,27.51,27.51,0,0,0,.16,24.21,25.14,25.14,0,0,0,.6,32.4c-.11-.57-.25-1.07-.3-1.51s-.09-.81-.12-1.11c-.08-.62-.12-1-.14-1.11a9.38,9.38,0,0,0,.08,1.74,23.81,23.81,0,0,0,1.24,5.71,23.26,23.26,0,0,0,4.17,7.39,24.56,24.56,0,0,0,7.62,6.11,25.8,25.8,0,0,0,9.39,2.76A32.06,32.06,0,0,0,31.07,52l1.76-.33c.56-.11,1.06-.26,1.55-.36,1-.19,1.82-.4,2.5-.5,0,0,.36-.2,1-.57s1.44-1,2.38-1.79a23.42,23.42,0,0,0,5.6-7,19.68,19.68,0,0,0,2.29-8.62c0-.61,0-1.17-.08-1.67a9.38,9.38,0,0,0-.3-1.28c-.24-.72-.55-1.12-.92-1.15" fill="#843333"/><path d="M10,13.69a6.4,6.4,0,0,1,.35-1c.14-.31.33-.7.57-1.15l.4-.74c.17-.24.35-.5.55-.77a12,12,0,0,1,1.45-1.74l.94-.93c.35-.3.73-.58,1.13-.89a18,18,0,0,1,6.27-3,19.84,19.84,0,0,1,8.8-.36A21.27,21.27,0,0,1,40,7.4a21,21,0,0,1,6.77,9.34,19.82,19.82,0,0,1,.51,12" fill="none" stroke="#843333" stroke-width="0"/><path d="M1.33,23.56s0-.47-.07-1.32a11.51,11.51,0,0,1,.06-1.59A13.23,13.23,0,0,1,1.6,18.5c.08-.41.17-.83.26-1.28s.26-.88.41-1.36a20.78,20.78,0,0,1,1.23-3A23.46,23.46,0,0,1,8.25,6.5a24.16,24.16,0,0,1,8.15-5A24.73,24.73,0,0,1,27,.09a23.83,23.83,0,0,1,10.59,3.5,22.22,22.22,0,0,1,7.57,7.8" fill="none" stroke="#843333" stroke-width="0"/></g></g></g></g></g></svg>