<svg xmlns="http://www.w3.org/2000/svg" viewBox="0 0 463.92 115.71"><title>description</title><g id="圖層_2" data-name="圖層 2"><g id="wordOnPaper"><path d="M438.41,8V18.25l-2.19.18a39.84,39.84,0,0,1-7.55-1.11c-1.46,0-4.71-.22-9.73-.66q-31.9-.9-48.21-.91l-1,.09h-1.21l-34.82-.27c0,.12-1.14.18-3.41.18l-15.09-.18-1.22.08v.1l-11-.1H292.33l-6.57.1-12.18-.18-27.27.18-7.54-.18-4.39.08h-2.19L231,15.57q-3.89.18-28.24.27l-16.31-.09-10,.17-1-.08h-1.21l-4.39.08-6.33-.27-20.94.19H140.4L136,15.75,124.09,16l-17.53-.1-9.74.18h-11q-19.47.57-28.24,1.78l-6.57,1H49.83l-2.19-.19V7.88l2.19-.18h1.22A43.23,43.23,0,0,1,58.6,9.1q12.65,1.46,37.25,1.46,0,.12,12.9.29l4.38-.1,7.79.1h14.13l15.34-.1,3.16.1,13.15-.18,13.15.18,17.28-.18,8.77.18q7.78-.16,7.79-.29l7.55.11h13.14l4.39.08,14.12-.19,4.38.11,3.41-.11,1,.11v.08l1-.08,8.76.08,25.08-.19,18.75.19H324l12.91-.27h1.21l4.39.08,4.38-.18,25.08.18q17.52-.33,17.53-.55h3.16v.28l1-.1h5.6q21.92,0,31.66-1.46l1-.29-1-.08V8.25l4.38-.45h1Z"/><rect x="11.07" y="21.84" width="63.65" height="22.88" transform="translate(-7.38 53.79) rotate(-60)" fill="none"/><path d="M57.28,4.84a12.7,12.7,0,0,1,2.36,2.75c.08.29-.31.32-.2.57.85.49.23,1.45,1.08,1.82-.4.7.09,1.8-.16,2.66a1.73,1.73,0,0,0,.88.89c-.24.62-.87-.13-1.33.11,0,2-1.64,3.51-1.61,5.41-.24-.14-.24-.45-.38-.66-.58-.08-.34.49-.61.84a1.88,1.88,0,0,0,1.16,1.48c-.19.33-.79.49-1,.16l-1.54,2.56A7.58,7.58,0,0,1,56.28,25c-.85.07.07-1.09-.88-1.08a.89.89,0,0,0-.16,1.36c-.6.72-2.43.73-1.66,2.11a7.81,7.81,0,0,1-1.23,4.31,9.89,9.89,0,0,1,1.15-3.41l-.64.57c-.1-.37.54-.5.65-1-.11.07-.66-.06-.9.36.06.23.28.17.43.13-.15,0-.23.18-.36.29-.86-.37.31-1.08-.34-1.7l-.84-.49c.61-.08,1.12.34,1.75,0-.17-.47.17-1.28-.61-1.23-.68.74-2.28-.19-2.6.26-.37.22.38.65-.14.79-.39-.85-1.73-.37-2.06-1.32.12-.43.57-.67.95-.89l-.64-.74a1.31,1.31,0,0,0,.29-1.59c-.23-.14-.58,0-.76-.19-.89-1.08.32-2.52-.1-3.32-.57.11-.77.68-1.2.88,1.14-1-1.16-1.36.22-2.33C46,16.38,45.31,18,44.76,17a1.11,1.11,0,0,1,1.14-.35c.13-.12,0-.47-.17-.67-.52,0-1,.67-1.35,0a2.51,2.51,0,0,0,1.1-.81c-.59-.4.06-1.41-.83-1.61-.32.45-1.26.66-1.44.11.35-.61,2.18-.31,1.7-1.53.13-.23.07-.77-.24-.57-.73.51-1.65-.08-2.46,0a3.78,3.78,0,0,1,2.11-.6c.2-.89,1.3-1.07,1.74-1.82-.11-.69-.7-.53-1.19-.88,1.57-.22,3.06-1.49,4.61-2.23l-.21-.94c1.12.46,1.6-.27,2.71-.13.27-.35-.22-.38.05-.73.69.65,1.31-.43,1.83.31L54.11,4c.34.5,1.19.55,1.39,0A1.57,1.57,0,0,0,57.28,4.84Z"/><polygon points="50.71 6.32 50.88 6.23 50.8 6.37 50.71 6.32" opacity="0.3"/><path d="M50.49,6.69l-.33-.06v.12L50,6.35C50,6.71,50.37,6.37,50.49,6.69Z" opacity="0.3"/><path d="M50.24,8.87c-.26-.09,0-.15.08-.14A.08.08,0,1,1,50.24,8.87Z" opacity="0.3"/><path d="M48.27,7.61c0,.12-.1.07-.18.09S48.18,7.43,48.27,7.61Z" opacity="0.3"/><polygon points="48.39 8.05 48.46 7.72 48.55 7.77 48.39 8.05" opacity="0.3"/><path d="M49,8.72c-.18-.35.08-.14.17-.08Z" opacity="0.3"/><path d="M48,8.52c-.09.58-.84.14-1.08.57.35-.18.67-.74.22-.94C47.52,8.81,47.7,7.84,48,8.52Z" opacity="0.3"/><path d="M48.73,9.32c-.22-.06,0-.29.12-.43C48.61,9.19,49,9,48.73,9.32Z" opacity="0.3"/><polygon points="48.16 8.99 48.31 8.95 48.37 9.17 48.16 8.99" opacity="0.3"/><path d="M48,8.93h0Z" opacity="0.3"/><path d="M46.92,8.65l-.38-.22C46.77,8.25,46.88,8.5,46.92,8.65Z" opacity="0.3"/><path d="M48.1,9.21c-.17.4-.15.47-.36.41.56-.43-.6-.28-.14-.52l0,.05C47.7,9.35,47.91,9.1,48.1,9.21Z" opacity="0.3"/><path d="M48.29,9.63,48,9.74Z" opacity="0.3"/><polygon points="46.49 9.28 46.59 8.9 46.65 9.12 46.49 9.28" opacity="0.3"/><path d="M47.52,9.88c.4,0-.16.28.27.4-.5-.1-.45-.19-.4-.61C47.49,9.73,47.55,9.83,47.52,9.88Z" opacity="0.3"/><polygon points="46.68 9.71 46.91 9.64 46.9 9.77 46.68 9.71" opacity="0.3"/><polygon points="48.14 10.55 48.06 10.69 48.08 10.33 48.07 10.57 48.14 10.55" opacity="0.3"/><path d="M46.07,10.23s-.08,0-.12,0l.11-.31Z" opacity="0.3"/><path d="M47.1,10.83s.34.82-.22.49l.3-.08c-.15-.39-.67.06-.67.06L46.9,11l0,.08c-.11-.13.12-.31.17-.41S47,10.7,47.1,10.83Z" opacity="0.3"/><polygon points="48.28 11.94 48.22 11.72 48.3 11.9 48.28 11.94" opacity="0.3"/><polygon points="46.01 11.2 46.18 11.23 45.94 11.54 46.01 11.2" opacity="0.3"/><path d="M45.06,11.22l.22.37Z" opacity="0.3"/><path d="M46.76,12.51a2.56,2.56,0,0,1-.5.53C46.42,12.88,46.55,12.33,46.76,12.51Z" opacity="0.3"/><path d="M45.61,12.54c.22.06.11-.19.26-.23l-.24.3Z" opacity="0.3"/><path d="M59.57,21c0,.29-.4.27-.44.12-.43-.24-.34-.5-.24-.89C59.36,20,59.49,20.68,59.57,21Z"/><path d="M57.63,27.82c0,.88.94,1.74.21,2.45-.15.16-.62-.11-.61-.35-.23-1.33-1-3.3.7-3.93C58.22,26.47,57.92,27.31,57.63,27.82Z"/><path d="M41.2,19.53c-.06.22-.5.21-.59,0C41.13,19.87,40.72,19.06,41.2,19.53Z"/><polygon points="40.05 19.56 40.19 19.32 39.98 19.46 40.05 19.56"/><path d="M49.62,25.27c-.21-.06-.49.09-.67-.14C49,24.56,49.55,25.17,49.62,25.27Z" opacity="0.3"/><polygon points="53.2 27.78 53.29 27.51 53.3 27.59 53.2 27.78"/><path d="M45.33,26.18l-.29,0c.17,0,.3-.2.28-.27l-.22.06c-.29,0,.09-.27.17-.41C45.46,25.63,45.68,26,45.33,26.18Z"/><path d="M44.74,25.91l-.19.2Z"/><path d="M43.59,27.13c-.07-.42.21-.26.42-.51l-.09.38,1-.5A1.61,1.61,0,0,1,43.59,27.13Z"/><path d="M42.84,25.94c-.5.21-.81.85-1.4,1a1.65,1.65,0,0,1,1.5-1.52Z"/><polygon points="42.55 25.77 42.48 25.79 42.74 25.57 42.51 26.06 42.55 25.77" opacity="0.3"/><rect x="52.46" y="31.89" width="0.27" height="0.05" transform="translate(-1.34 61.51) rotate(-60)"/><path d="M42.21,26.26c0-.14-.17.29-.42.39S42,25.81,42.21,26.26Z" opacity="0.3"/><path d="M51.86,31.84l-.07.33Z"/><path d="M51.82,34.07a3.52,3.52,0,0,1,.44-.87Z"/><path d="M51.71,33.07l0,.24Z"/><path d="M47.3,31.47c-.31-.44-.87.31-.86.5,0-.51.58-.67.9-.79Z"/><polygon points="47.1 31.6 47.25 31.56 47.11 31.8 47.1 31.6"/><path d="M51.65,34.79a.54.54,0,0,1-.38-.09c0,.17.64-.13.54-.5C51.9,34.37,51.76,34.61,51.65,34.79Z"/><path d="M46.36,32.55c-.2,0-.24-.45-.09-.49l.06.22c.23.14.3-.2.38-.34C46.91,32.25,46.47,32.36,46.36,32.55Z"/><path d="M46.23,34.3l-.27,0c-.28-.16-.14-.52,0-.63C46.42,33.53,46.35,34,46.23,34.3Z"/><path d="M38,33c-.14-.08.07-.21.12-.31C38.21,32.75,38.06,32.91,38,33Z"/><path d="M37.63,33.54l-.26.23Z"/><path d="M36.39,34.71c-.06.21-.42.07-.43-.13C36,34.58,36.38,34.51,36.39,34.71Z"/><path d="M37.1,47.61c-.12,0-.15.16-.18.21l.46-.8-.15.91Z"/><rect x="35.84" y="49.15" width="0.44" height="0.11" transform="translate(-24.58 55.83) rotate(-60)"/><path d="M36.83,49.71l-.18.09c-.08-.18.05-.29.22-.38A.31.31,0,0,1,36.83,49.71Z"/><path d="M35.34,50.55l.14.08c-.14-.08-.29.08-.33.25l.48-1.05C35.61,50.2,35.46,50.24,35.34,50.55Z"/><path d="M35,51.5c-.25-.33.55-.18.58-.67C35.25,50.93,35.69,51.69,35,51.5Z"/><path d="M29.78,62.14l-.14.24a.38.38,0,0,1-.1-.69C29.65,61.82,29.81,62,29.78,62.14Z"/><path d="M57.86,8.44a12.5,12.5,0,0,1,2.37,2.75c.08.29-.31.32-.2.57.84.49.23,1.45,1.08,1.82-.41.7.09,1.8-.16,2.66a1.71,1.71,0,0,0,.87.89c-.23.62-.87-.13-1.32.11,0,2-1.65,3.51-1.61,5.41-.24-.14-.24-.46-.38-.66-.58-.08-.34.49-.61.84a1.89,1.89,0,0,0,1.15,1.48c-.19.33-.78.49-1,.16L56.48,27a8.07,8.07,0,0,1,.39,1.61c-.86.07.07-1.09-.89-1.08a.9.9,0,0,0-.15,1.36c-.6.72-2.43.73-1.66,2.11a7.9,7.9,0,0,1-1.23,4.31,9.49,9.49,0,0,1,1.15-3.41l-.64.57c-.1-.37.54-.5.64-1-.1.07-.65-.06-.89.36,0,.22.28.16.43.13-.15,0-.23.18-.36.29-.86-.37.31-1.08-.34-1.7l-.85-.49c.62-.08,1.13.34,1.76,0-.17-.47.17-1.28-.61-1.23-.68.74-2.28-.19-2.6.26-.38.22.38.65-.14.79-.39-.85-1.73-.37-2.07-1.32.13-.43.58-.67,1-.89L48.74,27A1.31,1.31,0,0,0,49,25.37c-.24-.14-.59,0-.77-.19-.88-1.08.32-2.52-.09-3.32-.57.11-.77.68-1.2.88,1.13-1-1.16-1.36.21-2.33-.63-.43-1.28,1.14-1.83.13a1.09,1.09,0,0,1,1.14-.34c.13-.12,0-.47-.18-.67-.51,0-1,.67-1.34,0a2.57,2.57,0,0,0,1.1-.81c-.59-.4.06-1.41-.83-1.61-.32.45-1.26.66-1.45.11.36-.61,2.19-.31,1.7-1.53.14-.23.07-.77-.23-.57-.74.51-1.65-.08-2.46,0a3.74,3.74,0,0,1,2.1-.6c.2-.89,1.31-1.07,1.75-1.82-.11-.69-.7-.53-1.19-.88,1.57-.22,3.06-1.49,4.61-2.23l-.21-.94c1.12.46,1.6-.27,2.71-.13.27-.35-.22-.38,0-.73.7.65,1.32-.43,1.84.31l.25-.55c.33.51,1.18.56,1.39,0A1.56,1.56,0,0,0,57.86,8.44Z"/><polygon points="51.3 9.92 51.47 9.83 51.39 9.97 51.3 9.92" opacity="0.3"/><path d="M51.08,10.29l-.34-.06v.12l-.15-.4C50.57,10.31,51,10,51.08,10.29Z" opacity="0.3"/><path d="M50.83,12.47c-.26-.09,0-.15.08-.14S50.92,12.53,50.83,12.47Z" opacity="0.3"/><path d="M48.86,11.21c0,.12-.1.07-.18.09S48.77,11,48.86,11.21Z" opacity="0.3"/><polygon points="48.98 11.65 49.05 11.32 49.14 11.37 48.98 11.65" opacity="0.3"/><path d="M49.59,12.32c-.17-.35.09-.14.18-.08Z" opacity="0.3"/><path d="M48.58,12.12c-.08.58-.83.14-1.08.57.35-.18.68-.74.23-.94C48.1,12.41,48.28,11.44,48.58,12.12Z" opacity="0.3"/><path d="M49.31,12.92c-.21-.07,0-.29.13-.43C49.2,12.79,49.6,12.64,49.31,12.92Z" opacity="0.3"/><polygon points="48.75 12.59 48.9 12.55 48.96 12.77 48.75 12.59" opacity="0.3"/><path d="M48.53,12.53h0Z" opacity="0.3"/><path d="M47.5,12.25,47.13,12C47.36,11.85,47.46,12.1,47.5,12.25Z" opacity="0.3"/><path d="M48.69,12.81c-.17.4-.15.47-.37.41.56-.43-.59-.28-.14-.52l0,.05C48.29,13,48.5,12.7,48.69,12.81Z" opacity="0.3"/><path d="M48.88,13.23l-.25.11Z" opacity="0.3"/><polygon points="47.08 12.88 47.17 12.5 47.23 12.72 47.08 12.88" opacity="0.3"/><path d="M48.11,13.48c.39,0-.16.28.27.4-.5-.1-.45-.19-.4-.61C48.07,13.33,48.14,13.43,48.11,13.48Z" opacity="0.3"/><polygon points="47.27 13.3 47.49 13.24 47.49 13.37 47.27 13.3" opacity="0.3"/><polygon points="48.73 14.15 48.65 14.29 48.67 13.93 48.66 14.17 48.73 14.15" opacity="0.3"/><path d="M46.65,13.83s-.07,0-.12,0l.12-.31Z" opacity="0.3"/><path d="M47.69,14.43s.34.82-.22.49l.29-.08c-.14-.39-.66.06-.66.06l.39-.34,0,.07c-.12-.12.11-.31.17-.4S47.58,14.3,47.69,14.43Z" opacity="0.3"/><polygon points="48.87 15.54 48.8 15.32 48.89 15.5 48.87 15.54" opacity="0.3"/><polygon points="46.59 14.8 46.77 14.83 46.53 15.14 46.59 14.8" opacity="0.3"/><path d="M45.65,14.82l.22.37Z" opacity="0.3"/><path d="M47.35,16.11a2.56,2.56,0,0,1-.5.53C47,16.48,47.14,15.93,47.35,16.11Z" opacity="0.3"/><path d="M46.2,16.14c.21.06.11-.19.26-.23l-.24.3Z" opacity="0.3"/><path d="M60.16,24.57c0,.29-.41.27-.45.12-.42-.24-.33-.5-.24-.89C60,23.64,60.08,24.28,60.16,24.57Z"/><path d="M58.21,31.42c0,.88.95,1.74.22,2.45-.15.16-.63-.11-.61-.35-.24-1.33-1-3.3.7-3.93C58.81,30.07,58.51,30.9,58.21,31.42Z"/><path d="M41.78,23.13c-.06.22-.49.21-.58,0C41.72,23.47,41.3,22.66,41.78,23.13Z"/><polygon points="40.64 23.16 40.78 22.92 40.57 23.06 40.64 23.16"/><path d="M50.21,28.87c-.22-.06-.49.09-.67-.14C49.62,28.15,50.14,28.77,50.21,28.87Z" opacity="0.3"/><polygon points="53.78 31.38 53.87 31.11 53.89 31.19 53.78 31.38"/><path d="M45.92,29.78l-.29,0c.16,0,.3-.2.28-.27l-.22.06c-.29,0,.09-.27.17-.41C46.05,29.23,46.27,29.61,45.92,29.78Z"/><path d="M45.32,29.5l-.18.21Z"/><path d="M44.18,30.73c-.07-.42.21-.26.42-.51l-.1.38,1-.5A1.58,1.58,0,0,1,44.18,30.73Z"/><path d="M43.42,29.54c-.5.21-.8.85-1.4,1A1.67,1.67,0,0,1,43.53,29Z"/><polygon points="43.14 29.37 43.07 29.39 43.32 29.17 43.1 29.66 43.14 29.37" opacity="0.3"/><rect x="53.05" y="35.49" width="0.27" height="0.05" transform="translate(-4.17 63.82) rotate(-60)"/><path d="M42.79,29.86c0-.14-.16.29-.41.39S42.55,29.41,42.79,29.86Z" opacity="0.3"/><path d="M52.44,35.44l-.06.33Z"/><path d="M52.41,37.67a3.2,3.2,0,0,1,.44-.87Z"/><path d="M52.3,36.67l0,.24Z"/><path d="M47.89,35.07c-.32-.44-.87.31-.86.5,0-.51.58-.67.9-.8Z"/><polygon points="47.69 35.2 47.84 35.16 47.7 35.4 47.69 35.2"/><path d="M52.24,38.39a.52.52,0,0,1-.38-.09c0,.17.64-.13.54-.5C52.49,38,52.35,38.21,52.24,38.39Z"/><path d="M47,36.15c-.2,0-.24-.45-.1-.49l.06.22c.24.14.31-.2.39-.34C47.5,35.84,47.06,36,47,36.15Z"/><path d="M46.82,37.9l-.27,0c-.29-.16-.14-.52,0-.63C47,37.13,46.93,37.59,46.82,37.9Z"/><path d="M38.59,36.6c-.14-.08.06-.21.12-.31C38.8,36.35,38.64,36.51,38.59,36.6Z"/><path d="M38.22,37.14l-.26.23Z"/><path d="M37,38.31c-.06.21-.42.07-.43-.13C36.55,38.18,37,38.11,37,38.31Z"/><path d="M37.69,51.21c-.12,0-.16.16-.18.2l.46-.8-.15.92Z"/><rect x="36.43" y="52.75" width="0.44" height="0.11" transform="translate(-27.4 58.14) rotate(-60)"/><path d="M37.42,53.31l-.18.09c-.08-.18,0-.29.22-.38A.31.31,0,0,1,37.42,53.31Z"/><path d="M35.93,54.15l.14.08c-.14-.08-.3.08-.33.25l.48-1C36.2,53.8,36.05,53.84,35.93,54.15Z"/><path d="M35.63,55.1c-.25-.33.55-.18.58-.67C35.84,54.53,36.28,55.29,35.63,55.1Z"/><path d="M30.36,65.74l-.13.24a.38.38,0,0,1-.11-.69C30.24,65.42,30.4,65.58,30.36,65.74Z"/><path d="M437.63,6.64A12.77,12.77,0,0,1,440,9.39c.08.29-.32.32-.21.57.85.49.23,1.45,1.09,1.82-.41.7.08,1.8-.16,2.66a1.71,1.71,0,0,0,.87.89c-.23.62-.87-.13-1.32.11,0,2-1.65,3.51-1.62,5.41-.23-.14-.24-.46-.37-.66-.58-.08-.35.49-.61.84a1.87,1.87,0,0,0,1.15,1.48c-.19.33-.79.49-1,.16l-1.54,2.56a9,9,0,0,1,.39,1.61c-.86.07.06-1.09-.89-1.08-.41.39-.59.92-.15,1.36-.61.72-2.43.73-1.66,2.11a7.83,7.83,0,0,1-1.24,4.31,9.72,9.72,0,0,1,1.16-3.41l-.65.57c-.1-.37.55-.5.65-1-.1.07-.65-.06-.9.36.06.22.28.16.43.13-.15,0-.23.18-.36.29-.85-.37.31-1.08-.33-1.7l-.85-.49c.61-.08,1.12.34,1.75,0-.16-.47.18-1.28-.61-1.23-.67.74-2.27-.19-2.59.26-.38.22.37.65-.15.79-.39-.85-1.73-.37-2.06-1.32.12-.43.57-.67.95-.89l-.63-.74a1.33,1.33,0,0,0,.29-1.59c-.24-.14-.59,0-.77-.19-.89-1.08.32-2.52-.1-3.32-.56.11-.77.68-1.19.88,1.13-1-1.16-1.36.21-2.33-.63-.43-1.29,1.14-1.83.13a1.09,1.09,0,0,1,1.14-.34c.13-.12-.05-.47-.18-.67-.51,0-1,.67-1.34,0a2.54,2.54,0,0,0,1.09-.81c-.58-.4.06-1.41-.83-1.61-.32.45-1.25.66-1.44.11.35-.61,2.19-.31,1.7-1.53.13-.23.07-.77-.23-.57-.74.51-1.66-.08-2.47,0a3.78,3.78,0,0,1,2.11-.6c.2-.89,1.31-1.07,1.74-1.82-.1-.69-.7-.53-1.19-.88,1.57-.22,3.06-1.49,4.62-2.23l-.22-.94c1.12.46,1.6-.27,2.72-.13.26-.35-.23-.38,0-.73.69.65,1.32-.43,1.83.31l.25-.55c.34.51,1.19.56,1.39,0A1.58,1.58,0,0,0,437.63,6.64Z"/><polygon points="436.46 8.12 436.64 8.03 436.56 8.17 436.46 8.12" opacity="0.3"/><path d="M436.24,8.49l-.33-.06v.12l-.15-.4C435.73,8.51,436.12,8.17,436.24,8.49Z" opacity="0.3"/><path d="M436,10.67c-.26-.09,0-.15.08-.14A.08.08,0,1,1,436,10.67Z" opacity="0.3"/><path d="M434,9.41c0,.12-.1.07-.17.09S433.93,9.23,434,9.41Z" opacity="0.3"/><polygon points="434.14 9.85 434.21 9.52 434.3 9.57 434.14 9.85" opacity="0.3"/><path d="M434.76,10.52c-.18-.35.08-.14.17-.08Z" opacity="0.3"/><path d="M433.75,10.32c-.08.58-.84.14-1.08.57.35-.18.67-.74.22-.94C433.27,10.61,433.45,9.64,433.75,10.32Z" opacity="0.3"/><path d="M434.48,11.12c-.22-.07,0-.29.12-.43C434.37,11,434.76,10.84,434.48,11.12Z" opacity="0.3"/><polygon points="433.92 10.79 434.06 10.75 434.12 10.97 433.92 10.79" opacity="0.3"/><path d="M433.7,10.73h0Z" opacity="0.3"/><path d="M432.67,10.45l-.38-.22C432.52,10.05,432.63,10.3,432.67,10.45Z" opacity="0.3"/><path d="M433.85,11c-.17.4-.15.47-.36.41.56-.43-.59-.28-.14-.52l0,0C433.45,11.15,433.67,10.9,433.85,11Z" opacity="0.3"/><path d="M434.05,11.43l-.25.11Z" opacity="0.3"/><polygon points="432.24 11.08 432.34 10.7 432.4 10.92 432.24 11.08" opacity="0.3"/><path d="M433.28,11.68c.39,0-.17.28.27.4-.51-.1-.46-.19-.41-.61C433.24,11.53,433.3,11.63,433.28,11.68Z" opacity="0.3"/><polygon points="432.44 11.51 432.66 11.45 432.65 11.57 432.44 11.51" opacity="0.3"/><polygon points="433.89 12.35 433.81 12.49 433.83 12.13 433.82 12.37 433.89 12.35" opacity="0.3"/><path d="M431.82,12c-.05,0-.08,0-.12,0l.11-.31Z" opacity="0.3"/><path d="M432.85,12.63s.34.82-.22.49l.3-.08c-.15-.39-.66.06-.66.06l.38-.34,0,.08c-.11-.13.12-.32.17-.41S432.74,12.5,432.85,12.63Z" opacity="0.3"/><polygon points="434.03 13.74 433.97 13.52 434.06 13.7 434.03 13.74" opacity="0.3"/><polygon points="431.76 13 431.93 13.03 431.69 13.34 431.76 13" opacity="0.3"/><path d="M430.81,13l.22.37Z" opacity="0.3"/><path d="M432.51,14.31a2.52,2.52,0,0,1-.49.53C432.17,14.68,432.3,14.13,432.51,14.31Z" opacity="0.3"/><path d="M431.36,14.34c.22.06.11-.19.26-.23l-.24.3Z" opacity="0.3"/><path d="M445.32,22.77c0,.29-.4.27-.44.12-.43-.24-.34-.5-.24-.89C445.11,21.84,445.24,22.48,445.32,22.77Z"/><path d="M443.38,29.62c0,.88.94,1.74.22,2.45-.16.16-.63-.11-.62-.35-.23-1.33-1-3.3.7-3.93C444,28.27,443.68,29.1,443.38,29.62Z"/><path d="M427,21.33c-.06.22-.5.21-.59,0C426.88,21.67,426.47,20.86,427,21.33Z"/><polygon points="425.8 21.36 425.94 21.12 425.74 21.26 425.8 21.36"/><path d="M435.37,27.07c-.21-.06-.49.09-.67-.14C434.78,26.36,435.3,27,435.37,27.07Z" opacity="0.3"/><polygon points="438.95 29.57 439.04 29.31 439.06 29.39 438.95 29.57"/><path d="M431.08,28l-.29,0c.17,0,.3-.2.29-.27l-.23.06c-.29,0,.09-.27.17-.41C431.21,27.43,431.43,27.81,431.08,28Z"/><path d="M430.49,27.71l-.18.2Z"/><path d="M429.34,28.93c-.07-.42.21-.26.42-.51l-.09.38,1-.5A1.61,1.61,0,0,1,429.34,28.93Z"/><path d="M428.59,27.74c-.5.21-.81.85-1.4,1-.09-.62.75-1.52,1.5-1.52Z"/><polygon points="428.31 27.57 428.23 27.59 428.49 27.37 428.26 27.86 428.31 27.57" opacity="0.3"/><rect x="438.21" y="33.69" width="0.27" height="0.05" transform="translate(189.97 396.48) rotate(-60)"/><path d="M428,28.06c0-.14-.16.29-.41.39S427.72,27.61,428,28.06Z" opacity="0.3"/><path d="M437.61,33.64l-.07.33Z"/><path d="M437.57,35.87A3.52,3.52,0,0,1,438,35Z"/><path d="M437.46,34.87v0Z"/><path d="M433.05,33.27c-.31-.44-.87.31-.86.5,0-.51.58-.67.91-.79Z"/><polygon points="432.85 33.4 433 33.36 432.86 33.59 432.85 33.4"/><path d="M437.41,36.59a.56.56,0,0,1-.39-.09c0,.17.64-.13.54-.5C437.65,36.17,437.52,36.41,437.41,36.59Z"/><path d="M432.11,34.35c-.19,0-.24-.45-.09-.49l.06.22c.23.14.3-.2.38-.34C432.67,34.05,432.22,34.16,432.11,34.35Z"/><path d="M432,36.1l-.27,0c-.28-.16-.14-.52,0-.63C432.17,35.33,432.1,35.79,432,36.1Z"/><path d="M423.75,34.8c-.14-.08.07-.21.12-.31C424,34.55,423.81,34.71,423.75,34.8Z"/><path d="M423.38,35.34l-.26.23Z"/><path d="M422.14,36.51c-.06.21-.42.07-.43-.13C421.71,36.38,422.13,36.31,422.14,36.51Z"/><path d="M422.85,49.41c-.12,0-.15.16-.18.21l.46-.81-.15.92Z"/><rect x="421.59" y="50.95" width="0.44" height="0.11" transform="matrix(0.5, -0.87, 0.87, 0.5, 166.74, 390.8)"/><path d="M422.58,51.51l-.17.09c-.09-.18,0-.29.21-.38A.29.29,0,0,1,422.58,51.51Z"/><path d="M421.1,52.35l.14.08c-.14-.08-.3.08-.33.25l.47-1C421.36,52,421.21,52,421.1,52.35Z"/><path d="M420.79,53.3c-.24-.33.55-.18.58-.67C421,52.73,421.44,53.49,420.79,53.3Z"/><path d="M415.53,63.94l-.14.24a.38.38,0,0,1-.1-.69C415.4,63.62,415.56,63.78,415.53,63.94Z"/><path d="M113.69,14.8h-.53a1.07,1.07,0,0,1,.28.19C113.56,15.05,113.61,14.92,113.69,14.8Z"/><path d="M112.67,14.8h-.09l-.08.06Z"/><path d="M111.76,15a1.22,1.22,0,0,0,.47,0A.66.66,0,0,0,111.76,15Z"/><path d="M112.5,15.1c-.06-.08-.09-.17,0-.24h0l-.27.1A.7.7,0,0,1,112.5,15.1Z"/><path d="M112.5,15.1c.06.08.15.15.19.2A1.8,1.8,0,0,0,112.5,15.1Z"/><path d="M112.39,17.15c-.09.07-.1-.51-.28-.37a3.42,3.42,0,0,1-1.19.49c-.18.14-.5-.49-.68-.35-.43.18-1.51,1-.86.94,1-.13,1.63-.31,2.51-.47.71-.27,1.38-.59,2.1-.85a1.72,1.72,0,0,1,.6,0,8.15,8.15,0,0,0-.82-.21C113.39,16.21,113,17,112.39,17.15Z"/><path d="M117.6,14.83l-.26.22c-.45-.38-.86-.18-1.28,0l.22.27c.24-.06.26-.22,0-.33a2,2,0,0,0,1.49.22C117.75,15.08,117.74,14.9,117.6,14.83Z"/><path d="M118.08,15.16l-.28.07v0l.28-.11Z"/><path d="M109.84,15.63a32,32,0,0,1-3.51.06c-.09.12-.15.25-.26.19a.78.78,0,0,0-.27-.2l-.5,0-.17.05h0c-.09.07-.07.16,0,.24a.91.91,0,0,1,.18.21c0-.05-.12-.13-.18-.21a.65.65,0,0,0-.27-.15,1.17,1.17,0,0,1-.46,0,.62.62,0,0,1,.46,0l.28-.09.08-.05-1.12-.07-.24.05c-.27.07-.54.15-.71-.13h-.2l0,.05-.08-.06-.84-.06c-.19.1-.38.24-.57.32l-.19-.29a.58.58,0,0,1-.31.29c.15.17.29.36.42.48.19.3.42-.58.65,0-.23-.55-.46.33-.65,0-.13-.12-.27-.31-.42-.48a.88.88,0,0,1-.9-.3c.35-.23.64,0,.9.3a.58.58,0,0,0,.31-.29l.19.29c.19-.08.38-.22.57-.32l-1.69-.17c-3.67-.4-7.05-.48-10.83-1-1-.15-2-.35-3-.57s-1.93-.46-2.87-.74c-3.74-1.1-7.34-.84-10.9-3-1.36-.77-4.1-1-5.51-1.3-2.08.53-1.66,3.15-1.59,3.31.72,2.3,1.89,1.4,4.07,3.07-1.51-1,1.46-1.07,2.78.61C74.43,18.21,78,17,80.75,17.9a16,16,0,0,0,2.31.36c4.34,1.24,8.55.62,13.19,1a11.29,11.29,0,0,0,3.38-.74,15.44,15.44,0,0,1,2.18.2,8.41,8.41,0,0,0,2.6-.47c-.89.11-1.54.27-2.54.36-.66,0,.47-.74.9-.91.19-.13.49.51.67.38a3.73,3.73,0,0,0,1.22-.43c.18-.13.17.45.26.38.6-.14,1-.89,1.42-.74s.55.16.81.24a1.34,1.34,0,0,0,.49,0l.32-.15a2.28,2.28,0,0,1-.17-.61c.16,0,.39.15.54.18-.15,0-.38-.15-.54-.18a2.28,2.28,0,0,0,.17.61,23.35,23.35,0,0,1,2.48-1l0-.05a2,2,0,0,1-1.48-.28c.22.12.2.28,0,.32l-.21-.27c.43-.19.86-.37,1.29,0l.26-.21c.14.07.15.26.18.41l.29-.06A3.59,3.59,0,0,0,109.84,15.63Z"/><path d="M104.84,15.78l.24,0-1-.07C104.3,15.94,104.57,15.86,104.84,15.78Z"/><path d="M175.34,14.22h-.47a.54.54,0,0,1,.25.19C175.23,14.47,175.27,14.34,175.34,14.22Z"/><path d="M174.44,14.22h-.08l-.07,0Z"/><path d="M173.64,14.42a1,1,0,0,0,.41-.05A.51.51,0,0,0,173.64,14.42Z"/><path d="M174.3,14.52c-.06-.09-.09-.17,0-.24h0l-.24.1A.73.73,0,0,1,174.3,14.52Z"/><path d="M174.3,14.52a1.93,1.93,0,0,0,.16.19A1,1,0,0,0,174.3,14.52Z"/><path d="M174.23,16.56c-.08.07-.1-.51-.25-.37a3.14,3.14,0,0,1-1,.49c-.16.14-.46-.48-.61-.34-.37.18-1.3,1-.73.95.86-.14,1.42-.33,2.19-.49s1.21-.59,1.84-.84a1.3,1.3,0,0,1,.52,0c-.23-.07-.46-.15-.72-.21S174.74,16.39,174.23,16.56Z"/><path d="M178.8,14.31l-.23.21c-.39-.38-.76-.19-1.13,0l.2.27c.21,0,.22-.21,0-.32a1.63,1.63,0,0,0,1.32.25C178.94,14.56,178.93,14.38,178.8,14.31Z"/><path d="M179.22,14.65l-.24.07v0l.25-.1Z"/><path d="M172,15.05a30,30,0,0,1-3.1.12c-.07.12-.12.25-.22.19a.79.79,0,0,0-.25-.19H168l-.15.05h0c-.08.07,0,.15,0,.24a.83.83,0,0,1,.16.2c0-.05-.11-.12-.16-.2a.51.51,0,0,0-.24-.15.85.85,0,0,1-.42,0,.53.53,0,0,1,.42,0l.24-.1.06-.05-1,0-.21,0c-.23.09-.47.18-.63-.09h-.18l0,.05-.07-.05-.75,0a4.85,4.85,0,0,1-.48.35l-.18-.28a.62.62,0,0,1-.27.3c.14.16.27.35.39.46.19.28.35-.59.58-.06-.23-.53-.39.34-.58.06-.12-.11-.25-.3-.39-.46a.72.72,0,0,1-.8-.25c.29-.26.56,0,.8.25a.62.62,0,0,0,.27-.3l.18.28a4.85,4.85,0,0,0,.48-.35l-1.5-.09c-3.26-.22-6.25-.07-9.63-.27a47.21,47.21,0,0,1-5.31-.69c-3.42-.65-6.55.12-10-1.4-1.32-.53-3.78-.31-5.05-.29-1.74.91-.93,3.41-.86,3.55,1,2.13,1.87,1,4,2.28-1.46-.74,1.11-1.33,2.48.13,2,2.23,4.9.49,7.39,1a14.67,14.67,0,0,0,2,.08c3.88.72,7.47-.29,11.53-.25a9.32,9.32,0,0,0,2.9-.94,11.61,11.61,0,0,1,1.92.1,6.48,6.48,0,0,0,2.25-.57c-.78.15-1.34.33-2.2.46-.58.06.37-.76.74-.94.16-.14.45.49.6.35a3.13,3.13,0,0,0,1-.47c.16-.14.17.44.25.37.51-.16.87-.92,1.21-.78s.49.15.72.23a1.24,1.24,0,0,0,.43,0l.28-.16a2.21,2.21,0,0,1-.17-.6c.14,0,.35.14.48.16-.13,0-.34-.14-.48-.16a2.21,2.21,0,0,0,.17.6,20.22,20.22,0,0,1,2.15-1v0a1.58,1.58,0,0,1-1.31-.26c.2.11.18.28,0,.32l-.19-.27c.37-.19.74-.37,1.13,0l.23-.21c.13.07.14.25.17.4a1.14,1.14,0,0,0,.25-.06A3.45,3.45,0,0,0,172,15.05Z"/><path d="M167.54,15.29l.21-.06-.84,0C167.07,15.47,167.31,15.38,167.54,15.29Z"/><path d="M198.43,13.89l58.8,1"/><path d="M274.78,16.24l1.52-.17a4.38,4.38,0,0,1-.79-.1A1,1,0,0,0,274.78,16.24Z"/><path d="M277.72,15.92l.27,0,.22-.08Z"/><path d="M280.35,15.43a9.53,9.53,0,0,0-1.35.2A5.13,5.13,0,0,0,280.35,15.43Z"/><path d="M278.22,15.57c.17.06.27.14,0,.24h0l.79-.18A3.75,3.75,0,0,1,278.22,15.57Z"/><path d="M278.22,15.57c-.17-.06-.43-.11-.52-.15A3.22,3.22,0,0,0,278.22,15.57Z"/><path d="M278.64,13.46c.26-.1.27.48.78.29a23.12,23.12,0,0,1,3.43-.84c.52-.19,1.43.35,1.95.16,1.23-.3,4.34-1.43,2.46-1.18-2.82.41-4.65.75-7.18,1.17-2,.5-4,1-6.06,1.5a12.66,12.66,0,0,1-1.7.16l2.32,0C275.74,14.71,277,13.81,278.64,13.46Z"/><path d="M263.52,17.46l.76-.31a8,8,0,0,0,3.68-.43l-.59-.21c-.71.14-.77.31-.12.34a15.05,15.05,0,0,0-4.26.27C263.1,17.26,263.11,17.44,263.52,17.46Z"/><path d="M262.18,17.28l.81-.16,0-.05-.81.2Z"/><path d="M300.35,12.8l-.67.11c.9-.07,1.82-.1,2.73-.16A3.82,3.82,0,0,0,300.35,12.8Z"/><path d="M46.78,63.1V57a2.26,2.26,0,0,1,2.07-2.26h.23a39.68,39.68,0,0,1,7.21,1.07,3.44,3.44,0,0,0,.45.05c1.55,0,4.7.23,9.45.65h.13q31.75.9,48.05.9h.19l.78-.06h1.32l34.36.26a2,2,0,0,0,.55-.05,21,21,0,0,1,3.31-.13l15,.18h.18l1.12-.08v-.1l11,.1h10.71l6.58-.1,12.17.19,27.27-.19,7.55.19,4.38-.09h2.27l1,.07h.25q4.14-.18,28.12-.26l16.31.08,9.87-.16h.23l.76.06H311l4.31-.08h.14l6.26.26,20.94-.18h2.19l4.38.08,11.93-.27,17.53.11,9.74-.19h11q19.47-.56,28.24-1.77l6.4-1,.35,0h1.16c1.17.1,4.13.62,4.13,1.79l-1.2,3,.6,6h0c0,.5-.92.23-1.2.6s-1.65-.28-2.33-.22h-1.34a43.25,43.25,0,0,1-7.41-1.37l-.27,0q-12.61-1.44-37-1.45l-.24,0c-.65-.08-4.92-.16-12.81-.27l-4.38.11-7.79-.11H350.15l-15.34.11-3.17-.11-13.15.19-13.14-.19-17.29.19-8.77-.19q-7,.15-7.71.27a2.17,2.17,0,0,1-.36,0L264,62.5H250.81l-4.38-.08-14.13.18L228,62.5h-.12l-3.19.1h-.31l-.82-.09v-.08l-.87.07h-.21l-8.66-.08-25.08.18L170,62.42h-8.77l-12.9.27h-1.22l-4.31-.09h-.14l-4.32.18-25.07-.19q-16.29.32-17.44.53l-.44,0H92.55v-.29L91.7,63H86q-21.74,0-31.49,1.44l-.32.07-.82.24,1,.09v.1l-4.27.44H48.85A2.26,2.26,0,0,1,46.78,63.1Z"/><rect x="406.27" y="30.24" width="63.65" height="22.88" transform="translate(182.95 400.25) rotate(-60)" fill="none"/><path d="M59.15,57.3a12.42,12.42,0,0,1-.73,3.56c-.18.24-.44,0-.57.18.13,1-1,1.07-.78,2-.81.11-1.38,1.18-2.21,1.51a1.74,1.74,0,0,0-.16,1.23c-.64.19-.44-.77-.9-1-1.6,1.21-3.78.84-5.27,2,0-.27.21-.47.29-.7-.29-.51-.6,0-1,0A1.88,1.88,0,0,0,47.32,68c-.38,0-.87-.32-.76-.72l-3,.35a8.21,8.21,0,0,1-1,1.29c-.58-.64.9-.62.31-1.36-.56-.09-1.09.09-1.17.71-.94,0-2.06-1.48-2.69,0a7.89,7.89,0,0,1-4.16,1.66,9.66,9.66,0,0,1,3.4-1.18l-.84-.16c.23-.3.73.12,1.19-.1-.11,0-.35-.56-.83-.49-.14.18,0,.32.16.41-.12-.09-.28-.07-.45-.1-.23-.9,1-.42,1.14-1.31l-.13-1c.44.44.42,1.1,1.07,1.39.27-.42,1.12-.64.6-1.23-1-.08-1.25-1.91-1.8-1.9-.4-.16-.28.7-.71.38.43-.83-.77-1.6-.22-2.44a1.76,1.76,0,0,1,1.29.21l.2-1a1.32,1.32,0,0,0,1.43-.74c0-.27-.39-.45-.32-.73.32-1.36,2.19-1.28,2.57-2.1-.43-.38-1-.19-1.42-.41,1.46.29.36-1.75,2-1.26,0-.76-1.69-.32-1.23-1.37a1.12,1.12,0,0,1,1,.7c.17,0,.34-.33.42-.55-.33-.4-1.15-.4-.85-1a2.59,2.59,0,0,0,1.31.37c0-.71,1.15-.81.76-1.64-.54,0-1.28-.59-1-1.08.71-.09,1.58,1.55,2.25.41.27,0,.66-.41.32-.53-.86-.27-1-1.35-1.53-1.94.44,0,1.31.76,1.77,1.3.82-.38,1.64.38,2.5.27.48-.51,0-.88,0-1.48,1.14,1.11,3,1.51,4.59,2.29l.61-.74c.32,1.16,1.19,1.1,1.76,2.06.44,0,.16-.4.6-.41-.09,1,1.15.78.88,1.64l.59-.13c-.2.57.28,1.27.86,1.08A1.55,1.55,0,0,0,59.15,57.3Z"/><polygon points="57.26 57.28 57.44 57.37 57.28 57.39 57.26 57.28" opacity="0.3"/><path d="M56.83,57.34,56.68,57l-.1.07.23-.36C56.51,57,57,57,56.83,57.34Z" opacity="0.3"/><path d="M55,58.47c-.09-.26.09-.12.16,0A.08.08,0,1,1,55,58.47Z" opacity="0.3"/><path d="M54.75,56.14c-.1.07-.11,0-.17-.08S54.84,56,54.75,56.14Z" opacity="0.3"/><polygon points="54.47 56.51 54.78 56.36 54.8 56.47 54.47 56.51" opacity="0.3"/><path d="M54.32,57.41c.17-.35.16,0,.18.08Z" opacity="0.3"/><path d="M53.86,56.48c-.5.29-.62-.57-1.11-.51.36.18,1,.09.88-.39C53.34,56.28,54.22,55.83,53.86,56.48Z" opacity="0.3"/><path d="M53.68,57.55c-.08-.21.25-.14.42-.17C53.71,57.38,54.07,57.61,53.68,57.55Z" opacity="0.3"/><polygon points="53.59 56.9 53.72 57 53.58 57.18 53.59 56.9" opacity="0.3"/><path d="M53.51,56.69l-.13-.14Z" opacity="0.3"/><path d="M53.1,55.71,53,55.28C53.33,55.35,53.2,55.59,53.1,55.71Z" opacity="0.3"/><path d="M53.38,57c-.42.11-.47.17-.55,0,.68.18-.14-.64.33-.43H53.1C53,56.76,53.36,56.77,53.38,57Z" opacity="0.3"/><path d="M53.17,57.4l-.24-.13Z" opacity="0.3"/><polygon points="52.34 55.76 52.7 55.6 52.56 55.78 52.34 55.76" opacity="0.3"/><path d="M52.5,56.94c.26.29-.32,0-.16.46-.22-.46-.12-.48.24-.69C52.59,56.82,52.55,56.93,52.5,56.94Z" opacity="0.3"/><polygon points="52.12 56.17 52.3 56.31 52.2 56.38 52.12 56.17" opacity="0.3"/><polygon points="52.35 57.84 52.19 57.86 52.49 57.66 52.29 57.79 52.35 57.84" opacity="0.3"/><path d="M51.33,56s-.06,0-.07-.1l.32-.1Z" opacity="0.3"/><path d="M51.49,57.19c0-.06-.44.77-.53.12l.25.19c.22-.36-.45-.49-.45-.49l.5.1,0,.06c0-.17.31-.1.42-.11S51.52,57,51.49,57.19Z" opacity="0.3"/><polygon points="51.33 58.8 51.47 58.62 51.38 58.79 51.33 58.8" opacity="0.3"/><polygon points="50.53 56.55 50.6 56.7 50.22 56.7 50.53 56.55" opacity="0.3"/><path d="M49.93,55.81l-.16.4Z" opacity="0.3"/><path d="M50,57.94a2.73,2.73,0,0,1-.72-.06C49.45,57.9,50,57.67,50,57.94Z" opacity="0.3"/><path d="M49.23,57.05c.08.21.21,0,.33.07h-.38Z" opacity="0.3"/><path d="M51.09,73.26c-.26.14-.46-.16-.37-.28-.07-.49.2-.58.56-.73C51.7,72.52,51.27,73,51.09,73.26Z"/><path d="M44.48,75.91c-.7.53-.8,1.8-1.81,1.67-.22,0-.29-.57-.09-.7.91-1,2-2.85,3.53-1.85C45.91,75.55,45.07,75.83,44.48,75.91Z"/><path d="M41,57.84c-.2.08-.47-.27-.38-.44C40.69,58,41.07,57.17,41,57.84Z"/><polygon points="40.27 56.95 40.54 56.91 40.31 56.83 40.27 56.95"/><path d="M41.6,68c-.08-.21-.37-.33-.3-.61C41.81,67.11,41.64,67.9,41.6,68Z" opacity="0.3"/><polygon points="41.81 72.37 42.07 72.28 42.02 72.34 41.81 72.37"/><path d="M38.25,65.17l-.14-.25a.29.29,0,0,0,.39.06l-.18-.14c-.15-.26.26-.09.42-.12C38.77,64.94,38.61,65.35,38.25,65.17Z"/><path d="M38.11,64.54l-.27,0Z"/><path d="M36.45,64.38c.28-.32.33,0,.66,0l-.36.15,1,.47A1.57,1.57,0,0,1,36.45,64.38Z"/><path d="M36.93,63.05c-.48-.27-1.17-.12-1.66-.49a1.68,1.68,0,0,1,2.12.26Z"/><polygon points="36.88 62.73 36.82 62.68 37.16 62.74 36.63 62.87 36.88 62.73" opacity="0.3"/><rect x="38.03" y="74.4" width="0.27" height="0.05" transform="translate(-9.63 5.78) rotate(-7.7)"/><path d="M36.28,62.75c.09-.12-.32,0-.56-.09S36.49,62.29,36.28,62.75Z" opacity="0.3"/><path d="M37.78,73.8l-.31.15Z"/><path d="M36,75.13a3.4,3.4,0,0,1,1-.18Z"/><path d="M36.71,74.43l-.2.14Z"/><path d="M35.28,70c.15-.51-.78-.49-.92-.37.39-.32.88,0,1.18.23Z"/><polygon points="35.05 69.89 35.17 69.98 34.91 70.02 35.05 69.89"/><path d="M35.31,75.44a.54.54,0,0,1-.16-.36c-.15.08.5.43.73.12C35.8,75.38,35.53,75.42,35.31,75.44Z"/><path d="M33.85,69.88c-.13-.14.21-.46.33-.37l-.14.18c0,.27.34.12.51.1C34.43,70.13,34.06,69.85,33.85,69.88Z"/><path d="M32.39,70.85l-.2-.19c0-.33.33-.43.5-.4C33.11,70.53,32.7,70.75,32.39,70.85Z"/><path d="M28.38,63.55c0-.17.21-.09.32-.1S28.49,63.53,28.38,63.55Z"/><path d="M27.73,63.58l-.34-.06Z"/><path d="M26.05,63.31c-.21.09-.32-.28-.17-.41S26.19,63.18,26.05,63.31Z"/><path d="M16.27,71.76c-.06-.1-.22,0-.27,0l.91-.13-.81.44Z"/><rect x="14.16" y="71.86" width="0.44" height="0.11" transform="translate(-9.5 2.57) rotate(-7.7)"/><path d="M14.44,72.83l-.17-.08c.08-.18.25-.15.43-.06A.29.29,0,0,1,14.44,72.83Z"/><path d="M12.87,72.17l0,.16c0-.16-.24-.19-.39-.11L13.61,72C13.31,72.17,13.19,72.07,12.87,72.17Z"/><path d="M11.93,72.52c.11-.4.48.32.89,0C12.51,72.33,12.18,73.14,11.93,72.52Z"/><path d="M.29,74.86l-.27,0c-.09-.31.14-.62.48-.5C.47,74.56.45,74.78.29,74.86Z"/><path d="M305.65,60.75h.47a.83.83,0,0,1-.25-.19C305.76,60.5,305.72,60.63,305.65,60.75Z"/><path d="M306.55,60.75h.08l.07-.06Z"/><path d="M307.35,60.54a.82.82,0,0,0-.41.06A.56.56,0,0,0,307.35,60.54Z"/><path d="M306.7,60.45c.05.08.08.17,0,.24h0l.24-.09A.61.61,0,0,1,306.7,60.45Z"/><path d="M306.7,60.45c-.06-.08-.14-.15-.17-.2A1.63,1.63,0,0,0,306.7,60.45Z"/><path d="M306.77,58.4c.07-.07.09.51.25.37a3,3,0,0,1,1-.49c.15-.14.45.48.6.35.37-.19,1.31-1,.73-1-.86.14-1.42.32-2.19.48-.61.28-1.2.59-1.83.84a1.35,1.35,0,0,1-.53,0l.72.22C305.9,59.33,306.25,58.57,306.77,58.4Z"/><path d="M302.19,60.65l.23-.21c.39.39.76.2,1.13,0l-.19-.28c-.22,0-.23.22,0,.33a1.59,1.59,0,0,0-1.32-.25C302.05,60.4,302.06,60.58,302.19,60.65Z"/><path d="M301.77,60.32l.24-.07v0l-.24.1Z"/><path d="M309,59.91c1.08-.09,2.1-.12,3.1-.12.07-.11.12-.25.22-.19a.84.84,0,0,0,.25.2H313l.16,0h0c.08-.07.05-.16,0-.24a1.56,1.56,0,0,1-.16-.2,2.3,2.3,0,0,1,.16.2.73.73,0,0,0,.25.15.8.8,0,0,1,.41,0,.55.55,0,0,1-.41,0l-.24.09-.07.06,1,0,.21-.06c.23-.09.47-.18.63.1h.18l0,0a.18.18,0,0,1,.07,0l.75,0a4.85,4.85,0,0,1,.48-.35l.19.28a.52.52,0,0,1,.26-.3c-.14-.17-.27-.35-.39-.47-.18-.28-.35.6-.58.06.23.54.4-.34.58-.06.12.12.25.3.39.47a.7.7,0,0,1,.8.25c-.29.25-.56,0-.8-.25a.52.52,0,0,0-.26.3l-.19-.28a4.85,4.85,0,0,0-.48.35l1.5.08c3.26.23,6.26.07,9.63.28a45,45,0,0,1,5.31.68c3.42.65,6.55-.11,10,1.4,1.32.53,3.78.31,5.06.29,1.73-.91.93-3.4.85-3.54-1-2.13-1.86-1-4-2.28,1.46.74-1.12,1.33-2.49-.13-2-2.24-4.9-.5-7.39-1.06a13.34,13.34,0,0,0-2-.07c-3.88-.72-7.46.28-11.53.24a9.33,9.33,0,0,0-2.9,1,11.55,11.55,0,0,1-1.92-.11,6.59,6.59,0,0,0-2.24.57c.77-.14,1.33-.32,2.2-.45.57-.06-.37.76-.75.94-.16.13-.44-.49-.6-.36a3.05,3.05,0,0,0-1,.48c-.16.13-.17-.45-.24-.38-.52.16-.88.92-1.22.78l-.72-.22a1,1,0,0,0-.43,0l-.28.16a2.11,2.11,0,0,1,.17.6c-.14,0-.34-.14-.48-.17.14,0,.34.14.48.17a2.11,2.11,0,0,0-.17-.6,19.28,19.28,0,0,1-2.15,1v.05a1.61,1.61,0,0,1,1.31.26c-.2-.11-.18-.27,0-.32l.18.28c-.37.18-.74.37-1.13,0l-.23.21c-.13-.08-.13-.26-.17-.41l-.25.06A3.17,3.17,0,0,0,309,59.91Z"/><path d="M313.45,59.67a1.05,1.05,0,0,1-.21.06l.84,0C313.92,59.5,313.68,59.58,313.45,59.67Z"/><path d="M206.22,56.33l-1.53.16a3.66,3.66,0,0,1,.79.11A1.15,1.15,0,0,0,206.22,56.33Z"/><path d="M203.27,56.64l-.27,0-.22.08Z"/><path d="M200.64,57.13a9.53,9.53,0,0,0,1.35-.2A5.65,5.65,0,0,0,200.64,57.13Z"/><path d="M202.77,57c-.17-.07-.26-.14,0-.24h0l-.79.18A3.71,3.71,0,0,1,202.77,57Z"/><path d="M202.77,57c.17.06.43.1.52.14A3.25,3.25,0,0,0,202.77,57Z"/><path d="M202.35,59.1c-.26.1-.26-.48-.78-.28a22.76,22.76,0,0,1-3.43.83c-.52.19-1.43-.35-1.95-.16-1.23.3-4.34,1.43-2.46,1.19,2.82-.42,4.66-.76,7.18-1.18,2-.49,4-1,6.06-1.5a14.71,14.71,0,0,1,1.71-.16l-2.33,0C205.25,57.85,204,58.76,202.35,59.1Z"/><path d="M217.47,55.1l-.76.31a8,8,0,0,0-3.68.44l.59.2c.71-.13.77-.3.12-.34a15.05,15.05,0,0,0,4.26-.26C217.89,55.31,217.88,55.13,217.47,55.1Z"/><path d="M218.81,55.28l-.81.17,0,0,.8-.2Z"/><path d="M195.06,58.3c-1.77.21-3.48.41-5.17.58l-5,.42a1.07,1.07,0,0,1-.75.25,4.38,4.38,0,0,0-.78-.13l-1.43.11-.5.09h0c-.26.09-.17.17,0,.24A3.19,3.19,0,0,1,182,60c-.1,0-.35-.09-.52-.16a4.41,4.41,0,0,0-.78-.09,9.78,9.78,0,0,1-1.36.14,5.86,5.86,0,0,1,1.36-.14l.79-.16.23-.07c-1.09.09-2.17.14-3.26.2l-.67.1a3.82,3.82,0,0,1-2.06,0l-.58,0,.11,0-.22,0-2.46.13c-.53.15-1.06.33-1.61.46l-.57-.25a2.35,2.35,0,0,1-.9.35c.46.14.88.3,1.26.39.58.26,1.19-.67,1.89-.18-.7-.49-1.31.44-1.89.18-.38-.09-.8-.25-1.26-.39a6.26,6.26,0,0,1-2.61-.11,4.16,4.16,0,0,1,2.61.11,2.35,2.35,0,0,0,.9-.35l.57.25c.55-.13,1.08-.31,1.61-.46-1.61.09-3.24.14-4.9.2L152,60.84c-5.19.13-10.42.28-16,.23-3,0-5.95-.1-8.85-.21l-4.31-.18-4.26-.28c-11.25-.79-21.57-.34-32.83-2.5-4.32-.78-12.4-1.09-16.6-1.43-5.69.47-3,3.18-2.76,3.34a10.47,10.47,0,0,0,5.15,1.86c1,.15,2.11.29,3.41.49s2.78.46,4.54.89c-2.4-.52-1.48-.79.59-.72a27.76,27.76,0,0,1,7.54,1.34A23,23,0,0,0,93,65a54,54,0,0,0,6.1.37c4.22.11,8.64-.11,12.73.28,2,.2,4.22.09,6.66.17,12.69.85,24.48-.3,37.8-.79a49.29,49.29,0,0,0,5-.57l4.56-.82c2.15-.25,4.49-.1,6.25-.25a66.19,66.19,0,0,0,7.39-1.06c-2.54.31-4.39.62-7.22.94-1.89.19,1.26-.85,2.5-1.11.53-.18,1.42.39,2,.22a27.51,27.51,0,0,0,3.45-.71c.53-.17.52.41.78.32,1.69-.29,2.94-1.16,4-1.11l2.32,0a11.27,11.27,0,0,0,1.41-.1l.91-.23a1.28,1.28,0,0,1-.48-.57c.45,0,1.1.06,1.55,0-.45,0-1.1-.05-1.55,0a1.28,1.28,0,0,0,.48.57c2.21-.57,4.76-1.18,7.13-1.69l0,0a14.75,14.75,0,0,1-4.26.13c.64.06.58.23-.14.34l-.58-.22a8,8,0,0,1,3.69-.33l.78-.28c.4,0,.41.22.51.36l.82-.14A16.54,16.54,0,0,0,195.06,58.3Z"/><path d="M180.64,59.77c.19,0,.43-.08.68-.11-.91.07-1.82.1-2.74.15A3.81,3.81,0,0,0,180.64,59.77Z"/><rect x="413.19" y="68.72" width="37.36" height="46.74" transform="translate(315.48 518.05) rotate(-86.75)" fill="none"/><g opacity="0.8"><path d="M418,63.45a2.19,2.19,0,0,0-.62.88c.08.28.4.09.44,0,.81.66.85,1.72,1.85,2.11a1.88,1.88,0,0,0-.39.29,11.87,11.87,0,0,1,.42,2.17c-.64.47,0,1.12-.5,1.64l-.33-.13a6.44,6.44,0,0,0-.45,1.27,2.35,2.35,0,0,1,.51,1.77,8,8,0,0,0-.5,1.06.34.34,0,0,0-.15-.38c-.47,0-.37.62-.86.73-.24-.42,0-1.15-.75-1.2-.06.54.37,1.32.08,1.64a1.32,1.32,0,0,0-.23-.73c-.66.24-.27,1.11-.3,1.65s.61,1.23.11,1.78a18.73,18.73,0,0,1-2.32-5.34,15.49,15.49,0,0,1-.48-6c.45-1.89,2.49-1.87,3.58-3C417.34,63.21,417.76,63.64,418,63.45Z"/><path d="M414.86,66.71c0,.17-.27,0-.13-.11Z" fill="#fff" opacity="0.3"/><path d="M414.48,67.37c-.31.18-.29-.29-.34-.43l.18.25.33-.36C414.71,67,414.33,67.15,414.48,67.37Z" fill="#fff" opacity="0.3"/><path d="M414.8,67.18l-.1,0S414.74,67.08,414.8,67.18Z" fill="#fff" opacity="0.3"/><path d="M414.77,67.76l.13,0Z" fill="#fff" opacity="0.3"/><path d="M414.85,68.17c.06,0,0,.1-.08.17S414.75,68.17,414.85,68.17Z" fill="#fff" opacity="0.3"/><path d="M414.46,68.39a.13.13,0,0,1-.12-.21C414.44,68.22,414.47,68.25,414.46,68.39Z" fill="#fff" opacity="0.3"/><polygon points="413.81 68.42 413.76 68.21 413.82 68.22 413.81 68.42" fill="#fff" opacity="0.3"/><path d="M415,69.88l0,.17Z" fill="#fff" opacity="0.3"/><path d="M414.77,70.18c0,.27.09.21-.16.46.31-.15-.18-.52.16-.53C414.77,70.14,414.8,70.18,414.77,70.18Z" fill="#fff" opacity="0.3"/><polygon points="415.2 70.44 415.21 70.27 415.23 70.41 415.2 70.44" fill="#fff" opacity="0.3"/><path d="M414.86,70.28l.2.12Z" fill="#fff" opacity="0.3"/><path d="M413.78,70.26l.2.08Z" fill="#fff" opacity="0.3"/><path d="M437.1,74.51c-.13-.21-.11-.55-.31-.6C437.17,73.83,437.25,74.24,437.1,74.51Z"/><path d="M436.75,74.62c.11-.09.11-.19.24,0-.28.23-.74-.14-.49-.43C436.63,74.38,436.41,74.6,436.75,74.62Z"/><path d="M424.18,74.73c.34,1.17-.41,1.91-.45,3.11-.5-.1-.67-.69-1.18-.14-.18.13.12.21.05.34-.19-.28-.56.14-.83.19,0,.28.13.62,0,.82-.37,0-.62-1.09-1-.32l.07.58c-.54-.1,0-1.09-.65-1.2l-.44.59c-.05-.24.35-.73-.12-.79s-.13.44-.51.48c-.28-.46.56-1.36-.29-1.38-.31-.05-.11.68-.36.22.61-.57-.24-1.1.4-1.68.74-.4.11-1.28,1.11-1.4.09-.54.8-.29,1.08-.45.85,1.14,1.31-.37,2.33.27C423.85,74,424,74.48,424.18,74.73Z"/><rect x="420.22" y="75.11" width="0.24" height="0.07" transform="translate(321.53 490.56) rotate(-86.75)" fill="#fff" opacity="0.3"/><path d="M419.47,75.45c-.1,0,0-.07,0-.1S419.48,75.41,419.47,75.45Z" fill="#fff" opacity="0.3"/><polygon points="419.84 75.64 419.88 75.5 420.01 75.65 419.84 75.64" fill="#fff" opacity="0.3"/><path d="M420,75.82c-.07.1-.1,0-.17,0S420,75.75,420,75.82Z" fill="#fff" opacity="0.3"/><path d="M419.73,76.31c-.29.4-.19-.25-.56-.3.13.11.31-.08.25-.22C419.45,75.92,419.57,76.24,419.73,76.31Z" fill="#fff" opacity="0.3"/><path d="M423.18,76.2c-.09-.17-.17,0-.27,0C423.05,76,423.12,76,423.18,76.2Z" fill="#fff" opacity="0.3"/><path d="M419.22,75.81s0,.1-.05.13S419.15,75.77,419.22,75.81Z" fill="#fff" opacity="0.3"/><polygon points="418.9 76.03 419.01 75.86 418.96 76.03 418.9 76.03" fill="#fff" opacity="0.3"/><path d="M420.15,76.24c0-.07-.31-.09-.16-.22C420,76.13,420.09,76.06,420.15,76.24Z" fill="#fff" opacity="0.3"/><path d="M422.9,76.29l.06.14Z" fill="#fff" opacity="0.3"/><polygon points="419.96 76.53 419.97 76.33 420.03 76.43 419.96 76.53" fill="#fff" opacity="0.3"/><path d="M422.94,76.87c-.22-.35-.09.3-.27-.08C422.82,76.59,422.91,76.8,422.94,76.87Z" fill="#fff" opacity="0.3"/><path d="M419.54,76.64c.1.18.19.25.36.23-.26-.12-.61,0-.63-.21C419.37,76.7,419.37,76.7,419.54,76.64Z" fill="#fff" opacity="0.3"/><polygon points="418.89 76.81 419 76.68 418.95 76.81 418.89 76.81" fill="#fff" opacity="0.3"/><rect x="422.32" y="77.24" width="0.41" height="0.03" transform="translate(321.47 494.73) rotate(-86.75)" fill="#fff" opacity="0.3"/><path d="M419.87,77.45c-.2,0-.13,0-.33-.13l.12.32,0,0-.07.2c-.15-.38.1-.57.35-.76C419.75,77.23,419.94,77.38,419.87,77.45Z" fill="#fff" opacity="0.3"/><path d="M420.29,77.37c-.07,0-.14,0-.17-.08-.21.06,0,.24,0,.24-.28,0,0-.17-.12-.28C420.09,77.29,420.36,77.17,420.29,77.37Z" fill="#fff" opacity="0.3"/><path d="M420.75,77.6c-.06-.21-.31,0-.19-.25C420.65,77.52,420.86,77.5,420.75,77.6Z" fill="#fff" opacity="0.3"/><path d="M420.25,78c.05-.34-.43-.13-.08-.42C420.27,77.64,420.49,77.89,420.25,78Z" fill="#fff" opacity="0.3"/><polygon points="420.55 78.06 420.53 77.89 420.56 77.93 420.55 78.06" fill="#fff" opacity="0.3"/><rect x="420.01" y="78" width="0.17" height="0.03" transform="translate(318.42 493.03) rotate(-86.75)" fill="#fff" opacity="0.3"/><path d="M436.12,79.18a.7.7,0,0,1-.24.57c0-.17.32-.19.13-.4l-.11.09c-.33-.25.29-.39-.18-.45-.23,0-.25.19-.36.32s.16.76.38.5l-.31.15c-.27-.18-.17-.62-.06-.82S436,78.74,436.12,79.18Z"/><path d="M417,80v0Z"/><path d="M416.64,80.36l.14.66Z"/><polygon points="417.1 81.41 417.17 81.34 417.26 81.45 417.1 81.41"/><path d="M416.8,81.77c.1.07,0,.16-.05.23S416.73,81.76,416.8,81.77Z"/><path d="M423.5,83.17c.07.58.48,1.15,0,1.67a2.72,2.72,0,0,1-1.44,2.5c-.29,1.42,1,2.75.55,4.15-.65,0-.69.65-1.24.82a1.18,1.18,0,0,1-.28.73c-.22-.28.4-1.1-.21-1.2l-.08,1c-.1-.14,0-.51-.06-.76-.46-.26-.8.33-.83.71-.32-.23,0-.61.06-.92-.4-.23-.23.43-.64.34a2,2,0,0,1,.35,2.3c-.39.32-.57,1.13-1.15,1.06-.3-.15-.26-.73-.68-.52a1.65,1.65,0,0,0-.69,1.29c-.19.3-.41-.05-.54-.13a1,1,0,0,0-.34-.63,2.28,2.28,0,0,1-.51,1.77c-.34,0-.71-.55-.79-.93a1.26,1.26,0,0,1,.36-1c.29-.33.61.1.88.08a2,2,0,0,1-.51-1.83,2.07,2.07,0,0,1,.82-1.15c.49-.28.77.08,1.2.31a1.34,1.34,0,0,1,1.11-.82l.4.16c.09-1.09-.22-2.23.35-3.18.29-.43.43-1.1,1.08-1.1.29-.26.78,0,1.08.26.08-.33.21-.83-.18-1.06-.07.06.1.62-.2.57a2.18,2.18,0,0,1-.35-1.66c-.31-.08-.29.29-.56.24.26-1-.49-2.24.48-3.07,0-.44.58-.65.8-.87A1.69,1.69,0,0,1,423.5,83.17Z"/><rect x="416.72" y="82.19" width="0.14" height="0.03" transform="translate(311.12 493.68) rotate(-86.75)"/><path d="M421.69,82.69c-.17,0-.06-.14,0-.21S421.65,82.76,421.69,82.69Z" fill="#fff" opacity="0.3"/><path d="M421.51,82.82c-.2-.08-.05.2-.09.3.11-.13.23.15.35-.05-.08.16.05.17-.13.44-.14,0-.57-.24-.66.16.37-.49.23-.43.43-1Z" fill="#fff" opacity="0.3"/><path d="M417.24,82.51l-.11.13Z"/><path d="M422.89,83c0,.24.21-.06.13.18l-.16-.21S423,83,422.89,83Z" fill="#fff" opacity="0.3"/><path d="M422.61,83.15h0Z" fill="#fff" opacity="0.3"/><path d="M421.56,83.16c-.11,0,0,.13-.08.17l-.06-.18Z"/><path d="M423.2,84.17l-.39-.33h.07c0-.27-.19-.22,0-.48A5.27,5.27,0,0,1,423.2,84.17Z" fill="#fff" opacity="0.3"/><polygon points="421.85 83.45 421.85 83.35 421.99 83.36 421.85 83.45" fill="#fff" opacity="0.3"/><path d="M422.66,83.6a.46.46,0,0,1-.2.53c-.24,0-.71-.24-.66.24v-.24l-.07.06c.06-.44-.34,0-.45,0,.22-.15-.18-.38.09-.37v0c0-.1.33.09.35-.15-.14.64.21-.16.39.36-.06-.21.27-.09.15-.33.17,0,.17.55.37.16-.33-.19.12-.34-.21-.56Z" fill="#fff" opacity="0.3"/><path d="M421.56,83.74c-.15.16-.27-.15-.33-.19C421.29,83.69,421.53,83.6,421.56,83.74Z" fill="#fff" opacity="0.3"/><path d="M422,83.7c-.07,0-.11,0-.21,0A.38.38,0,0,1,422,83.7Z" fill="#fff" opacity="0.3"/><path d="M423.09,83.76l.16.07Z" fill="#fff" opacity="0.3"/><path d="M420.79,84.1l-.08.1.05-.2S420.79,84.07,420.79,84.1Z" fill="#fff" opacity="0.3"/><path d="M421.13,84.09c-.2,0-.12.26-.21.19S421,84,421.13,84.09Z" fill="#fff" opacity="0.3"/><path d="M423.05,84.44c.23.15-.23-.19-.28.12-.12-.21.09-.34.26-.36Z" fill="#fff" opacity="0.3"/><path d="M422.6,84.51l-.1,0c0-.06.08-.16.15-.16S422.67,84.52,422.6,84.51Z" fill="#fff" opacity="0.3"/><path d="M422.1,84.42c0,.1,0,.34-.1.54.11-.2-.22-.36-.07-.55l0,.17Z" fill="#fff" opacity="0.3"/><path d="M421.48,84.55c-.25.12.11.42-.23.4-.19-.22-.51-.07-.56-.31C421.22,85,420.88,84.25,421.48,84.55Z" fill="#fff" opacity="0.3"/><path d="M421.26,84.71c-.16,0-.12-.14,0-.17C421.24,84.61,421.34,84.68,421.26,84.71Z"/><polygon points="422.22 84.76 422.33 84.6 422.29 84.73 422.22 84.76" fill="#fff" opacity="0.3"/><polygon points="421.57 84.73 421.68 84.6 421.74 84.67 421.57 84.73" fill="#fff" opacity="0.3"/><polygon points="422.68 84.96 422.72 84.86 422.75 84.93 422.68 84.96" fill="#fff" opacity="0.3"/><path d="M422.33,85.11c-.13,0,0-.27.08-.2Z" fill="#fff" opacity="0.3"/><path d="M423.18,85.19c-.11,0-.24,0-.31,0C422.92,85,423,85,423.18,85.19Z" fill="#fff" opacity="0.3"/><path d="M420.81,85.5s.11-.06.08-.13c-.11.16.24.56-.1.47,0-.17,0-.3-.11-.48Z" fill="#fff" opacity="0.3"/><rect x="421.38" y="85.45" width="0.14" height="0.03" transform="translate(312.25 501.4) rotate(-86.75)" fill="#fff" opacity="0.3"/><path d="M419.49,86l.05.27a1,1,0,0,0-.24-.52c-.39.15,0,0-.4-.16-.43.32-.28.67-.33,1,.37,0,.2.55.55.37.08-.2.3-.39.34-.59a1.48,1.48,0,0,1-.45.72.9.9,0,0,1-.49-.81.74.74,0,0,1,.45-.76C419.21,85.58,419.43,85.83,419.49,86Z"/><path d="M421.91,85.9c0,.18,0,0-.06-.07S421.91,85.87,421.91,85.9Z" fill="#fff" opacity="0.3"/><path d="M422.73,85.88l0,.14Z" fill="#fff" opacity="0.3"/><path d="M434.57,88.39c.7.42.43,1.56.49,2.24a5.07,5.07,0,0,1-1.22,2.83c-.91.46-1.58,1.58-2.69,1.89,0,.41-.31.56-.22.94-.28.12-.31.53-.63.3-.61-.71.6-1.08.23-1.79s-1-1.55-.82-2.32a3.08,3.08,0,0,0,.88-1.11,8.45,8.45,0,0,0-.09-1.91c0-.75,1-.87,1.3-1.36.46-.25.92-.09,1.35-.4C433.71,87.94,434.27,87.83,434.57,88.39Z"/><path d="M398.11,86.6a1.59,1.59,0,0,1-.51,1.13c-.33-.16-.66-.35-.64-.76s.17-.6.45-.75A.54.54,0,0,1,398.11,86.6Z"/><path d="M397.26,86.48l-.08.27Z" fill="#fff" opacity="0.3"/><path d="M397.91,87l0-.07a1.37,1.37,0,0,1-.37.53c-.2,0-.18-.45-.36-.19-.13-.18.26-.43.34-.66.11,0,.24.11.31.05l0-.14C398,86.49,397.85,86.86,397.91,87Z" fill="#fff" opacity="0.3"/><polygon points="421.15 89.13 421.3 88.97 421.46 89.08 421.15 89.13" fill="#fff" opacity="0.3"/><path d="M421.11,89.23l-.08.3Z" fill="#fff" opacity="0.3"/><path d="M422,90.2c-.14-.08-.06-.18,0-.27Z" fill="#fff" opacity="0.3"/><path d="M420.58,90.19c0-.07-.25.15-.24,0Z" fill="#fff" opacity="0.3"/><path d="M421.59,90.38c0,.07.09.14.17,0,0,.31-.4-.09-.36.26.12-.24.44.16.37.19-.24,0-.71-.18-.56.2,0,.07.13-.47-.19-.31v.1c-.12-.28.08-.17.32-.22l-.13-.08C421.35,90.43,421.45,90.47,421.59,90.38Z" fill="#fff" opacity="0.3"/><path d="M420.76,90.64c-.14,0,0-.2.08-.27Z" fill="#fff" opacity="0.3"/><path d="M420.51,90.76a.18.18,0,0,1-.27,0C420.31,90.75,420.49,90.56,420.51,90.76Z" fill="#fff" opacity="0.3"/><polygon points="420.19 91.02 420.16 90.95 420.33 90.99 420.19 91.02" fill="#fff" opacity="0.3"/><polygon points="421.41 91.22 421.52 91.09 421.54 91.26 421.41 91.22" fill="#fff" opacity="0.3"/><path d="M420.73,91.22c0,.06-.08.06-.11.13l.18-.27C420.83,91.19,420.86,91.33,420.73,91.22Z" fill="#fff" opacity="0.3"/><rect x="421.82" y="91.18" width="0.14" height="0.07" transform="translate(306.93 507.26) rotate(-86.75)" fill="#fff" opacity="0.3"/><path d="M421,91.27l.17,0Z" fill="#fff" opacity="0.3"/><path d="M420.28,91.36l0,.11Z" fill="#fff" opacity="0.3"/><path d="M420.57,91.65l0,.14c-.14,0-.19-.22-.33-.12C420.38,91.33,420.42,91.78,420.57,91.65Z" fill="#fff" opacity="0.3"/><path d="M421,91.68l.09.14Z" fill="#fff" opacity="0.3"/><polygon points="418.42 93.4 418.56 93.31 418.52 93.41 418.42 93.4" fill="#fff" opacity="0.3"/><rect x="416.41" y="93.5" width="0.17" height="0.03" transform="translate(299.55 504.04) rotate(-86.75)" fill="#fff" opacity="0.3"/><polygon points="417.09 94.08 417.07 93.87 417.16 94.01 417.09 94.08" fill="#fff" opacity="0.3"/><path d="M411.75,93.94a2.73,2.73,0,0,1,.91,2.68,8.4,8.4,0,0,1-1.17,1.87c-.39.32-.78,0-1.17.24-.23-.18-.23-.66-.64-.72-.25-.9-.94-2-.31-2.94A1.72,1.72,0,0,1,411.75,93.94Z"/><path d="M391.67,96.14a3.59,3.59,0,0,1-.27,2.4,1.78,1.78,0,0,1-1.57.73c-.07-.51-.78-.72-.88-1.24a2.53,2.53,0,0,1,.33-1.72c.54-.44,1.2-1.33,2-.8Z"/><polygon points="410.85 97.77 410.83 97.64 410.86 97.64 410.85 97.77" fill="#fff" opacity="0.3"/><path d="M390.34,96.92c-.11.09-.35.08-.22.26C390,96.9,390.07,96.87,390.34,96.92Z" fill="#fff" opacity="0.3"/><path d="M390.23,97.66l.12.14Z" fill="#fff" opacity="0.3"/></g><rect x="415.97" y="86.62" width="24.59" height="30.77" transform="translate(286.05 518.65) rotate(-84.55)" fill="none"/><g opacity="0.8"><path d="M433.67,55.2a1.39,1.39,0,0,0-.43.57c.05.18.26.07.29,0,.51.46.52,1.15,1.16,1.44a.93.93,0,0,0-.26.18,8,8,0,0,1,.22,1.43c-.43.3,0,.74-.37,1.07l-.22-.09a3.84,3.84,0,0,0-.32.83,1.56,1.56,0,0,1,.29,1.17,5.16,5.16,0,0,0-.36.69.23.23,0,0,0-.09-.26c-.31,0-.26.4-.58.46-.15-.28.05-.76-.46-.81-.06.36.21.88,0,1.08a.87.87,0,0,0-.14-.48c-.44.14-.2.72-.23,1.08s.37.82,0,1.17a12.69,12.69,0,0,1-1.39-3.57,10.24,10.24,0,0,1-.16-4C431,56,432.34,56,433.08,55.3,433.22,55,433.48,55.32,433.67,55.2Z"/><path d="M431.5,57.26c0,.11-.18,0-.09-.07Z" fill="#fff" opacity="0.3"/><path d="M431.23,57.69c-.21.11-.18-.2-.22-.29l.12.16.22-.22C431.39,57.48,431.13,57.54,431.23,57.69Z" fill="#fff" opacity="0.3"/><path d="M431.44,57.57l-.06,0S431.41,57.5,431.44,57.57Z" fill="#fff" opacity="0.3"/><path d="M431.41,58l.09,0Z" fill="#fff" opacity="0.3"/><path d="M431.45,58.22s0,.07-.05.11S431.38,58.22,431.45,58.22Z" fill="#fff" opacity="0.3"/><path d="M431.19,58.36a.09.09,0,0,1-.08-.14C431.18,58.24,431.2,58.27,431.19,58.36Z" fill="#fff" opacity="0.3"/><polygon points="430.76 58.36 430.73 58.22 430.78 58.23 430.76 58.36" fill="#fff" opacity="0.3"/><path d="M431.52,59.36l0,.11Z" fill="#fff" opacity="0.3"/><path d="M431.35,59.54c0,.18,0,.14-.12.3.21-.09-.1-.34.12-.34C431.35,59.52,431.37,59.54,431.35,59.54Z" fill="#fff" opacity="0.3"/><polygon points="431.62 59.73 431.63 59.61 431.65 59.7 431.62 59.73" fill="#fff" opacity="0.3"/><path d="M431.41,59.61l.12.08Z" fill="#fff" opacity="0.3"/><path d="M430.69,59.57l.13.06Z" fill="#fff" opacity="0.3"/><path d="M445.93,63c-.08-.15-.06-.37-.19-.4C446,62.51,446,62.79,445.93,63Z"/><path d="M445.69,63c.08-.06.08-.12.16,0-.19.14-.48-.12-.31-.3C445.62,62.86,445.47,63,445.69,63Z"/><path d="M437.42,62.77c.2.79-.32,1.25-.37,2-.33-.08-.43-.47-.78-.12-.12.08.08.14,0,.22-.12-.19-.37.08-.55.11,0,.18.07.41,0,.54-.25,0-.38-.74-.63-.24l0,.38c-.35-.08.05-.71-.39-.8l-.31.38c0-.16.25-.47-.06-.53s-.09.29-.34.31c-.18-.31.39-.89-.16-.92-.2,0-.09.45-.24.14.42-.37-.13-.73.3-1.1s.11-.84.76-.89c.08-.35.54-.17.73-.27.53.77.87-.21,1.53.24C437.22,62.3,437.3,62.61,437.42,62.77Z"/><rect x="434.81" y="62.93" width="0.16" height="0.04" transform="translate(330.92 489.89) rotate(-84.55)" fill="#fff" opacity="0.3"/><path d="M434.31,63.13c-.07,0,0-.05,0-.07S434.31,63.11,434.31,63.13Z" fill="#fff" opacity="0.3"/><polygon points="434.54 63.26 434.57 63.18 434.65 63.27 434.54 63.26" fill="#fff" opacity="0.3"/><path d="M434.67,63.39c-.05.06-.07,0-.11,0S434.65,63.34,434.67,63.39Z" fill="#fff" opacity="0.3"/><path d="M434.46,63.7c-.21.26-.12-.16-.36-.21.08.08.2-.05.17-.14C434.28,63.44,434.35,63.65,434.46,63.7Z" fill="#fff" opacity="0.3"/><path d="M436.73,63.72c-.06-.12-.11,0-.18,0C436.65,63.58,436.69,63.58,436.73,63.72Z" fill="#fff" opacity="0.3"/><path d="M434.13,63.36a.16.16,0,0,1,0,.09C434.1,63.4,434.09,63.33,434.13,63.36Z" fill="#fff" opacity="0.3"/><polygon points="433.92 63.49 433.99 63.39 433.96 63.5 433.92 63.49" fill="#fff" opacity="0.3"/><path d="M434.73,63.66s-.2-.06-.1-.14S434.7,63.55,434.73,63.66Z" fill="#fff" opacity="0.3"/><path d="M436.54,63.77l0,.09Z" fill="#fff" opacity="0.3"/><polygon points="434.6 63.85 434.61 63.72 434.65 63.79 434.6 63.85" fill="#fff" opacity="0.3"/><path d="M436.55,64.15c-.13-.24-.06.2-.17-.06C436.48,64,436.53,64.1,436.55,64.15Z" fill="#fff" opacity="0.3"/><path d="M434.32,63.92c.06.11.12.17.24.15-.17-.08-.41,0-.42-.15C434.21,64,434.21,64,434.32,63.92Z" fill="#fff" opacity="0.3"/><polygon points="433.89 64.01 433.96 63.93 433.93 64.01 433.89 64.01" fill="#fff" opacity="0.3"/><rect x="436.13" y="64.38" width="0.27" height="0.02" transform="translate(330.73 492.58) rotate(-84.55)" fill="#fff" opacity="0.3"/><path d="M434.52,64.45c-.13,0-.09,0-.22-.09l.07.21,0,0-.05.13c-.09-.26.08-.38.25-.49C434.44,64.31,434.57,64.41,434.52,64.45Z" fill="#fff" opacity="0.3"/><path d="M434.79,64.41s-.08,0-.1,0,0,.15,0,.15c-.18,0,0-.11-.07-.18C434.66,64.35,434.85,64.28,434.79,64.41Z" fill="#fff" opacity="0.3"/><path d="M435.09,64.57c0-.13-.2,0-.12-.16C435,64.52,435.17,64.51,435.09,64.57Z" fill="#fff" opacity="0.3"/><path d="M434.76,64.81c0-.22-.29-.09-.05-.27C434.78,64.59,434.92,64.76,434.76,64.81Z" fill="#fff" opacity="0.3"/><polygon points="434.95 64.88 434.94 64.76 434.96 64.79 434.95 64.88" fill="#fff" opacity="0.3"/><rect x="434.6" y="64.82" width="0.11" height="0.02" transform="translate(328.83 491.37) rotate(-84.55)" fill="#fff" opacity="0.3"/><path d="M445.16,66a.42.42,0,0,1-.17.36c0-.11.22-.11.1-.26l-.08.06c-.21-.17.21-.25-.1-.3s-.17.12-.25.2.09.51.24.34l-.21.09c-.17-.13-.1-.41,0-.54S445.1,65.71,445.16,66Z"/><path d="M432.59,66v0Z"/><path d="M432.32,66.29l.07.43Z"/><polygon points="432.59 66.99 432.64 66.95 432.7 67.02 432.59 66.99"/><path d="M432.39,67.22c.06,0,0,.11,0,.15S432.35,67.21,432.39,67.22Z"/><path d="M436.76,68.31c0,.38.29.77,0,1.1a1.78,1.78,0,0,1-1,1.61c-.23.92.61,1.83.25,2.74-.43,0-.47.41-.83.51a.75.75,0,0,1-.21.47c-.14-.19.3-.71-.1-.79l-.08.62c-.06-.1,0-.34,0-.5-.3-.18-.54.2-.56.44-.21-.15,0-.4.06-.6-.26-.16-.17.28-.43.21a1.29,1.29,0,0,1,.17,1.52c-.27.2-.41.73-.78.67-.19-.11-.16-.49-.44-.36a1.06,1.06,0,0,0-.48.83c-.14.19-.27,0-.35-.1s-.08-.34-.21-.42a1.56,1.56,0,0,1-.38,1.15c-.22,0-.46-.38-.5-.63a.86.86,0,0,1,.26-.67c.2-.21.4.08.58.07a1.31,1.31,0,0,1-.29-1.21,1.38,1.38,0,0,1,.57-.74c.33-.17.51.07.78.24a.9.9,0,0,1,.75-.52l.26.12c.09-.71-.09-1.47.31-2.09.21-.27.31-.71.74-.69.2-.16.51,0,.7.2.07-.22.16-.54-.09-.7,0,0,.05.41-.15.36a1.42,1.42,0,0,1-.18-1.09c-.2-.07-.2.18-.38.14.2-.68-.26-1.49.39-2,0-.29.4-.41.55-.55A1.11,1.11,0,0,1,436.76,68.31Z"/><rect x="432.33" y="67.5" width="0.09" height="0.02" transform="translate(324.11 491.52) rotate(-84.55)"/><path d="M435.58,68c-.11,0,0-.1,0-.14S435.55,68,435.58,68Z" fill="#fff" opacity="0.3"/><path d="M435.46,68c-.13-.06,0,.13-.06.19s.14.11.22,0c-.05.11,0,.11-.09.28-.09,0-.37-.17-.44.1.26-.32.16-.28.31-.65Z" fill="#fff" opacity="0.3"/><path d="M432.66,67.71l-.08.09Z"/><path d="M436.37,68.2c0,.16.13,0,.07.12l-.09-.14S436.46,68.17,436.37,68.2Z" fill="#fff" opacity="0.3"/><path d="M436.18,68.27l.11,0Z" fill="#fff" opacity="0.3"/><path d="M435.48,68.25c-.06,0,0,.09-.05.11l0-.11Z"/><path d="M436.54,69l-.25-.22h0c0-.18-.12-.15,0-.32A4.35,4.35,0,0,1,436.54,69Z" fill="#fff" opacity="0.3"/><polygon points="435.67 68.45 435.67 68.38 435.76 68.39 435.67 68.45" fill="#fff" opacity="0.3"/><path d="M436.2,68.57a.3.3,0,0,1-.15.34c-.16,0-.45-.17-.44.14l0-.15-.05,0c.05-.29-.23,0-.3,0,.15-.1-.11-.25.07-.24v0c0-.07.22.06.23-.1-.11.42.15-.09.25.25,0-.13.18,0,.11-.21.11,0,.1.37.23.11-.21-.13.09-.21-.12-.37Z" fill="#fff" opacity="0.3"/><path d="M435.47,68.63c-.1.11-.17-.1-.21-.13S435.46,68.54,435.47,68.63Z" fill="#fff" opacity="0.3"/><path d="M435.79,68.62a.57.57,0,0,1-.14,0A.33.33,0,0,1,435.79,68.62Z" fill="#fff" opacity="0.3"/><path d="M436.48,68.69l.1,0Z" fill="#fff" opacity="0.3"/><path d="M435,68.85l-.05.07,0-.13S435,68.83,435,68.85Z" fill="#fff" opacity="0.3"/><path d="M435.18,68.85c-.13,0-.08.18-.15.13S435.12,68.76,435.18,68.85Z" fill="#fff" opacity="0.3"/><path d="M436.43,69.13c.15.1-.14-.13-.18.07-.08-.14.06-.22.18-.23Z" fill="#fff" opacity="0.3"/><path d="M436.14,69.17l-.07,0s.05-.11.1-.11S436.18,69.17,436.14,69.17Z" fill="#fff" opacity="0.3"/><path d="M435.81,69.09c0,.07,0,.23-.08.36.08-.13-.13-.24,0-.37v.12Z" fill="#fff" opacity="0.3"/><path d="M435.4,69.17c-.17.07.06.27-.16.25s-.33,0-.36-.21C435.21,69.44,435,69,435.4,69.17Z" fill="#fff" opacity="0.3"/><path d="M435.25,69.27c-.11,0-.08-.1,0-.12S435.3,69.25,435.25,69.27Z"/><polygon points="435.88 69.33 435.95 69.22 435.92 69.31 435.88 69.33" fill="#fff" opacity="0.3"/><polygon points="435.45 69.28 435.53 69.2 435.57 69.25 435.45 69.28" fill="#fff" opacity="0.3"/><polygon points="436.18 69.47 436.21 69.4 436.22 69.45 436.18 69.47" fill="#fff" opacity="0.3"/><path d="M435.94,69.56c-.08,0,0-.18.06-.13Z" fill="#fff" opacity="0.3"/><path d="M436.5,69.63c-.07,0-.15,0-.21,0C436.33,69.53,436.4,69.49,436.5,69.63Z" fill="#fff" opacity="0.3"/><path d="M434.93,69.77s.08,0,.06-.08c-.08.11.14.37-.08.31,0-.12,0-.2-.06-.32Z" fill="#fff" opacity="0.3"/><rect x="435.31" y="69.76" width="0.09" height="0.02" transform="translate(324.55 496.53) rotate(-84.55)" fill="#fff" opacity="0.3"/><path d="M434.05,70.1l0,.18a.7.7,0,0,0-.15-.35c-.25.08,0,0-.26-.12-.29.2-.2.43-.24.68.24,0,.12.37.36.25,0-.13.2-.25.23-.38a1,1,0,0,1-.31.47.61.61,0,0,1-.31-.55.51.51,0,0,1,.32-.49A.39.39,0,0,1,434.05,70.1Z"/><path d="M435.65,70.07c0,.11,0,0,0,0S435.65,70.05,435.65,70.07Z" fill="#fff" opacity="0.3"/><path d="M436.19,70.07v0Z" fill="#fff" opacity="0.3"/><path d="M443.91,72c.45.28.24,1,.27,1.48a3.43,3.43,0,0,1-.87,1.83c-.62.28-1.09,1-1.82,1.17,0,.27-.22.37-.18.62-.18.07-.21.34-.42.18-.38-.48.43-.7.2-1.17s-.59-1-.48-1.55a2.1,2.1,0,0,0,.61-.71,5.26,5.26,0,0,0,0-1.26c.05-.49.69-.54.9-.86.3-.15.61,0,.89-.23C443.36,71.7,443.73,71.65,443.91,72Z"/><path d="M420,69.92a1,1,0,0,1-.36.73c-.21-.11-.43-.24-.4-.51s.13-.39.31-.49A.37.37,0,0,1,420,69.92Z"/><path d="M419.42,69.82l-.06.18Z" fill="#fff" opacity="0.3"/><path d="M419.83,70.18v-.05a1.1,1.1,0,0,1-.26.34c-.14,0-.11-.31-.23-.14-.08-.12.18-.27.24-.43.07,0,.15.09.2,0l0-.1C419.91,69.85,419.8,70.08,419.83,70.18Z" fill="#fff" opacity="0.3"/><polygon points="435.06 72.17 435.17 72.07 435.27 72.14 435.06 72.17" fill="#fff" opacity="0.3"/><path d="M435,72.23l-.07.2Z" fill="#fff" opacity="0.3"/><path d="M435.58,72.89c-.08,0,0-.11,0-.17Z" fill="#fff" opacity="0.3"/><path d="M434.66,72.85s-.16.1-.15,0Z" fill="#fff" opacity="0.3"/><path d="M435.32,73a.06.06,0,0,0,.11,0c0,.2-.26-.07-.24.15.08-.15.28.12.24.14s-.46-.14-.37.12c0,0,.09-.3-.12-.21v.06c-.07-.18.06-.1.22-.13l-.08-.06C435.16,73,435.23,73.06,435.32,73Z" fill="#fff" opacity="0.3"/><path d="M434.77,73.15c-.09,0,0-.13.06-.17Z" fill="#fff" opacity="0.3"/><path d="M434.6,73.23a.12.12,0,0,1-.18,0C434.47,73.22,434.6,73.09,434.6,73.23Z" fill="#fff" opacity="0.3"/><polygon points="434.39 73.39 434.37 73.34 434.48 73.37 434.39 73.39" fill="#fff" opacity="0.3"/><polygon points="435.18 73.55 435.26 73.47 435.27 73.58 435.18 73.55" fill="#fff" opacity="0.3"/><path d="M434.73,73.53s-.05,0-.07.08l.13-.16C434.8,73.52,434.82,73.61,434.73,73.53Z" fill="#fff" opacity="0.3"/><rect x="435.45" y="73.54" width="0.09" height="0.04" transform="translate(320.91 500.1) rotate(-84.55)" fill="#fff" opacity="0.3"/><path d="M434.93,73.57l.11,0Z" fill="#fff" opacity="0.3"/><path d="M434.43,73.62l0,.07Z" fill="#fff" opacity="0.3"/><path d="M434.62,73.81v.09c-.09,0-.12-.14-.22-.08C434.5,73.6,434.52,73.89,434.62,73.81Z" fill="#fff" opacity="0.3"/><path d="M434.91,73.84l0,.1Z" fill="#fff" opacity="0.3"/><polygon points="433.16 74.91 433.26 74.85 433.23 74.92 433.16 74.91" fill="#fff" opacity="0.3"/><rect x="431.83" y="74.92" width="0.11" height="0.02" transform="translate(316.28 497.76) rotate(-84.55)" fill="#fff" opacity="0.3"/><polygon points="432.27 75.32 432.26 75.19 432.32 75.28 432.27 75.32" fill="#fff" opacity="0.3"/><path d="M428.76,75.1a1.8,1.8,0,0,1,.53,1.78,5.5,5.5,0,0,1-.81,1.2c-.27.2-.52,0-.78.13-.15-.12-.14-.44-.4-.49-.15-.59-.57-1.31-.13-1.94A1.12,1.12,0,0,1,428.76,75.1Z"/><path d="M415.5,76a2.42,2.42,0,0,1-.24,1.57,1.18,1.18,0,0,1-1.05.44c0-.34-.5-.5-.55-.84a1.68,1.68,0,0,1,.26-1.12c.36-.28.82-.85,1.35-.48Z"/><polygon points="428.07 77.59 428.06 77.5 428.08 77.51 428.07 77.59" fill="#fff" opacity="0.3"/><path d="M414.6,76.51c-.07.06-.23,0-.15.17C414.38,76.49,414.42,76.47,414.6,76.51Z" fill="#fff" opacity="0.3"/><path d="M414.51,77l.08.1Z" fill="#fff" opacity="0.3"/></g><path d="M429.12,53.75a10.31,10.31,0,0,1,2.93-.17c.18.1-.11.36.07.41.85-.3.76.56,1.57.2,0,.6.79.83.95,1.4a1.51,1.51,0,0,0,1-.12c.07.45-.72.49-1,.9.79,1,.14,2.75.93,3.66-.24.08-.37-.07-.55-.08-.48.33-.07.46-.14.8.45.31.87.2,1.49,0a.94.94,0,0,1-.74.73l-.16,2.23a3.44,3.44,0,0,1,1,.54c-.63.57-.39-.58-1.12,0-.16.46-.08.82.43.76-.18.74-1.58,1.9-.43,2.09.71.58.79,1.82.78,2.89a4.79,4.79,0,0,1-.48-2.4l-.27.68c-.23-.11.22-.59.09-.9-.05.1-.53.39-.55.75.14.07.29-.1.39-.21a1,1,0,0,0-.16.37c-.81.36-.2-.72-.95-.62l-.85.3c.44-.43,1-.55,1.36-1.11-.32-.12-.38-.73-1-.21-.23.79-1.84,1.35-1.9,1.77-.21.35.55.09.2.48-.64-.17-1.48.92-2.12.67-.08-.29.17-.69.38-1l-.79,0c.11-.43.09-.9-.42-1-.23.09-.43.39-.67.4-1.11,0-.76-1.43-1.4-1.56-.39.41-.32.82-.57,1.19.48-1.2-1.45.07-.77-1.27-.66.19-.54,1.37-1.37,1.23a1.58,1.58,0,0,1,.75-.9c.05-.13-.23-.19-.41-.21-.39.34-.51,1-1,.87a2.87,2.87,0,0,0,.52-1.09c-.61.18-.52-.72-1.29-.26-.06.42-.7,1.12-1.07,1,0-.52,1.57-1.53.7-1.82,0-.2-.26-.43-.41-.13-.36.72-1.3,1-1.89,1.57A5.36,5.36,0,0,1,421.58,65c-.2-.56.58-1.35.62-2-.36-.27-.76.19-1.27.33a24.15,24.15,0,0,0,2.66-4l-.54-.32c1.05-.49,1.13-1.15,2-1.79.07-.34-.32,0-.26-.38.8-.12.85-1,1.54-1l0-.42c.46,0,1.13-.48,1.06-.89A2,2,0,0,0,429.12,53.75Z"/><polygon points="428.81 55.21 428.92 55.06 428.91 55.18 428.81 55.21" opacity="0.3"/><path d="M428.8,55.53l-.29.18,0,.07-.27-.1C428.41,55.87,428.57,55.45,428.8,55.53Z" opacity="0.3"/><path d="M429.48,56.76c-.24.12-.09,0,0-.13S429.57,56.72,429.48,56.76Z" opacity="0.3"/><path d="M427.45,57.39c0,.07-.05.1-.1.16S427.31,57.36,427.45,57.39Z" opacity="0.3"/><polygon points="427.72 57.53 427.64 57.32 427.73 57.29 427.72 57.53" opacity="0.3"/><path d="M428.47,57.47c-.28-.06,0-.12.1-.16Z" opacity="0.3"/><path d="M427.6,58c.17.33-.58.6-.6,1,.2-.3.22-.79-.2-.6C427.35,58.45,427.1,57.87,427.6,58Z" opacity="0.3"/><path d="M428.49,57.93c-.19.11-.08-.16-.08-.29C428.35,57.94,428.6,57.62,428.49,57.93Z" opacity="0.3"/><polygon points="427.92 58.13 428.02 58.02 428.16 58.09 427.92 58.13" opacity="0.3"/><path d="M427.73,58.24l-.14.13Z" opacity="0.3"/><path d="M426.82,58.76l-.37.13A.24.24,0,0,1,426.82,58.76Z" opacity="0.3"/><path d="M428,58.28c0,.3.08.33-.11.43.26-.56-.57.24-.32-.16v0C427.71,58.6,427.77,58.34,428,58.28Z" opacity="0.3"/><path d="M428.28,58.36l-.15.21Z" opacity="0.3"/><polygon points="426.75 59.34 426.67 59.09 426.8 59.16 426.75 59.34" opacity="0.3"/><path d="M427.79,59c.29-.26,0,.24.37,0-.44.27-.43.19-.56,0C427.7,58.92,427.79,58.93,427.79,59Z" opacity="0.3"/><polygon points="427.07 59.42 427.21 59.25 427.26 59.32 427.07 59.42" opacity="0.3"/><polygon points="428.53 58.91 428.52 59.03 428.4 58.84 428.48 58.96 428.53 58.91" opacity="0.3"/><path d="M426.8,60.07c-.05,0-.05.06-.09.07l0-.22Z" opacity="0.3"/><path d="M427.84,59.7s.59.19,0,.39l.19-.23c-.27-.1-.48.45-.48.45l.16-.41,0,0c-.14,0,0-.22,0-.3S427.7,59.71,427.84,59.7Z" opacity="0.3"/><polygon points="429.2 59.5 429.06 59.43 429.2 59.46 429.2 59.5" opacity="0.3"/><polygon points="427.14 60.58 427.29 60.49 427.23 60.79 427.14 60.58" opacity="0.3"/><path d="M426.42,61.19l.32.05Z" opacity="0.3"/><path d="M428.25,60.74a2.28,2.28,0,0,1-.17.58C428.14,61.14,428,60.79,428.25,60.74Z" opacity="0.3"/><path d="M427.38,61.49c.19-.11,0-.16.1-.28l-.06.3Z" opacity="0.3"/><path d="M441.54,56.73c.09.17-.2.39-.29.34-.43.15-.46,0-.54-.28C441,56.41,441.36,56.64,441.54,56.73Z"/><path d="M442.79,61.31c.35.43,1.43.25,1.16,1-.06.18-.53.35-.62.22-.72-.5-2.13-.95-1-2.36C442.71,60.27,442.82,60.87,442.79,61.31Z"/><path d="M426.78,67.7c0,.15-.3.43-.44.39C426.86,67.91,426.22,67.78,426.78,67.7Z"/><polygon points="425.91 68.45 425.92 68.24 425.81 68.44 425.91 68.45"/><path d="M435.59,65.15c-.19.11-.34.36-.58.36C434.85,65.18,435.5,65.15,435.59,65.15Z" opacity="0.3"/><polygon points="439.35 64.1 439.32 63.92 439.36 63.94 439.35 64.1"/><path d="M432.64,68.33l-.24.16c.14-.09.15-.29.11-.32l-.15.17c-.24.17,0-.18,0-.3C432.52,68,432.84,68,432.64,68.33Z"/><path d="M432.07,68.56l-.06.22Z"/><path d="M431.68,69.89c-.22-.16.06-.26.12-.52l.08.25.55-.87A2,2,0,0,1,431.68,69.89Z"/><path d="M430.62,69.79c-.3.42-.28.93-.68,1.38-.31-.24,0-1.21.55-1.69Z"/><polygon points="430.33 69.89 430.28 69.95 430.39 69.67 430.42 70.06 430.33 69.89" opacity="0.3"/><polygon points="440.54 66.41 440.58 66.39 440.57 66.6 440.52 66.61 440.54 66.41"/><path d="M430.26,70.35c-.09,0,0,.24-.16.45S429.9,70.28,430.26,70.35Z" opacity="0.3"/><path d="M440,66.93l.08.21Z"/><path d="M440.82,68.05a2.11,2.11,0,0,1,0-.71Z"/><path d="M440.33,67.63l.09.13Z"/><path d="M436.29,69.65c-.42,0-.55.7-.46.79-.22-.24.17-.69.37-1Z"/><polygon points="436.18 69.84 436.28 69.73 436.27 69.93 436.18 69.84"/><path d="M441,68.51a.71.71,0,0,1-.33.19c0,.11.44-.47.22-.59C441,68.14,441,68.34,441,68.51Z"/><path d="M436,70.78c-.15.13-.37-.07-.27-.18l.13.07c.24-.09.16-.3.16-.42C436.3,70.28,436,70.62,436,70.78Z"/><path d="M436.6,71.71l-.2.19c-.28.1-.31-.17-.26-.3C436.44,71.21,436.56,71.49,436.6,71.71Z"/><path d="M429.72,76.31c-.14,0,0-.15,0-.23S429.73,76.23,429.72,76.31Z"/><path d="M429.65,76.81l-.1.27Z"/><path d="M429.17,78.16c0,.15-.3.31-.39.22S429.08,78.08,429.17,78.16Z"/><path d="M434.9,84c-.1.07-.06.17-.06.21l0-.68.24.54Z"/><polygon points="434.69 85.31 434.79 85.27 434.77 85.59 434.68 85.63 434.69 85.31"/><path d="M435.53,85.21l-.1.15c-.14,0-.08-.17,0-.32C435.54,85.09,435.54,85.13,435.53,85.21Z"/><path d="M434.72,86.56l.14,0a.26.26,0,0,0-.15.33l-.06-.81C434.78,86.22,434.69,86.33,434.72,86.56Z"/><path d="M434.87,87.22c-.32,0,.35-.44.18-.7C434.8,86.81,435.45,86.9,434.87,87.22Z"/><path d="M435.08,95.76V96c-.28.14-.51,0-.35-.27C434.85,95.68,435,95.65,435.08,95.76Z"/><text transform="translate(87.41 45.51)" font-size="27.2" font-family="Requiem, Requiem"><tspan fill="#751b1b">F</tspan><tspan x="16" y="0" font-size="18.92">IND THE SECRET OF FORTUNE</tspan></text></g></g></svg>