<svg xmlns="http://www.w3.org/2000/svg" viewBox="0 0 351.52 61.19"><title>inputArea</title><g style="isolation:isolate"><g id="圖層_2" data-name="圖層 2"><g id="wordOnPaper"><g opacity="0.78" style="mix-blend-mode:color-burn"><g style="mix-blend-mode:multiply"><path d="M266.58,6.09h2.18c.25,0,.76,1.41,1.52,4.23A4.25,4.25,0,0,0,271,12a12.76,12.76,0,0,0,1.42,4.22,10.48,10.48,0,0,0,1,2.62l.34,1-.12.09V20a20.24,20.24,0,0,0,1.42,3.36,26.64,26.64,0,0,0,1.41,4.26,13.14,13.14,0,0,0,1.52,4c1,3,1.67,5.12,2,6.43.17,0,.39.5.65,1.52a9.52,9.52,0,0,1,1.21,3.26c1.08,1.37,1.91,2.06,2.49,2.06v.34l-.22.21h-.32l-1.52.1L281,45.12h-.31c0,.23-.07.34-.22.34h-.12l-1.09.1-1.52-.1h-1.52a1.15,1.15,0,0,1-.75-.34h-.34l-1,.56c0-.14-.14-.22-.43-.22l-.12-.12V45l1.3-.65c.44-.42.66-.75.66-1A25,25,0,0,0,274.07,39l.12-.09-2.82-8.7c-.44,0-.66-.08-.66-.22l-.87.31-.77-.09-2.27.21v-.21h-.22l-1.86.09v-.09l-.1.09-.55-.09-2.39.09q0,.63-3.49,10.13l-1,3.58a4.24,4.24,0,0,0,1.52,1.21v.09l-.22.22h-3.26l-.43-.22-.13.12h-.09l-1.09-.21c-.08.2-.3.31-.65.31h-.44c-.21,0-.32-.18-.34-.53l-.74.53h-.13l-.21-.22V45l1.08-.65.34.09v-.09c0-.23.25-.63.75-1.21l.87-2.49c.24,0,1.08-2.18,2.52-6.43l3.26-8.58,1.4-3.92.34-.65c1.37-.37,2.05-.73,2.05-1.09l-.43-.21-.1.09H263l-.31-.09-.12.09h-.1c-.29-.06-.44-.21-.44-.43a30.76,30.76,0,0,1,2-5.1l1-3.39a7.79,7.79,0,0,1,1.42-3.35l-.12-.13V7.4l.12-.56-.12-.1V6.62C266.34,6.27,266.45,6.09,266.58,6.09Zm.1,10.54-3.36,9.79-.44,1.21h7.5l-.66-2.83a5.8,5.8,0,0,1-.75-2q-.21,0-1.64-4.69C267,17.14,266.81,16.63,266.68,16.63Z"/></g></g><g opacity="0.78" style="mix-blend-mode:color-burn"><g style="mix-blend-mode:multiply"><path d="M320.08,34.33v.35H320l-.24-.23.12-.12ZM322.88,5l.33.13.67-.13c0,.38.3.57.91.57,0-.23.63-.34,1.91-.34v.12l.09-.12h1.58L328.7,5h.24l.1.13.12-.13,1.58.23H331l5.85-.1c3.48.56,5.76,1.45,6.86,2.67.43,0,1.07.73,1.91,2.08a4.8,4.8,0,0,1,1.13,3.27v.94a7.17,7.17,0,0,1-1.37,4.07q0,1.07-3.46,4h-.24c0,.18,1.16.61,3.49,1.29q4.36,2.51,4.37,3.84c.69,0,1.36,1.75,2,5.25v.22a18,18,0,0,1-1.34,4.66c-1.89,2.49-3.21,3.74-3.94,3.74-.19.56-.83,1-1.91,1.39l-1,.12-.46-.12a5.1,5.1,0,0,1-2,.47h-.79l-.45-.12-1.89.34h-.12l-.33-.22-.34.22h-8v.23h-.12l.12.12V44l-.33.35.09.12v.45c0,.13-.26.33-.78.59a1.36,1.36,0,0,1-.43,1,2.66,2.66,0,0,1-1.25-.91v-.35l.22-.37v-.1l-.22-.35-.12.1H326l-.89-.22-1.12.22-.58-.69v-.23l.24-.34c-.82-.09-1.24-.2-1.24-.35l1.79-1.64v-.12l-.79-.79L323,38.86l.12-.1h.12l.21.23-.09.12.43.12.12-.12h.57l.34.22v-.1l-.46-.59v-.12a1.75,1.75,0,0,1,1-.57v-.13l-.22-.22-.33.35h-.34c-.6-.35-.91-.58-.91-.7v-.12l.12-.13v-.12l-.69-.69-.43.24v-.12c-.35.15-.54.31-.57.47l.21.35v.47l-.43.69a2.86,2.86,0,0,1-1.67-1,4.45,4.45,0,0,1,.64-1.53h.58l-.12-.1v-.7l.33-.37H322l1.12.72h.12l.45-.35h.1c.91.42,1.36.72,1.36.92.45,0,.67-.39.67-1.16V19.19l-.12-.72.12-.57-.12-2.57c.16,0,.24-.23.24-.7q.15,0,.33-.81h.1a9.76,9.76,0,0,0-1-4.07c0-1.71-.45-2.85-1.34-3.39l-1.36-1C322.8,5.32,322.88,5.2,322.88,5ZM320.51,39.8h.33c.23,0,.42.35.58,1l-.36.35h-.34l-.31-.35.1-.34-.22-.23V40Zm.12-1.38.09.1v.24h-.31v-.12Zm2.25-4.31.09.09v.13l-.33.22-.1-.1v-.12Zm-.34,2.42h.22V37h-.22Zm3.8,9.91.12.1v.13l-.22.22-.12-.1v-.12Zm.36-1.53.09.37a1,1,0,0,0,1-.6l-.12-.47.12-.1h-.24C327.25,44.64,327,44.91,326.7,44.91Zm2.91,1.16.12.12v.13l-.24.22-.21-.22Zm2-21.87v.91l.22.82h-.22v.37l.22.23-.12.47.24,1-.12.12.21.22v.25c-.22,0-.33.08-.33.22l.24.82-.12,2h.21l-.21,2.46L332,36l-.12.13v.1l.12.34-.12,1.17q0,2.92,3.58,2.92h3.28a6.54,6.54,0,0,0,5.49-2.92,4.17,4.17,0,0,0,.57-2l-.12-.35A2.33,2.33,0,0,0,345,34.2V32.69q0-4.38-4.28-7.21C339.51,24.63,336.49,24.2,331.64,24.2Zm.55-16.68L331.86,10v.81a3.21,3.21,0,0,0,.21,1.29l-.21.23.21.24-.21.23v2.8l.12.69-.12.35.21.24V17l-.21.25.12,2.9v1.41l.55.1h3.15c1.79,0,3.17-1.08,4.16-3.25a10.8,10.8,0,0,0,.67-4V13a5.24,5.24,0,0,0-4.16-5.48l-1.58-.1Zm1.46,29.61h.12v.34h-.33v-.12Z"/></g></g><g opacity="0.78" style="mix-blend-mode:color-burn"><path d="M44.13,21.16c.11.05.39,0,.33-.13L44,20.94Z" fill="#792020"/><path d="M44.93,20.14a1.21,1.21,0,0,0-1-.18c.45.13.27.18.8.34.06.14-.13.26-.3.24.12.05-.09.23.2.3.35-.19.35-.45,0-.69C44.72,20.09,44.84,20.14,44.93,20.14Z" fill="#792020"/><path d="M38.45,7.13l0,.1A.31.31,0,0,0,38.45,7.13Z" fill="#792020"/><path d="M37.42.73a.12.12,0,0,0,.12-.09C37.47.66,37.41.69,37.42.73Z" fill="#792020"/><path d="M35.77.19l.1,0S35.79.15,35.77.19Z" fill="#792020"/><path d="M38.45,7.13l-.12-.27C38.23,7,38.37,7,38.45,7.13Z" fill="#792020"/><path d="M43.6,18.34a.34.34,0,0,0,.13.1l-.06-.11Z" fill="#792020"/><path d="M41.82,9.7l0,.06.19-.07Z" fill="#792020"/><path d="M43.78,12.35c0-.08-.38.1-.54.16a.35.35,0,0,1,.31,0A1.21,1.21,0,0,0,43.78,12.35Z" fill="#792020"/><path d="M45,17.35l.08.08Z" fill="#792020"/><path d="M40.23,8a.88.88,0,0,0,.07-.13A.24.24,0,0,0,40.23,8Z" fill="#792020"/><path d="M42.86,24.32l.07,0S42.87,24.3,42.86,24.32Z" fill="#792020"/><path d="M45.15,21.16l0,.05h.22Z" fill="#792020"/><path d="M32.59,0h0C32.68,0,32.63,0,32.59,0Z" fill="#792020"/><path d="M10.68,25c.26-.39.57.4.83-.14C11.37,25,10.8,24.57,10.68,25Z" fill="#792020"/><path d="M43.64,18.25a.43.43,0,0,1,0-.11A.12.12,0,0,0,43.64,18.25Z" fill="#792020"/><path d="M11.51,24.87h0l0-.06Z" fill="#792020"/><path d="M26,3.07a.54.54,0,0,0,.16.1A.29.29,0,0,0,26,3.07Z" fill="#792020"/><path d="M31,1.25h-.13A.28.28,0,0,0,31,1.25Z" fill="#792020"/><path d="M16.39,8.23c-.07,0-.13,0-.16.11h.05C16.27,8.29,16.29,8.24,16.39,8.23Z" fill="#792020"/><path d="M14.49,10.32h.09l0-.08Z" fill="#792020"/><path d="M39.86,30.8a2.07,2.07,0,0,1,.34.15C40,30.8,40.13,30.47,39.86,30.8Z" fill="#792020"/><path d="M43.81,18.29c-.1,0-.15,0-.17,0l0,.08A.2.2,0,0,0,43.81,18.29Z" fill="#792020"/><path d="M18.43,10.55l-.32.21A1.17,1.17,0,0,0,18.43,10.55Z" fill="#792020"/><path d="M24.32,35.55l.1,0S24.36,35.52,24.32,35.55Z" fill="#792020"/><path d="M17.41,11.62a.72.72,0,0,0-.35,0,.2.2,0,0,0,.05.09Z" fill="#792020"/><path d="M40.21,31h0Z" fill="#792020"/><path d="M37.64,36.33s0,0,0,0l-.11,0,0,.13Z" fill="#792020"/><path d="M38.5,7.25v0a.2.2,0,0,1,0,.07S38.5,7.27,38.5,7.25Z" fill="#792020"/><polygon points="25.14 35.56 25.11 35.66 25.19 35.59 25.14 35.56" fill="#792020"/><path d="M40.73,11.16a.21.21,0,0,0,0,.11A.43.43,0,0,0,40.73,11.16Z" fill="#792020"/><path d="M41.7,12.66V13A1.25,1.25,0,0,0,41.7,12.66Z" fill="#792020"/><path d="M42.22,13.93a.5.5,0,0,0,.16,0h0Z" fill="#792020"/><path d="M24.07,6.73s0,0,0,0S24,6.81,24.07,6.73Z" fill="#792020"/><path d="M38.11,2.27a1.53,1.53,0,0,1-.22.16C38,2.47,38.08,2.5,38.11,2.27Z" fill="#792020"/><polygon points="18.46 10.53 18.46 10.52 18.43 10.55 18.46 10.53" fill="#792020"/><path d="M37.58,2.4a.26.26,0,0,0,.31,0A.42.42,0,0,0,37.58,2.4Z" fill="#792020"/><path d="M43.74,19.52v.06h.06Z" fill="#792020"/><path d="M43.8,19.59l.05.06S43.84,19.59,43.8,19.59Z" fill="#792020"/><path d="M44,19.8l-.1-.15C43.85,19.71,43.84,19.77,44,19.8Z" fill="#792020"/><path d="M43.62,17.74h0Z" fill="#792020"/><path d="M43.45,17.22c0,.14-.22.39-.09.54h.12C43.25,17.72,43.71,17.28,43.45,17.22Z" fill="#792020"/><path d="M44.35,14.39c0,.17,0,.34.07.51.11-.13.26-.32.37-.11C45,14,44.53,15,44.35,14.39Z" fill="#792020"/><path d="M43.86,12.87c.18.22.19-.1.27-.13C43.93,12.65,43.87,12.63,43.86,12.87Z" fill="#792020"/><path d="M43.39,2.2l.17-.31C43.35,1.85,43.5,2,43.39,2.2Z" fill="#792020"/><path d="M40.81,3.19c0,.09.07.17.11.27l.18-.29Z" fill="#792020"/><polygon points="40.23 0.43 40.34 0.4 39.95 0.44 40.23 0.43" fill="#792020"/><path d="M14.52,9.7l.38.23C14.94,9.77,14.58,9.43,14.52,9.7Z" fill="#792020"/><path d="M11.26,17.47c-.24,0-.42.25-.23.43C11.09,17.72,11.28,17.57,11.26,17.47Z" fill="#792020"/><polygon points="22.13 38.33 21.92 38.4 22.27 38.4 22.13 38.33" fill="#792020"/><path d="M36.57,35.53l-.28.76c.05-.13.11-.25.17-.37A1.11,1.11,0,0,0,36.57,35.53Z" fill="#751b1b"/><path d="M36,37l-.05.13,0,.11Z" fill="#751b1b"/><path d="M35.42,38.24a6.36,6.36,0,0,0,.32-.64C35.65,37.79,35.53,38,35.42,38.24Z" fill="#751b1b"/><path d="M35.93,37.25c0,.07-.08.1,0,0h0l-.16.39C35.81,37.47,35.87,37.35,35.93,37.25Z" fill="#751b1b"/><path d="M35.93,37.25l.15-.22C36,37.09,36,37.17,35.93,37.25Z" fill="#751b1b"/><path d="M36.21,37.76c0,.14-.14.06-.24.33s-.22.6-.33.89a9.1,9.1,0,0,1-.37.85,1.55,1.55,0,0,1-.29.43,1.35,1.35,0,0,0-.31.4c-.08.16-.17.37-.27.6l-.28.64c-.14.38-.18.58.09.14a24.35,24.35,0,0,0,1.73-3.53,31.15,31.15,0,0,0,1-3.15c.07-.31.15-.59.24-.88-.12.37-.22.76-.37,1.17a7.6,7.6,0,0,0-.26.93C36.46,36.94,36.35,37.33,36.21,37.76Z" fill="#751b1b"/><path d="M37.68,29.72v.43c0,.31-.08.63-.11,1s0,.65-.1,1l.07-.29c.05-.37,0-.42,0-.09a15.26,15.26,0,0,0,.2-2.22S37.7,29.51,37.68,29.72Z" fill="#751b1b"/><path d="M37.74,29v0Z" fill="#751b1b"/><path d="M34,40.86a18.54,18.54,0,0,1-3.58,3.92c-.06.13-.09.26-.24.34a1.5,1.5,0,0,0-.34.12c-.18.15-.38.28-.56.41l-.19.18h0c-.11.14-.08.19,0,.2a.53.53,0,0,1,.22,0s-.15,0-.22,0a.81.81,0,0,0-.3.1h0a3.36,3.36,0,0,1-.54-.38,1.8,1.8,0,0,1,.54.38h0l.33-.3.09-.11-.41.28L28,45.34l-.27-.18c-.33-.2-.7-.43-.74-.75l-.21-.22v.07l-.05-.11c-.3-.3-.6-.6-.87-.93a8.38,8.38,0,0,1-.75-.46l0-.36a1,1,0,0,1-.47-.23c.05.26.08.51.14.73,0,.37.76.19.7.72.06-.53-.67-.35-.7-.72-.06-.22-.09-.47-.14-.73A2.09,2.09,0,0,1,23.94,41a1.67,1.67,0,0,1,.65,1.19,1,1,0,0,0,.47.23l0,.36a8.38,8.38,0,0,0,.75.46c-.27-.31-.54-.63-.79-1l-.39-.5-.36-.53A22.38,22.38,0,0,1,21,34a20.2,20.2,0,0,1-.28-8.07,19.13,19.13,0,0,1,3.4-8A28.14,28.14,0,0,1,26.54,15c.44-.43.86-.87,1.33-1.27.23-.2.45-.41.69-.59l.09-.08h0l.06,0a.69.69,0,0,0,.13-.11l.35.27.9.64c.31.23.6.48.9.72s.56.53.84.79A18.08,18.08,0,0,1,34.77,19a20.32,20.32,0,0,1,1.81,4,17.86,17.86,0,0,1,.83,4.23c.18,2.94.31,1.42.32,1.27a10,10,0,0,0,0-1.34l-.06-.69c0-.24-.06-.49-.1-.75a24.16,24.16,0,0,0-1-4.12c.38,1.23.21.79-.15-.24s-1.11-2.58-1.65-3.68a19.17,19.17,0,0,0-2.12-3.49,21.57,21.57,0,0,0-1.48-1.76L30.77,12l-.21-.22a1.15,1.15,0,0,0-.29-.24l-1.69-1.18c-.28.19-.54.35-.82.56l-.67.48c-.31.22-.6.47-.9.7s-.58.48-.87.72-.57.48-.84.73A17.76,17.76,0,0,0,22,16.35a19.66,19.66,0,0,0-4.16,9.7,24.87,24.87,0,0,0,1,10.91,14.49,14.49,0,0,0,2.9,4.71c.34.52.71,1,1,1.56a14.16,14.16,0,0,0,1,1.38c.27.29.52.57.8.82s.56.48.83.71.29.2.43.3l.45.31c.39.29.83.55,1.23.8-.44-.31-.87-.6-1.24-.89s-.53-.39-.79-.6a17.83,17.83,0,0,1-1.58-1.44c-.38-.39-.15-.34.24-.14.2.09.43.23.66.36l.59.36c.28.13.29.82.59.94a3.68,3.68,0,0,0,.39.3c.17.12.36.24.56.36l1.19.64c.28.11.25.44.33.61,0,0,.05,0,.08,0a7.17,7.17,0,0,0,1.48-1.21,4.76,4.76,0,0,1,.91-1.2l1-.9a4,4,0,0,0,.5-.58l.27-.45a.48.48,0,0,1-.36,0,8.07,8.07,0,0,0,.59-.58,8.07,8.07,0,0,1-.59.58.48.48,0,0,0,.36,0c.63-1.07,1.36-2.26,1.94-3.41h0c-.2.32-.38.64-.61.94a7.47,7.47,0,0,1-.76.85c.24-.24.27-.17,0,.15l-.28.15c.19-.27.36-.56.55-.83a7.33,7.33,0,0,1,.63-.73l.17-.4c.14-.16.18-.12.25-.13l.21-.39Z" fill="#751b1b"/><path d="M28.77,46.12h0l.27-.23-.26.18L28,45.42C28.08,45.76,28.45,46,28.77,46.12Z" fill="#751b1b"/><path d="M37.5,7.75l.79-.13-.4,0A1.25,1.25,0,0,0,37.5,7.75Z" fill="#751b1b"/><path d="M39,7.54l.14,0,.12,0Z" fill="#751b1b"/><path d="M40.42,7.4a5.43,5.43,0,0,0-.71,0C39.91,7.43,40.15,7.43,40.42,7.4Z" fill="#751b1b"/><path d="M39.31,7.45c.08,0,.13,0,0,0h0l.42-.06Z" fill="#751b1b"/><path d="M39.31,7.45l-.27,0Z" fill="#751b1b"/><path d="M39.61,7c.14,0,.12.09.4,0L41,6.83c.31,0,.61-.07.92-.09a1.29,1.29,0,0,1,.51,0,2.06,2.06,0,0,0,.51.07l.65-.07.7-.08c.4-.06.59-.13.07-.14a25.46,25.46,0,0,0-3.92.26,30.62,30.62,0,0,0-3.23.72l-.87.23c.38-.09.76-.19,1.19-.27a6.19,6.19,0,0,0,.94-.24C38.77,7.15,39.16,7.05,39.61,7Z" fill="#751b1b"/><path d="M31.91,9.69l.36-.21c.29-.14.59-.25.88-.39s.6-.28.9-.39l-.28.07c-.35.15-.38.19-.07.06a15,15,0,0,0-2,.95S31.72,9.79,31.91,9.69Z" fill="#751b1b"/><path d="M31.29,10l.39-.21h0l-.38.21Z" fill="#751b1b"/><path d="M43.39,7.3a18.49,18.49,0,0,1,5.18,1.14.57.57,0,0,1,.42,0,1,1,0,0,0,.28.23c.21.08.42.19.62.28l.26.08h0c.17,0,.2,0,.18-.08a.72.72,0,0,1-.09-.2,1.29,1.29,0,0,1,.09.2,1,1,0,0,0,.24.21h0a2.65,2.65,0,0,1-.07.66,2,2,0,0,1,.06-.66h0l-.42-.13-.14,0,.45.21-.17,1c0,.12,0,.23,0,.32,0,.39,0,.83-.28,1l-.08.29.05,0a.43.43,0,0,1-.07.1c-.11.41-.22.82-.37,1.22a6.61,6.61,0,0,1,0,.89l-.3.2a1,1,0,0,1,0,.52,7,7,0,0,0,.55-.49c.32-.2-.21-.75.29-1-.5.21,0,.76-.29,1a7,7,0,0,1-.55.49A2.2,2.2,0,0,1,48.53,16a1.71,1.71,0,0,1,.71-1.17,1,1,0,0,0,0-.52l.3-.2a6.61,6.61,0,0,0,0-.89c-.13.4-.27.79-.44,1.18l-.24.58-.28.58A22.42,22.42,0,0,1,43.89,22a19.94,19.94,0,0,1-6.84,4.28,19.19,19.19,0,0,1-8.67,1.08,27.85,27.85,0,0,1-3.69-.62c-.59-.16-1.19-.3-1.76-.51-.29-.1-.59-.19-.87-.31l-.1,0,0,0-.06,0-.16-.06.06-.43.1-1.1c.05-.38.12-.76.18-1.14s.17-.75.26-1.13a18.43,18.43,0,0,1,1.81-4.39A19.92,19.92,0,0,1,26.65,14a17.13,17.13,0,0,1,3.24-2.84c2.46-1.63,1.08-1,.94-.91a8.33,8.33,0,0,0-1.16.67l-.58.39c-.19.14-.38.3-.59.47a23.53,23.53,0,0,0-3.07,2.91c.87-.94.57-.57-.14.25s-1.67,2.26-2.36,3.27a19.57,19.57,0,0,0-2,3.58A21.24,21.24,0,0,0,20.18,24l-.16.57-.08.29a.92.92,0,0,0-.07.37l-.17,2.05c.3.15.57.3.89.43l.75.34c.34.16.7.28,1.05.43s.71.26,1.06.39.71.26,1.06.37a17.88,17.88,0,0,0,3.67.75,19.7,19.7,0,0,0,10.47-1.25,24.88,24.88,0,0,0,8.94-6.34,14.4,14.4,0,0,0,2.63-4.87c.27-.55.54-1.13.84-1.67a13.33,13.33,0,0,0,.68-1.57c.11-.38.23-.74.31-1.11s.14-.72.2-1.07c0-.17,0-.35,0-.52l0-.54c.06-.49.06-1,.08-1.47-.05.53-.08,1-.16,1.52s-.07.65-.12,1a17.3,17.3,0,0,1-.45,2.09c-.16.52-.23.3-.25-.14a6.14,6.14,0,0,1,0-.75c0-.26,0-.51,0-.69s.57-.66.52-1A4.1,4.1,0,0,0,52,11.1c0-.21,0-.44,0-.66l0-1.35c-.05-.31.26-.44.36-.6a.08.08,0,0,0-.06-.05,7.61,7.61,0,0,0-1.8-.68A4.91,4.91,0,0,1,49,7.58l-1.29-.44A3.79,3.79,0,0,0,47,7h-.52a.47.47,0,0,1,.16.33c-.23-.06-.55-.19-.79-.23.24,0,.56.17.79.23A.47.47,0,0,0,46.46,7c-1.25,0-2.64-.05-3.92,0h0c.37,0,.74,0,1.11.05a9.35,9.35,0,0,1,1.12.24c-.33-.08-.28-.15.1-.12l.27.17-1-.06a6.12,6.12,0,0,1-1-.18l-.42,0c-.21,0-.2-.1-.24-.15h-.45Z" fill="#751b1b"/><path d="M50.57,9.22h0l-.34-.11.29.13-.17,1A1.32,1.32,0,0,0,50.57,9.22Z" fill="#751b1b"/><path d="M12.16,21.28l-.51-.63a4,4,0,0,1,.23.34A2,2,0,0,0,12.16,21.28Z" fill="#751b1b"/><path d="M11.21,20.06l-.08-.12-.08-.09Z" fill="#751b1b"/><path d="M10.4,18.92a6.9,6.9,0,0,0,.39.6C10.68,19.35,10.56,19.14,10.4,18.92Z" fill="#751b1b"/><path d="M11,19.86c0-.08-.05-.12,0,0h0l-.26-.33Z" fill="#751b1b"/><path d="M11,19.86l.12.24A2.68,2.68,0,0,1,11,19.86Z" fill="#751b1b"/><path d="M10.42,19.84c-.1-.1,0-.15-.17-.36l-.61-.74c-.19-.24-.36-.49-.54-.75a1.52,1.52,0,0,1-.22-.46,1.78,1.78,0,0,0-.2-.48c-.09-.14-.23-.33-.38-.52S8,16.12,7.88,16c-.25-.32-.41-.45-.15,0A25.41,25.41,0,0,0,9.9,19.24a32.07,32.07,0,0,0,2.23,2.44c.23.22.43.43.64.65-.26-.29-.55-.57-.83-.9a6.26,6.26,0,0,0-.68-.7C11,20.48,10.72,20.19,10.42,19.84Z" fill="#751b1b"/><path d="M16.63,25.16,16.26,25c-.26-.18-.51-.39-.77-.57s-.54-.37-.8-.58l.21.21c.3.22.35.23.09,0a13.45,13.45,0,0,0,1.83,1.29A.73.73,0,0,0,16.63,25.16Z" fill="#751b1b"/><path d="M17.19,25.55l-.37-.23h0l.37.23Z" fill="#751b1b"/><path d="M8.83,16.4a18.88,18.88,0,0,1-1.58-5.07A.52.52,0,0,1,7.08,11a1.13,1.13,0,0,0,.06-.36c0-.23,0-.46-.07-.68L7,9.65H7c-.06-.16-.12-.16-.16-.11a.59.59,0,0,1-.13.18s.08-.13.13-.18a1,1,0,0,0,.06-.31v0a2.78,2.78,0,0,1,.6-.27,1.69,1.69,0,0,1-.6.27v0l.1.43,0,.13,0-.49,1-.38.28-.14c.34-.18.73-.39,1-.26l.29-.08-.07,0h.12c.41-.11.83-.21,1.25-.28a5.75,5.75,0,0,1,.77-.42l.33.16a.88.88,0,0,1,.43-.3c-.25-.08-.48-.18-.7-.24s-.55.56-1,.24c.42.32.64-.41,1-.24s.45.16.7.24a2.12,2.12,0,0,1,1.36,0,1.69,1.69,0,0,1-1.36,0,.88.88,0,0,0-.43.3l-.33-.16a5.75,5.75,0,0,0-.77.42c.41-.08.82-.16,1.23-.2l.63-.09.64,0a22.3,22.3,0,0,1,7.92.84,20,20,0,0,1,7.12,3.81,19.17,19.17,0,0,1,5.25,7A29.13,29.13,0,0,1,35,23c.15.59.32,1.18.43,1.78,0,.3.13.6.16.9l0,.12v.11c0,.05,0,.11,0,.17l-.4.16-1,.46c-.36.15-.72.28-1.08.41s-.74.23-1.11.34a18.26,18.26,0,0,1-4.71.61A20.12,20.12,0,0,1,23,27.58a17.72,17.72,0,0,1-4.07-1.41c-2.63-1.32-1.38-.45-1.26-.36a9,9,0,0,0,1.16.67l.63.31c.22.1.45.18.69.28a25,25,0,0,0,4.06,1.22c-1.25-.29-.78-.21.29,0s2.78.33,4,.42a19.42,19.42,0,0,0,4.07-.08,20.91,20.91,0,0,0,2.28-.39l.58-.14.29-.08a1.1,1.1,0,0,0,.35-.12L37.94,27c0-.33,0-.64-.07-1l-.08-.82c0-.38-.1-.75-.15-1.13s-.13-.75-.19-1.12-.13-.73-.21-1.09a18,18,0,0,0-1.17-3.56,19.71,19.71,0,0,0-6.3-8.47,24.82,24.82,0,0,0-9.95-4.59,14.51,14.51,0,0,0-5.53.13c-.61,0-1.25.11-1.86.12a11.83,11.83,0,0,0-1.7.18c-.39.09-.76.17-1.12.28s-.69.24-1,.37c-.17.06-.32.14-.48.21l-.5.23c-.44.2-.89.45-1.3.67.48-.22,1-.46,1.39-.62s.6-.27.91-.39a16.52,16.52,0,0,1,2-.64c.53-.13.37,0,0,.28a7.23,7.23,0,0,1-.64.38c-.23.13-.44.26-.6.34s-.86-.17-1.12,0L7.84,7a5.58,5.58,0,0,0-.59.31L6.09,8c-.24.19-.51,0-.69,0,0,0,0,0,0,.08A7.31,7.31,0,0,0,5.69,10a4.84,4.84,0,0,1,.58,1.4l.26,1.33a3.94,3.94,0,0,0,.25.73l.25.46a.49.49,0,0,1,.2-.3c.07.23.12.57.21.8-.09-.23-.14-.57-.21-.8a.49.49,0,0,0-.2.3C7.64,15,8.3,16.2,9,17.28v0c-.18-.32-.36-.65-.51-1a7.57,7.57,0,0,1-.35-1.08c.09.32,0,.31-.15,0v-.31c.14.3.31.59.44.88a5.29,5.29,0,0,1,.32.92L9,17c.07.19,0,.21,0,.27s.15.26.23.38Z" fill="#751b1b"/><path d="M6.93,9.21h0L7,9.57l0-.32,1-.36A1.36,1.36,0,0,0,6.93,9.21Z" fill="#751b1b"/><path d="M24,42.42c0-.12.14-.15.08-.27s.27-.11.34,0v.15C24.32,42.32,24.15,42.48,24,42.42Z" fill="#751b1b"/><path d="M29.3,38.81s0-.12.07-.16.05,0,0,.1A.09.09,0,0,1,29.3,38.81Z" fill="#751b1b"/><path d="M27.36,38.73c0-.1-.07-.15-.07-.26a.75.75,0,0,1,.57-.39c.06,0,.08.07.05.13a1,1,0,0,1-.38.52C27.38,38.91,27.47,38.54,27.36,38.73Z" fill="#751b1b"/><path d="M30,36.84l-.07.08s.1-.18.07-.24l-.17.1c0-.06,0-.1.08-.14-.2-.06-.15-.24-.35-.32l.16-.13c0-.1-.09-.12-.08-.21.21-.07.11-.28.22-.44a1.38,1.38,0,0,1,.33-.23,1,1,0,0,1,0-.34l.06.05c.08-.09.09-.16.05-.2s.12-.13.17-.16-.26,0-.27-.25a1.89,1.89,0,0,1,.17-.41c.1,0,.3-.13.35-.09s.13.21,0,.43c0,0,.13,0,.21-.1s-.09-.1,0-.23a1,1,0,0,1,.35.06l.05-.11c0,.22.37.11.37.24a2.32,2.32,0,0,1-.21.94c-.16,0-.18.31-.26.41s-.06-.11-.12,0,.15,0,0,.27c-.22.11-.38.51-.55.7s-.19-.12-.34.16c.09,0,0,.08-.06.16S30.05,36.9,30,36.84Z" fill="#751b1b"/><path d="M28.08,35.56c0-.06.05-.14.07-.2s.2-.09.26-.06a.41.41,0,0,1-.12.29C28.17,35.73,28.11,35.61,28.08,35.56Z" fill="#751b1b"/><path d="M30.15,34c0-.06-.06-.11,0-.2s.16-.24.25-.27.19,0,.15.17S30.23,34.12,30.15,34Z" fill="#751b1b"/><path d="M25.05,36.23c-.15-.1.06-.27.14-.44.26,0,.13-.32.37-.34,0,0,.1,0,.07.13-.26.19.05.4-.22.57A.44.44,0,0,1,25.05,36.23Z" fill="#751b1b"/><path d="M27.1,35.21a.33.33,0,0,1,.13-.26.11.11,0,0,1,.18,0,.28.28,0,0,1-.13.26C27.18,35.29,27.16,35.23,27.1,35.21Z" fill="#751b1b"/><path d="M28.17,34.48c0-.07,0-.09.08-.15s.1,0,.13,0l-.06.16C28.23,34.56,28.21,34.52,28.17,34.48Z" fill="#751b1b"/><path d="M27.21,34.75a.51.51,0,0,1,.15-.24c.08,0,.19,0,.15.12s-.08.13-.14.22A.13.13,0,0,1,27.21,34.75Z" fill="#751b1b"/><path d="M28.28,34c0-.09-.06-.11-.11-.13s0-.26.07-.35.18-.18.29-.27.34.08.25.36-.21.47-.37.38S28.34,34,28.28,34Z" fill="#751b1b"/><path d="M30.32,32.65l-.11-.19c.08-.22.33-.42.38-.54s.15.21.31,0c.11,0,.18.07.16.24-.16.35-.5.22-.59.57C30.48,32.62,30.43,32.6,30.32,32.65Z" fill="#751b1b"/><path d="M27.24,34.39a.59.59,0,0,1,0-.26c.07,0,.16-.08.24-.11a.41.41,0,0,1-.05.33C27.4,34.44,27.27,34.47,27.24,34.39Z" fill="#751b1b"/><path d="M27,34c.12-.19.19-.07.31-.12s0,.08,0,.16a.37.37,0,0,1-.21.2C27,34.21,27,34,27,34Z" fill="#751b1b"/><path d="M25.18,34.51c0-.09.07-.16.12-.23s.13,0,.14.09S25.22,34.64,25.18,34.51Z" fill="#751b1b"/><path d="M27.48,32.38c0-.07.14-.19.17-.13l-.06.18C27.54,32.42,27.49,32.44,27.48,32.38Z" fill="#751b1b"/><path d="M14.18,35.32s0,0,0,0v0S14.2,35.32,14.18,35.32Z" fill="#751b1b"/><path d="M22.83,32.43c.09-.17.42-.46.23-.49s-.18-.28-.36-.35c.09-.07.15-.2.07-.26s-.08,0-.12,0,.34-.3.39-.49a6.5,6.5,0,0,0,.64-.42c0-.07-.07,0,0-.08.05.1.27.08.4.12l0-.07c.19,0,.21.13.23.23s.13-.07.17-.08-.22.28-.11.34l.19-.07c-.09.09-.21.08-.25.22s0,.11,0,.14c-.2.12-.19.41-.41.52-.12-.05-.22.16-.29.26l0-.15a.8.8,0,0,1-.43.28l0-.08C23.07,32.05,23,32.33,22.83,32.43Z" fill="#751b1b"/><path d="M23.15,32.21h0l-.08.13S23.13,32.25,23.15,32.21Z" fill="#751b1b"/><path d="M24,31.69a.13.13,0,0,1,.06-.07S24.09,31.7,24,31.69Z" fill="#751b1b"/><path d="M31.33,29.56c.12-.12.05,0,.07.07S31.27,29.65,31.33,29.56Z" fill="#751b1b"/><path d="M24.26,31.33v0l0,0A0,0,0,0,1,24.26,31.33Z" fill="#751b1b"/><path d="M22.5,31.61s.09-.06.06,0S22.51,31.62,22.5,31.61Z" fill="#751b1b"/><path d="M22.11,31.41a0,0,0,0,1,0,0v.05S22.12,31.42,22.11,31.41Z" fill="#751b1b"/><path d="M22.89,30.76v0l.05,0S22.9,30.78,22.89,30.76Z" fill="#751b1b"/><path d="M22.8,30c-.18.11-.09-.16-.25-.14,0,0,.22-.1.16-.18s-.13.07-.09,0c.06.06.24-.06.29-.11l-.05-.07c.17,0,.4,0,.36.23s-.2.16-.27.32C23,29.86,22.79,30.06,22.8,30Z" fill="#751b1b"/><path d="M25.47,29s0-.12.1-.14S25.56,29,25.47,29Z" fill="#751b1b"/><path d="M21.75,30.16s0-.08.05-.13.07.06,0,.12A.06.06,0,0,0,21.75,30.16Z" fill="#751b1b"/><path d="M22.41,27.39c-.17.13-.31-.05-.57.14.09,0,.21-.17.24-.11-.15,0,.09-.3-.07-.35a4.52,4.52,0,0,0,.48-.43.35.35,0,0,0,.31-.06v0c.1.07.1.16.32.05l0,0c0,.09-.08.06-.15.15s0,.11.09.06c0,.14-.18.3-.14.41C22.79,27.07,22.46,27.57,22.41,27.39Z" fill="#751b1b"/><path d="M23.33,27c.05,0,.12-.07.11,0a.19.19,0,0,1-.12.11A.1.1,0,0,1,23.33,27Z" fill="#751b1b"/><polygon points="21.94 27.07 21.94 27.1 21.89 27.11 21.94 27.07" fill="#751b1b"/><polygon points="22.74 26.43 22.75 26.45 22.73 26.45 22.74 26.43" fill="#751b1b"/><path d="M22.14,26.27c0-.06.13-.07.16-.11S22.19,26.23,22.14,26.27Z" fill="#751b1b"/><path d="M22.77,26a.25.25,0,0,0-.13.12c0-.16-.2,0-.31.05,0-.19-.21-.2-.3-.35a.05.05,0,0,0,0,.05c.16-.18.06-.28.09-.43.1.05.13-.11.15-.16a.19.19,0,0,1-.23-.09l.13,0c.1-.07.21-.08.27-.18s-.06,0,0-.07a.07.07,0,0,1,.07,0c.14-.1.16-.18.14-.25a1.38,1.38,0,0,0,.64-.2l0-.08c-.07.08.07.08.08.13.24-.16.2.15.42,0-.12.2,0,.21,0,.35v0c0,.24-.33.54-.4.79-.16,0-.29.21-.47.21l-.12.16C22.75,26.05,22.9,25.92,22.77,26Z" fill="#751b1b"/><path d="M21.94,25.9h0Z" fill="#751b1b"/><path d="M21.77,25.86l-.11,0Z" fill="#751b1b"/><polygon points="28.95 23.31 28.94 23.32 28.98 23.22 28.99 23.22 28.95 23.31" fill="#751b1b"/><path d="M28.06,23.61a.22.22,0,0,1,.11-.05C28.16,23.61,28.08,23.63,28.06,23.61Z" fill="#751b1b"/><path d="M21.39,25.42h0Z" fill="#751b1b"/><path d="M21.82,25c.08,0,0,.1.12.1S21.78,25.09,21.82,25Z" fill="#751b1b"/><polygon points="22.19 24.91 22.21 24.93 22.18 24.94 22.19 24.91" fill="#751b1b"/><path d="M20.93,25.1c.05-.1.09-.06.1,0S20.92,25.15,20.93,25.1Z" fill="#751b1b"/><polygon points="21.61 24.88 21.68 24.92 21.64 24.92 21.61 24.88" fill="#751b1b"/><path d="M23.14,23.23c-.06-.05,0-.14.11-.23s.19,0,.22-.13.18.1,0,.27S23.18,23.32,23.14,23.23Z" fill="#751b1b"/><path d="M22.43,23.19c-.1.12-.11,0-.19.1s-.12-.14-.36-.11c.13-.06.07-.19,0-.12a4.28,4.28,0,0,1,.4-.44c.12,0,.26,0,.37-.13a.14.14,0,0,0,.23,0,1.34,1.34,0,0,1-.11.45c-.06.07-.33.16-.29.26S22.46,23.19,22.43,23.19Z" fill="#751b1b"/><path d="M29.14,20.86c.05-.09.09-.13.15-.23s.14,0,.27-.13c.07.06.11.09,0,.25a1.15,1.15,0,0,1-.19.14C29.18,21,29.22,20.85,29.14,20.86Z" fill="#751b1b"/><polygon points="21.75 22.92 21.81 22.93 21.74 22.95 21.75 22.92" fill="#751b1b"/><path d="M26.58,21.28c0-.05.07-.09.09-.13s.27-.17.33-.09.05.08,0,.16a.64.64,0,0,1-.21.14C26.68,21.35,26.56,21.36,26.58,21.28Z" fill="#751b1b"/><path d="M25.29,21.48c-.13.06-.17,0-.27,0,.05-.11,0-.14.14-.26s.24,0,.43-.09a2.76,2.76,0,0,1-.31.37Z" fill="#751b1b"/><path d="M18.64,22.64l.05,0,0,.06S18.63,22.65,18.64,22.64Z" fill="#751b1b"/><path d="M28.66,20.15a.36.36,0,0,1,.23-.22c.11-.05.12,0,.16,0s-.14.18-.24.24S28.64,20.23,28.66,20.15Z" fill="#751b1b"/><path d="M21,21.72l.07-.08Z" fill="#751b1b"/><path d="M22.23,21.32c.07,0,.21-.07.19,0s-.14.12-.2.17S22.11,21.41,22.23,21.32Z" fill="#751b1b"/><path d="M27.33,31a1,1,0,0,0-.29.16c0-.06.1-.14,0-.14s-.28-.13-.54.05c.08-.07.19-.09.27-.21a.19.19,0,0,0-.12-.18c.09,0,.07-.12.1-.16s-.3-.12-.33-.25.2.17.37,0,0-.29.08-.4,0,0,0,0,.33-.27.28-.41a3,3,0,0,1,1-.42c.09.1.14.26.23.37l.09-.09c-.12.25-.12.53,0,.61s-.11,0-.18.16-.08.19-.12.28c-.25.22-.38.35-.61.59C27.71,30.73,27.31,31.09,27.33,31Z" fill="#751b1b"/><path d="M18.44,21.83s0,0,0,0l-.44.06.07-.05a2.56,2.56,0,0,1-.39-.22c-.05-.23.26-.54.26-.76.16-.14.06,0,.18,0s.23-.09.12-.12c.12,0,.23-.06.35-.06l0-.1c.13,0,.16.08.36,0,0-.08-.1-.06,0-.15,0,.18.26.15.26.33l.11-.09c0,.08-.15.22,0,.24l.07-.05c0,.17-.19.35-.25.54S18.71,21.72,18.44,21.83Z" fill="#751b1b"/><path d="M23.32,21a.18.18,0,0,1,.09-.1c.1,0,.12,0,.09.06S23.33,21,23.32,21Z" fill="#751b1b"/><path d="M22.69,21.05s0,0,.07-.05,0,.05,0,.08S22.7,21.07,22.69,21.05Z" fill="#751b1b"/><path d="M20.63,20.94h0Z" fill="#fff"/><path d="M20.34,20.84c.09-.06.12,0,.1,0S20.34,20.88,20.34,20.84Z" fill="#751b1b"/><polygon points="17.99 20.95 17.98 20.95 18.02 20.88 18.04 20.88 17.99 20.95" fill="#fff"/><polygon points="19.59 20.66 19.46 20.82 19.52 20.7 19.59 20.66" fill="#751b1b"/><path d="M17.74,20.81a.1.1,0,0,1,.1,0S17.75,20.83,17.74,20.81Z" fill="#751b1b"/><path d="M18.11,20.61l0-.08Z" fill="#751b1b"/><path d="M18.52,20.41c.1,0,0-.05,0-.07.19,0,0,.12.13.14C18.58,20.48,18.5,20.47,18.52,20.41Z" fill="#751b1b"/><path d="M14.51,18.43c.09-.19-.21-.26-.11-.42,0,0,0,0,.07,0-.14-.15.32-.22.16-.36l.11,0c.1-.05.09-.11.11-.16s0,.06,0,.08a1,1,0,0,1,.42-.13l0,0c.16,0,.24,0,.34.06s.07-.06.06-.08c-.17.19.27.29,0,.55.14.05-.08.16-.12.24s-.14.13-.27.18A1.12,1.12,0,0,1,14.51,18.43Z" fill="#751b1b"/><path d="M23.76,19.69c0-.06.1-.1.16-.13s0,.08,0,.13A.13.13,0,0,1,23.76,19.69Z" fill="#751b1b"/><path d="M17,20.15l-.07,0Z" fill="#751b1b"/><path d="M21.43,19.76l0,0v0S21.44,19.77,21.43,19.76Z" fill="#751b1b"/><path d="M21.48,19.58v0l0,.06S21.47,19.58,21.48,19.58Z" fill="#751b1b"/><path d="M21.93,19.38v-.11c.16,0,.2-.05.38-.07,0,.07.07.09,0,.22a.52.52,0,0,1-.25.11C22,19.49,21.73,19.48,21.93,19.38Z" fill="#751b1b"/><polygon points="14.04 17.94 14.08 17.95 14.05 17.95 14.04 17.94" fill="#751b1b"/><polygon points="21.87 19.41 21.86 19.42 21.82 19.42 21.87 19.41" fill="#751b1b"/><polygon points="6.9 18.85 6.97 18.89 6.91 18.87 6.9 18.85" fill="#751b1b"/><path d="M22.46,19.23v0Z" fill="#751b1b"/><path d="M14.46,17.8l-.05-.08Z" fill="#751b1b"/><polygon points="14.18 17.67 14.21 17.71 14.2 17.7 14.18 17.67" fill="#751b1b"/><path d="M14.06,17.56s0,0,0,0S14.08,17.58,14.06,17.56Z" fill="#751b1b"/><path d="M15.12,17.47c.07,0,0,0,0,0S15.12,17.49,15.12,17.47Z" fill="#751b1b"/><path d="M15.51,17.4c0,.05.08.07,0,.1S15.37,17.46,15.51,17.4Z" fill="#751b1b"/><path d="M14.55,17.42v0Z" fill="#751b1b"/><polygon points="15.07 17.43 15.16 17.42 15.13 17.46 15.05 17.45 15.07 17.43" fill="#751b1b"/><path d="M22.37,18.67c.11-.11.19,0,.09,0S22.36,18.71,22.37,18.67Z" fill="#751b1b"/><path d="M22.14,18.66c.1-.05.1,0,0,.06S22.1,18.7,22.14,18.66Z" fill="#751b1b"/><path d="M22.66,18.46c.09-.05,0,0,0,0S22.61,18.52,22.66,18.46Z" fill="#751b1b"/><path d="M23.73,17.92c.07,0,.27-.07.22,0S23.77,18,23.73,17.92Z" fill="#751b1b"/><path d="M23.93,17.84s.1,0,0,0Z" fill="#751b1b"/><polygon points="23.82 17.84 23.86 17.85 23.83 17.85 23.82 17.84" fill="#751b1b"/><polygon points="23.9 17.77 23.97 17.78 23.9 17.78 23.9 17.77" fill="#751b1b"/><path d="M23.6,17.51c.06-.05.11,0,.06,0S23.62,17.51,23.6,17.51Z" fill="#751b1b"/><path d="M15.13,15.92l.11-.1c.17,0,.16.13.11.19A.14.14,0,0,1,15.13,15.92Z" fill="#751b1b"/><path d="M19,15.82c.05,0,.05,0,.05,0S18.84,15.88,19,15.82Z" fill="#751b1b"/><polygon points="17.57 15.47 17.54 15.54 17.52 15.48 17.57 15.47" fill="#751b1b"/><path d="M20,29a2,2,0,0,0,.18.2c.07.1.14.2.11.18l-.08-.08C20.13,29.23,20,29.05,20,29Z" fill="#751b1b"/><path d="M23.56,33.76l.12.14-.05,0Z" fill="#751b1b"/><path d="M23.07,32.89c.05.06.06,0,.12.12a4.89,4.89,0,0,1,.39.52s0,0-.06-.06-.29-.34-.41-.5S23.21,33.06,23.07,32.89Z" fill="#751b1b"/><path d="M24.89,35.31l-.07-.08.17.19-.11-.15s.07.08.1.13.1.07.09,0l.12.16.1.09a4.68,4.68,0,0,0,.31.37c0,.07.18.23.22.3a2.39,2.39,0,0,1,.21.22h0a1,1,0,0,0,.13.14s.12.15.14.19-.05-.11.08,0l.28.33a2.1,2.1,0,0,0,.15.22,3.06,3.06,0,0,1-.26-.26l.12.16c.08.1,0,0,.12.12a.45.45,0,0,1,.06.13l.08.09c-.13-.13,0,.11,0,0s-.4-.43-.6-.67-.23-.28-.31-.38.05,0,0-.07,0,.08-.16-.16-.4-.5-.55-.69,0,0-.19-.26l-.1-.13C24.86,35.29,24.87,35.3,24.89,35.31Z" fill="#751b1b"/><path d="M25.06,35.13l.14.16c.12.14.11.15.11.16a1.72,1.72,0,0,1-.2-.23C25,35.08,25,35.12,25.06,35.13Z" fill="#751b1b"/><path d="M26.55,37.09a.59.59,0,0,1,.1.11,2,2,0,0,1,.23.29s.06.1-.05,0A1.83,1.83,0,0,1,26.55,37.09Z" fill="#751b1b"/><path d="M23.73,33.17a3.51,3.51,0,0,1,.28.32c.09.14.22.25.31.39s0,0-.05,0c-.19-.24-.2-.2-.38-.44A1.07,1.07,0,0,1,23.73,33.17Z" fill="#751b1b"/><path d="M25,34.83a2.33,2.33,0,0,1,.19.22c.07.09.06.09,0,.08L25,34.91C24.93,34.83,25,34.85,25,34.83Z" fill="#751b1b"/><path d="M25.7,35.82a1.43,1.43,0,0,1,.11.12c.06.09,0,.05,0,.05l-.11-.13C25.67,35.8,25.69,35.81,25.7,35.82Z" fill="#751b1b"/><path d="M25.24,35.15l.18.22s.08.12,0,0l-.16-.2S25.21,35.12,25.24,35.15Z" fill="#751b1b"/><path d="M26,36.13c.05,0,0,0,0,0s.16.17.22.24.16.2.25.31.06.13-.12-.07A3.19,3.19,0,0,1,26,36.2Z" fill="#751b1b"/><path d="M27.37,38l.08.05.42.52c0,.05-.08,0,.09.16s0,0-.08-.05c-.25-.29-.28-.39-.51-.65Q27.48,38.11,27.37,38Z" fill="#751b1b"/><path d="M25.44,35.37l.17.17.13.19-.19-.21C25.47,35.42,25.41,35.34,25.44,35.37Z" fill="#751b1b"/><path d="M25.58,35.45c.14.17.1.14.17.23s0,0-.09-.08l-.18-.22C25.45,35.32,25.57,35.46,25.58,35.45Z" fill="#751b1b"/><path d="M24.69,34.19s.11.13.17.19,0,.07,0,0S24.64,34.14,24.69,34.19Z" fill="#751b1b"/><path d="M26.63,36.63a1.54,1.54,0,0,1,.13.17l-.12-.14S26.59,36.6,26.63,36.63Z" fill="#751b1b"/><path d="M19.94,27.29a.07.07,0,0,0,0,0l0,0S20,27.3,19.94,27.29Z" fill="#751b1b"/><path d="M24.92,34c.12.14.39.48.33.38s.07,0,0,0c.07.09.16.19.16.17l-.05-.07c.07.08.28.35.39.47l.47.59c0,.06,0,0,0,0s.06.12.09.18l.05.06c.1.13,0,.06,0,0l.1.14s-.22-.27-.21-.23l.11.15a2.65,2.65,0,0,0-.21-.26l-.06-.06c-.14-.17-.27-.31-.42-.5a2.21,2.21,0,0,0-.24-.3l.08.09c-.14-.17-.21-.27-.31-.4l.05.06C25.2,34.28,25,34.09,24.92,34Z" fill="#751b1b"/><path d="M25.15,34.25h0l-.1-.12Z" fill="#751b1b"/><path d="M25.76,35l.06.07A.19.19,0,0,1,25.76,35Z" fill="#751b1b"/><path d="M29.42,40.29c.1.13,0,0,0,0S29.35,40.21,29.42,40.29Z" fill="#751b1b"/><path d="M26,35.35v0h0Z" fill="#751b1b"/><path d="M25.2,34.16s.06.08,0,0S25.2,34.16,25.2,34.16Z" fill="#751b1b"/><path d="M25.14,34l0,0,0,0Z" fill="#751b1b"/><path d="M25.78,34.81v0h0S25.77,34.81,25.78,34.81Z" fill="#751b1b"/><path d="M26.13,35.13c-.13-.16,0,0,0-.08a1.09,1.09,0,0,0,.15.18s-.09-.12,0,0a1.42,1.42,0,0,0,.17.23h0c0,.1.15.24,0,.12s-.16-.2-.27-.32C26.26,35.3,26.09,35.09,26.13,35.13Z" fill="#751b1b"/><path d="M27.69,37.24l.1.13S27.71,37.29,27.69,37.24Z" fill="#751b1b"/><path d="M25.61,34.4l.08.09c0,.06,0,0-.05,0A.09.09,0,0,0,25.61,34.4Z" fill="#751b1b"/><path d="M27.21,36.07c-.14-.17-.11-.17-.31-.42l.15.19c-.07-.09.18.2.14.12l.41.49a1.2,1.2,0,0,0,.16.23l0,0s0,0,.11.18l0,0a1.41,1.41,0,0,1-.14-.17s-.05,0,0,0c-.09-.1-.22-.25-.26-.28S27.15,36,27.21,36.07Z" fill="#751b1b"/><path d="M27.79,36.84s.08.1.05.07l-.1-.12S27.76,36.8,27.79,36.84Z" fill="#751b1b"/><polygon points="27.16 35.91 27.14 35.9 27.11 35.86 27.16 35.91" fill="#751b1b"/><polygon points="27.8 36.7 27.8 36.7 27.79 36.69 27.8 36.7" fill="#751b1b"/><path d="M27.61,36.38s.09.12.12.15Z" fill="#751b1b"/><path d="M28,36.93l-.11-.14c.09.09-.1-.14-.16-.22.09.08,0-.06,0-.06l0,0c.16.18.16.15.24.24a.73.73,0,0,0,.14.16c-.08-.1-.07-.11-.06-.11l0,.08c.08.08.13.16.2.24s0,0,0,0,0,0,0,0a1.9,1.9,0,0,0,.17.2l.38.5.05.06c-.07-.09,0,0,0,0,.18.23,0,.07.17.27C29,38,29,38.07,29,38h0c-.1-.07-.4-.44-.54-.59l-.31-.39L28,36.91S28.11,37,28,36.93Z" fill="#751b1b"/><path d="M27.69,36.4l0,0Z" fill="#751b1b"/><path d="M27.64,36.31l-.07-.09Z" fill="#751b1b"/><polygon points="31.92 42.07 31.91 42.06 31.98 42.12 31.98 42.13 31.92 42.07" fill="#751b1b"/><path d="M31.41,41.37l.07.09Z" fill="#751b1b"/><path d="M27.66,36.24l0,0Z" fill="#751b1b"/><path d="M28.05,36.69c0,.06,0,0,0,0S28,36.63,28.05,36.69Z" fill="#751b1b"/><polygon points="28.25 36.97 28.25 36.98 28.23 36.95 28.25 36.97" fill="#751b1b"/><path d="M27.59,36.05c.06.07.07.09.06.08S27.56,36,27.59,36.05Z" fill="#751b1b"/><polygon points="28 36.59 28.01 36.62 28 36.6 28 36.59" fill="#751b1b"/><path d="M29.44,38.27s.07.07.14.15.11.15.17.21,0,.08-.11-.08A1.49,1.49,0,0,1,29.44,38.27Z" fill="#751b1b"/><path d="M29.12,37.8c-.1-.12,0-.07-.13-.17s0,0-.12-.2c.09.11.11.12,0,0l.38.44a2,2,0,0,0,.23.3s0,0,.09.14a2.58,2.58,0,0,1-.25-.24c-.06-.07-.23-.29-.25-.3Z" fill="#751b1b"/><path d="M33.2,43.23l.18.2c.11.13.07.1.18.24s0,0-.13-.12l-.15-.19C33.16,43.22,33.24,43.29,33.2,43.23Z" fill="#751b1b"/><polygon points="28.92 37.43 28.94 37.47 28.9 37.42 28.92 37.43" fill="#751b1b"/><path d="M31.89,41.35l.1.11c.1.13.19.24.18.26s0,0-.09-.09l-.15-.19S31.84,41.3,31.89,41.35Z" fill="#751b1b"/><path d="M31.21,40.39a1.38,1.38,0,0,1-.13-.18l.18.18c.18.22.11.17.24.33l-.31-.34Z" fill="#751b1b"/><path d="M27.51,35.36l0,0,0,0Z" fill="#751b1b"/><path d="M33.33,43.19a2,2,0,0,1,.21.24c.07.1.05.08.06.1a2.12,2.12,0,0,1-.22-.25C33.35,43.23,33.28,43.15,33.33,43.19Z" fill="#751b1b"/><path d="M29.05,37.34l.07.07Z" fill="#751b1b"/><path d="M29.82,38.33c0,.05.13.17.08.12l-.17-.2S29.72,38.21,29.82,38.33Z" fill="#751b1b"/><path d="M27.35,37.32l-.19-.25s.11.14.09.1a1.31,1.31,0,0,0-.22-.34,2.93,2.93,0,0,0,.21.27s.06,0,0,0l.12.14c.1.09,0-.12,0-.06s0,0,.12.2.16.17.23.25,0,0,0,0,.27.33.32.37c.21.26.41.56.58.8,0,0-.08,0-.11-.06a.86.86,0,0,1,.07.1,2.11,2.11,0,0,0-.34-.35c-.09-.1,0-.07-.15-.19a2.09,2.09,0,0,0-.19-.21l-.53-.67C27.6,37.66,27.26,37.23,27.35,37.32Z" fill="#751b1b"/><path d="M27.72,35.48l0,0-.24-.33,0,.07L27.44,35c.06,0,.34.35.42.42s0,0,.08.11.15.19.11.13l.2.27.06.06a2.94,2.94,0,0,0,.18.25c.05,0,0-.05,0,0-.08-.07.08.15,0,.1l.09.1s-.16-.17-.09-.07l.05.06c-.08-.07-.23-.24-.34-.34S27.91,35.72,27.72,35.48Z" fill="#751b1b"/><path d="M30.5,39.21l.08.1c.07.08.06.08,0,0S30.49,39.21,30.5,39.21Z" fill="#751b1b"/><path d="M30.16,38.75l.05,0s0,0-.05,0S30.15,38.74,30.16,38.75Z" fill="#751b1b"/><path d="M29.18,37.33l0,0Z" fill="#fff"/><path d="M29.07,37.15c.07.08.06.09,0,.06Z" fill="#751b1b"/><polygon points="27.83 35.44 27.82 35.43 27.87 35.48 27.88 35.49 27.83 35.44" fill="#fff"/><polygon points="28.76 36.67 28.63 36.53 28.71 36.61 28.76 36.67" fill="#751b1b"/><path d="M27.74,35.29l.07.08Z" fill="#751b1b"/><path d="M28,35.62h0Z" fill="#751b1b"/><path d="M28.3,36c.06.09,0,0,0,0s-.05,0,0,0S28.26,35.94,28.3,36Z" fill="#751b1b"/><path d="M26.82,33.55c.11.12,0-.09.07,0l0,0c0-.07.24.29.2.2l.05.07c.07.09.08.1.11.12s0,0,0,0,.19.25.27.34l0,0,.17.24.06.06c-.16-.17,0,.13-.18-.13.05.08-.1-.1-.15-.15s-.12-.13-.2-.24A6,6,0,0,1,26.82,33.55Z" fill="#751b1b"/><path d="M31.24,40a.69.69,0,0,1,.13.15L31.31,40Z" fill="#751b1b"/><path d="M27.6,35l0,0Z" fill="#751b1b"/><path d="M30.05,38.27h0Z" fill="#751b1b"/><path d="M30.14,38.35l0,0-.05,0Z" fill="#751b1b"/><path d="M30.45,38.74l0,0,.22.3c-.05-.06,0,0-.11-.11l-.17-.21S30.31,38.56,30.45,38.74Z" fill="#751b1b"/><polygon points="26.71 33.32 26.73 33.35 26.71 33.32 26.71 33.32" fill="#751b1b"/><polygon points="30.41 38.68 30.4 38.68 30.38 38.65 30.41 38.68" fill="#751b1b"/><polygon points="22.39 27.78 22.42 27.83 22.39 27.79 22.39 27.78" fill="#751b1b"/><path d="M30.78,39.17h0Z" fill="#751b1b"/><path d="M27,33.66v0Z" fill="#751b1b"/><polygon points="26.87 33.48 26.88 33.5 26.87 33.49 26.87 33.48" fill="#751b1b"/><path d="M26.83,33.41l0,0Z" fill="#751b1b"/><path d="M27.46,34.23c0,.05,0,0,0,0Z" fill="#751b1b"/><path d="M27.7,34.53s0,0,0,0S27.6,34.42,27.7,34.53Z" fill="#751b1b"/><path d="M27.15,33.81h0Z" fill="#751b1b"/><polygon points="27.44 34.2 27.49 34.26 27.47 34.24 27.43 34.18 27.44 34.2" fill="#751b1b"/><path d="M31,39.26c.1.11.1.14,0,.05S30.93,39.24,31,39.26Z" fill="#751b1b"/><path d="M30.83,39.1c.07.08,0,.06,0,0Z" fill="#751b1b"/><path d="M31.17,39.53c.07.08,0,0,0,0S31.12,39.47,31.17,39.53Z" fill="#751b1b"/><path d="M31.93,40.46s.16.21.09.15A.57.57,0,0,1,31.93,40.46Z" fill="#751b1b"/><path d="M32.06,40.63s.07.08,0,0Z" fill="#751b1b"/><polygon points="32.01 40.55 32.02 40.57 32.01 40.55 32.01 40.55" fill="#751b1b"/><polygon points="32.08 40.63 32.11 40.67 32.07 40.62 32.08 40.63" fill="#751b1b"/><path d="M32,40.49s.06.08,0,0Z" fill="#751b1b"/><path d="M27.92,34.54l.1.1c.1.13.05.1,0,0S27.92,34.55,27.92,34.54Z" fill="#751b1b"/><path d="M30.13,37.46s0,0,0,0S30,37.34,30.13,37.46Z" fill="#751b1b"/><polygon points="29.44 36.47 29.4 36.43 29.41 36.42 29.44 36.47" fill="#751b1b"/><path d="M60.06,30.12c-.31-.07-.53-.37-.75-.32-.29-.22-.53-.55-.38-.62l.37.07C59.54,29.54,60.1,30,60.06,30.12Z" fill="#751b1b"/><path d="M46.42,18.28a1.64,1.64,0,0,1-.48-.24c0-.06.08-.06.24,0S46.4,18.22,46.42,18.28Z" fill="#751b1b"/><path d="M47.78,21.8c-.25-.05-.3,0-.59,0a3.82,3.82,0,0,1-1.48-1.29c-.07-.11.12-.09.3,0a6,6,0,0,1,1.65,1C48.23,21.88,47.2,21.47,47.78,21.8Z" fill="#751b1b"/><path d="M40.82,15.72l.26.18c-.1,0-.56-.3-.69-.29l.41.38c-.14,0-.3-.14-.45-.23,0,.34-.49.15-.53.47l-.47-.38c-.25-.06-.23.11-.47,0-.33-.42-.81-.37-1.3-.66a5.08,5.08,0,0,1-.85-.76,3.92,3.92,0,0,1-.9-.25l.08-.08c-.28-.2-.5-.26-.54-.2s-.46-.32-.57-.42c-.24.06.13.48-.44.37a9,9,0,0,1-1.19-.55c0-.17-.55-.63-.5-.72.46.17.45-.13,1.12.26a1.39,1.39,0,0,0-.42-.46c-.36-.16-.19.11-.55-.05-.16-.33-.08-.39-.12-.65l-.33-.15c.57.09,0-.66.36-.6a11.81,11.81,0,0,1,2.59.95c.19.34.93.54,1.24.75.08.11-.23,0,.15.25.55.2-.13-.31.69.13a17.67,17.67,0,0,0,2.21,1.47c.69.46-.16.28.69.74,0-.15.24.13.45.22S40.93,15.69,40.82,15.72Z" fill="#751b1b"/><path d="M39.16,18.68c-.11,0-.39-.17-.57-.25-.5-.26-.4-.43-.37-.52a2.15,2.15,0,0,1,.83.39C39.51,18.6,39.27,18.64,39.16,18.68Z" fill="#751b1b"/><path d="M33.44,13.86a.66.66,0,0,1-.48,0,4.33,4.33,0,0,1-.91-.64c0-.16-.18-.37.31-.2S33.63,13.75,33.44,13.86Z" fill="#751b1b"/><path d="M43.74,24.8c-.09.24-.7-.22-1.21-.46-.27-.51-.93-.4-1.21-.87,0-.08,0-.18.25-.08.72.59.94.1,1.62.7A1.39,1.39,0,0,1,43.74,24.8Z" fill="#751b1b"/><path d="M39.19,20.37a1.58,1.58,0,0,1-.77-.36c-.29-.2-.2-.3-.12-.34a1.63,1.63,0,0,1,.77.38C39.31,20.26,39.18,20.27,39.19,20.37Z" fill="#751b1b"/><path d="M36.33,17.94a2.25,2.25,0,0,1-.44-.22c-.25-.2-.06-.19,0-.24l.47.21C36.48,17.86,36.41,17.88,36.33,17.94Z" fill="#751b1b"/><path d="M37.94,19.94a3.32,3.32,0,0,1-.74-.39c-.06-.15-.26-.4.16-.24a2.81,2.81,0,0,1,.67.38C38.16,19.85,38.1,19.94,37.94,19.94Z" fill="#751b1b"/><path d="M35.11,17.52c-.22,0-.21.07-.2.17a4,4,0,0,0-1-.31c0-.17-.62-.44-1-.7s-.12-.63.67-.33c.48.33,1.37.64,1.3.9C35,17.33,34.91,17.37,35.11,17.52Z" fill="#751b1b"/><path d="M29.82,12.86l-.39.13c-.63-.26-1.38-.87-1.71-1-.09-.19.41-.21-.29-.62-.14-.25,0-.34.48-.21,1,.47,1,1.1,2,1.45C29.61,12.51,29.58,12.6,29.82,12.86Z" fill="#751b1b"/><path d="M37,19.73a3.45,3.45,0,0,1-.71-.21c-.1-.14-.35-.34-.51-.51a1.84,1.84,0,0,1,.87.24C37,19.44,37.2,19.71,37,19.73Z" fill="#751b1b"/><path d="M36.28,20.11c-.58-.32-.37-.41-.6-.66,0-.05.17,0,.38,0a2.3,2.3,0,0,1,.71.5C36.85,20.2,36.34,20,36.28,20.11Z" fill="#751b1b"/><path d="M39.41,23.8c-.17,0-.44-.21-.68-.34s-.13-.25.06-.23C39.2,23.33,39.69,23.77,39.41,23.8Z" fill="#751b1b"/><path d="M31.77,18.38c-.16,0-.61-.34-.5-.39l.52.2C31.8,18.27,31.93,18.4,31.77,18.38Z" fill="#751b1b"/><path d="M55.28,45.5s-.06,0-.12,0h.1C55.32,45.49,55.26,45.47,55.28,45.5Z" fill="#751b1b"/><path d="M37.13,27.67c-.51-.22-1.58-1-1.41-.57.53.63-.44.26-.37.62-.27-.21-.66-.37-.7-.22s.05.16.16.24a11.75,11.75,0,0,0-1.62-.9c-.6-.47-1.4-1.14-1.79-1.4-.21-.09.09.14-.17,0,.18-.08-.13-.52-.2-.77l-.21-.09c-.33-.39,0-.39.24-.42s-.32-.28-.37-.35.93.52.92.3l-.4-.4c.32.2.45.45.82.57.13,0,.21-.05.3,0,.52.43,1.17.47,1.71.95,0,.25.64.5,1,.66l-.37-.09a5.06,5.06,0,0,1,1.18.94l-.22-.06A10.89,10.89,0,0,0,37.13,27.67Z" fill="#751b1b"/><path d="M36.24,27l0,0,.41.21S36.36,27,36.24,27Z" fill="#751b1b"/><path d="M33.93,25a.74.74,0,0,1-.23-.14C33.79,24.93,33.88,25,33.93,25Z" fill="#751b1b"/><path d="M21,9.49c-.39-.28,0-.1.12-.12C21.32,9.53,21.32,9.64,21,9.49Z" fill="#751b1b"/><path d="M32.81,24.5l-.07,0,0-.06C32.82,24.46,32.81,24.48,32.81,24.5Z" fill="#751b1b"/><path d="M35.65,28.12c0-.05-.25-.2-.07-.12S35.65,28.1,35.65,28.12Z" fill="#751b1b"/><path d="M35.69,28.85s-.1,0-.12-.05h.09C35.72,28.84,35.69,28.83,35.69,28.85Z" fill="#751b1b"/><path d="M33.18,27.12l-.06,0,0-.07S33.22,27.11,33.18,27.12Z" fill="#751b1b"/><path d="M31.49,27.13c.49.39-.25.16,0,.48,0,0-.51-.45-.6-.36s.32.29,0,.19c.06-.11-.44-.5-.64-.61l-.09.07c-.17-.34-.48-.8.05-.68s.62.43,1.1.61C31,26.74,31.68,27.16,31.49,27.13Z" fill="#751b1b"/><path d="M25.8,21.46c-.05.05-.34-.11-.44-.23S25.75,21.27,25.8,21.46Z" fill="#751b1b"/><path d="M33.3,29.31c-.07,0-.15,0-.37-.14s0-.13.24,0A.32.32,0,0,0,33.3,29.31Z" fill="#751b1b"/><path d="M26.15,27.56c.53.39.32.65,1.1,1.2-.18-.19-.67-.45-.56-.49.22.3-.8-.23-.69.1-.6-.39-.93-.62-1.65-1a1.52,1.52,0,0,0-.56-.65h-.1c0-.2.22-.19-.32-.66L23.26,26c.24.07.25.17.57.34-.1-.13.23,0,0-.2.39.13.92.4,1.13.34C24.9,26.76,26.47,27.47,26.15,27.56Z" fill="#751b1b"/><path d="M24,25.62c-.14-.1-.3-.24-.17-.23a1,1,0,0,1,.4.25S24.1,25.67,24,25.62Z" fill="#751b1b"/><polygon points="26.09 28.51 26.16 28.52 26.26 28.62 26.09 28.51" fill="#751b1b"/><polygon points="23.53 26.82 23.57 26.8 23.59 26.84 23.53 26.82" fill="#751b1b"/><path d="M24.05,28.07c-.14,0-.36-.27-.48-.33C23.72,27.82,23.88,28,24.05,28.07Z" fill="#751b1b"/><path d="M22.42,26.74a1.4,1.4,0,0,0,.46.27c-.41-.08.34.43.55.65-.43,0-.13.46-.31.64a.29.29,0,0,0,.15.06c-.64-.34-.7-.12-1.08-.19,0-.21-.43-.26-.58-.31.29.28.19.41.14.47l-.13-.27a4.84,4.84,0,0,0-.77-.56c0,.07,0,.13-.12.06s-.07-.11-.06-.15c-.42-.28-.64-.32-.75-.28a7.18,7.18,0,0,0-1.36-1.33l-.25-.08c.29.15.08-.15.18-.16-.69-.51.05-.43-.52-.91.63.26.45,0,.72-.08l-.05,0c.48-.08,1.67.7,2.32.85.24.34.87.6,1.13,1l.52.27C22.68,26.78,22.17,26.45,22.42,26.74Z" fill="#751b1b"/><path d="M23.53,28.5l.1.12Z" fill="#751b1b"/><path d="M23.67,28.83l.23.25Z" fill="#751b1b"/><polygon points="8.06 13.45 8.09 13.48 7.81 13.4 7.79 13.37 8.06 13.45" fill="#751b1b"/><path d="M9.89,15.39a.91.91,0,0,1-.28-.23A.45.45,0,0,1,9.89,15.39Z" fill="#751b1b"/><path d="M23.28,29.63l.07.12Z" fill="#751b1b"/><path d="M21.73,28.74c-.15-.16.16-.09,0-.24C21.72,28.56,22,28.81,21.73,28.74Z" fill="#751b1b"/><polygon points="20.98 27.97 21 27.92 21.07 28 20.98 27.97" fill="#751b1b"/><path d="M23.3,30.62c-.27-.1-.28-.2-.21-.22S23.43,30.64,23.3,30.62Z" fill="#751b1b"/><polygon points="21.8 29.2 21.78 29.05 21.82 29.12 21.8 29.2" fill="#751b1b"/><path d="M15.92,26.08c0,.13-.35,0-.64-.2s-.38-.41-.63-.46c0-.07-.06-.41.52-.11S16.05,26,15.92,26.08Z" fill="#751b1b"/><path d="M16.93,27.6c.41.21.09.25.49.39.32.37-.11.27.34.78-.35-.28-.52-.14-.22.07-.66-.35-.95-.4-1.57-.79-.23-.24-.34-.55-.85-.76.09-.07.11-.28-.25-.51A5.26,5.26,0,0,1,16,27c.23.11.83.69,1,.58C17,27.59,16.88,27.53,16.93,27.6Z" fill="#751b1b"/><path d="M2,13.27c-.27-.1-.41-.18-.74-.31S1,12.65.6,12.37c.07-.16.06-.27.62,0,.23.13.39.29.58.42C2.24,13.14,1.89,13.09,2,13.27Z" fill="#751b1b"/><polygon points="17.41 29.08 17.34 28.96 17.47 29.1 17.41 29.08" fill="#751b1b"/><path d="M6.52,18.88c-.15-.05-.29-.13-.41-.17-.39-.29-.75-.55-.67-.71.12,0,.09-.12.41.05a4.47,4.47,0,0,1,.61.43C6.55,18.66,6.75,18.91,6.52,18.88Z" fill="#751b1b"/><path d="M8.88,21.69c.32.27.26.38.4.58A2,2,0,0,1,8.52,22c-.76-.39-.35-.53-.84-.92a11.11,11.11,0,0,1,1.26.6Z" fill="#751b1b"/><path d="M21.9,35.73l-.14-.11.18.08S21.93,35.74,21.9,35.73Z" fill="#751b1b"/><path d="M1,14.47A1.48,1.48,0,0,1,.18,14c-.27-.23-.16-.27-.17-.36a2.21,2.21,0,0,1,.9.48C1,14.28,1.24,14.52,1,14.47Z" fill="#751b1b"/><path d="M16.12,30.89l-.27-.12Z" fill="#751b1b"/><path d="M13.29,28.35c-.13-.14-.47-.44-.25-.41s.48.29.68.41C13.56,28.33,13.68,28.59,13.29,28.35Z" fill="#751b1b"/><path d="M28.43,18.17a3.83,3.83,0,0,0,.7.65c-.16,0-.47-.26-.4-.12a1.65,1.65,0,0,0,.72,1.12,5.32,5.32,0,0,0-.81-.62c-.2,0-.31,0-.28.2-.09-.18-.39-.18-.5-.24-.46,0,.05.57-.25.59-.11-.22.19-.36-.34-.75s-.75-.17-1.06-.27c-.05,0,.08,0,.09-.08-.47-.25-1-.75-1.32-.69a13.78,13.78,0,0,1-2.11-2.15c.14-.17.45-.24.65-.39l-.31-.21c.74.33,1.45.41,1.54.26.4.14.15.23.6.43a3.29,3.29,0,0,0,.81.32c.81.59,1.26.9,2.09,1.44C27.47,17.33,28.8,18.27,28.43,18.17Z" fill="#751b1b"/><path d="M20.65,36.32c-.08-.07-.09,0-.12-.06l.87.91L21.17,37a5.58,5.58,0,0,1,.27.88c-.36.17-1.49-.4-1.91-.34-.55-.29,0-.13-.25-.38-.18-.09-.57-.46-.44-.22-.22-.27-.52-.48-.75-.73l-.25-.06a1.81,1.81,0,0,0-.6-.75c-.23-.05.06.22-.24.1.4,0-.18-.61.17-.66l-.37-.21c.12-.06.69.26.46-.07l-.2-.13c.39,0,1,.3,1.49.39A8,8,0,0,1,20.65,36.32Z" fill="#751b1b"/><path d="M10.8,26.1a1.12,1.12,0,0,1-.35-.17c-.24-.21-.18-.27,0-.22S10.85,26.05,10.8,26.1Z" fill="#751b1b"/><path d="M12,27.42s-.14-.09-.2-.13,0-.1.22.05S12,27.41,12,27.42Z" fill="#751b1b"/><path d="M15.16,31.88l.1.11Z" fill="#fff"/><path d="M15.46,32.53c-.28-.17-.22-.25-.09-.23S15.54,32.51,15.46,32.53Z" fill="#751b1b"/><polygon points="19.72 37.48 19.75 37.51 19.53 37.44 19.5 37.41 19.72 37.48" fill="#fff"/><polygon points="16.37 34.18 16.91 34.41 16.57 34.3 16.37 34.18" fill="#751b1b"/><path d="M19.91,38.06a.56.56,0,0,1-.24-.2C19.76,37.89,19.92,38,19.91,38.06Z" fill="#751b1b"/><path d="M18.86,37.33l-.12.06Z" fill="#751b1b"/><path d="M17.77,36.52c-.24-.2-.08,0-.12,0-.38-.38.24,0,0-.32C17.78,36.37,17.93,36.55,17.77,36.52Z" fill="#751b1b"/><path d="M21.56,45.68c-.51-.12-.07.53-.52.4,0,0,0-.08-.13-.16,0,.36-1-.57-.92-.18l-.14-.24a.66.66,0,0,0-.48-.16c0-.05.13,0,.06-.11a6,6,0,0,1-1-.83.24.24,0,0,0,.11.06,1.86,1.86,0,0,1-.54-.73c-.15-.12-.23-.11-.27-.09.67.27,0-.69,1-.22-.17-.3.43.11.65.16a2.25,2.25,0,0,1,.82.48A5.41,5.41,0,0,1,21.56,45.68Z" fill="#751b1b"/><path d="M7.43,25.48a1.32,1.32,0,0,1-.51-.3c-.12-.18.09-.11.29,0A.42.42,0,0,1,7.43,25.48Z" fill="#751b1b"/><path d="M20,39.8l.08.17Z" fill="#751b1b"/><path d="M11.43,30.49l-.06,0,0,0C11.5,30.49,11.43,30.47,11.43,30.49Z" fill="#751b1b"/><path d="M11,30.47l-.05,0,.18.06C11.15,30.54,11,30.48,11,30.47Z" fill="#751b1b"/><path d="M9.84,29.55l-.21,0c-.26-.35-.45-.41-.8-.8.21.07.06-.19.52,0a3,3,0,0,1,.66.5C10,29.45,10.39,30,9.84,29.55Z" fill="#751b1b"/><polygon points="21.6 46.85 21.55 46.77 21.6 46.83 21.6 46.85" fill="#751b1b"/><polygon points="10 29.68 10.03 29.69 10.11 29.77 10 29.68" fill="#751b1b"/><polygon points="37.2 61.19 37.11 61.03 37.2 61.17 37.2 61.19" fill="#751b1b"/><path d="M8.63,28.46h0Z" fill="#751b1b"/><path d="M20.57,46.05l-.05.13Z" fill="#751b1b"/><polygon points="20.89 46.68 20.89 46.6 20.91 46.63 20.89 46.68" fill="#751b1b"/><path d="M21,47c-.05,0-.09-.06-.13-.1S20.94,46.94,21,47Z" fill="#751b1b"/><path d="M18.73,44.8c-.14-.13.06,0,.1,0S18.76,44.8,18.73,44.8Z" fill="#751b1b"/><path d="M17.86,44c.14,0-.05-.21.09-.13S18.23,44.28,17.86,44Z" fill="#751b1b"/><path d="M19.76,46l-.12,0Z" fill="#751b1b"/><polygon points="18.77 44.95 18.59 44.76 18.68 44.79 18.84 44.97 18.77 44.95" fill="#751b1b"/><path d="M7.68,28.86c-.41-.2-.35-.41-.08-.2S7.77,28.87,7.68,28.86Z" fill="#751b1b"/><path d="M8.06,29.37c-.28-.19-.13-.24.09-.07C8.16,29.36,8.21,29.44,8.06,29.37Z" fill="#751b1b"/><path d="M6.77,28.33c-.25-.18,0-.09,0-.09S7,28.41,6.77,28.33Z" fill="#751b1b"/><path d="M3.86,26.21c0-.17-.6-.56-.28-.5C3.83,26,3.89,26.1,3.86,26.21Z" fill="#751b1b"/><path d="M3.35,25.79c.09.05-.24-.2,0-.09Z" fill="#751b1b"/><polygon points="3.54 26.05 3.5 25.95 3.55 26.03 3.54 26.05" fill="#751b1b"/><polygon points="3.26 25.89 3.17 25.75 3.29 25.9 3.26 25.89" fill="#751b1b"/><path d="M3.23,26.66c-.17-.09-.23-.21-.06-.11S3.21,26.62,3.23,26.66Z" fill="#751b1b"/><path d="M16.15,45.57l-.38-.17c-.36-.35-.11-.4.08-.34C16.27,45.33,16.2,45.51,16.15,45.57Z" fill="#751b1b"/><path d="M8.48,37.52c-.13-.11-.06-.12,0-.15C8.67,37.45,8.87,37.79,8.48,37.52Z" fill="#751b1b"/><polygon points="10.61 40.71 10.8 40.73 10.74 40.81 10.61 40.71" fill="#751b1b"/></g><g opacity="0.78" style="mix-blend-mode:color-burn"><path d="M201.68,45.19l-1.68,0a4.4,4.4,0,0,1,.85.21A1.28,1.28,0,0,0,201.68,45.19Z" fill="#751b1b"/><path d="M198.46,45.13h-.3l-.25,0Z" fill="#751b1b"/><path d="M195.54,45.28a12.23,12.23,0,0,0,1.49,0A6.26,6.26,0,0,0,195.54,45.28Z" fill="#751b1b"/><path d="M197.87,45.42c-.18-.09-.27-.18,0-.24h0l-.88.08A4.82,4.82,0,0,1,197.87,45.42Z" fill="#751b1b"/><path d="M197.87,45.42c.17.08.44.16.54.21A3.38,3.38,0,0,0,197.87,45.42Z" fill="#751b1b"/><path d="M197.13,47.45c-.29.07-.22-.51-.81-.38a32.44,32.44,0,0,1-3.8.42c-.58.13-1.5-.51-2.08-.38-1.37.16-4.86.94-2.8.9,3.09-.08,5.11-.24,7.88-.34,2.26-.24,4.43-.51,6.74-.72a16,16,0,0,1,1.85.06l-2.5-.27C200.42,46.59,199,47.32,197.13,47.45Z" fill="#751b1b"/><path d="M214,45.54l-.87.19a9.58,9.58,0,0,0-4-.09l.61.29c.78,0,.87-.19.18-.32a18.18,18.18,0,0,0,4.62.35C214.42,45.8,214.44,45.62,214,45.54Z" fill="#751b1b"/><path d="M215.41,45.91l-.9.05,0,0,.9-.09Z" fill="#751b1b"/><path d="M189.36,45.81c-3.87,0-7.52,0-11.08-.06a1.26,1.26,0,0,1-.83.17,4.27,4.27,0,0,0-.84-.2l-1.55,0-.55,0h0c-.29.07-.2.16,0,.24a3.38,3.38,0,0,1,.54.21c-.1,0-.37-.12-.54-.21a4.65,4.65,0,0,0-.84-.16,10.36,10.36,0,0,1-1.48,0,6.18,6.18,0,0,1,1.48,0l.88-.08.25,0-3.55-.08-.74,0a4.47,4.47,0,0,1-2.24-.12l-.64,0,.13,0-.24,0-2.69-.08c-.58.11-1.18.25-1.77.33l-.61-.29a2.52,2.52,0,0,1-1,.29c.49.17.93.36,1.34.48.6.29,1.34-.58,2.05,0-.71-.55-1.45.32-2.05,0-.41-.12-.85-.31-1.34-.48a7.29,7.29,0,0,1-2.83-.28,4.92,4.92,0,0,1,2.83.28,2.52,2.52,0,0,0,1-.29l.61.29c.59-.08,1.19-.22,1.77-.33l-5.33-.15c-11.65-.36-22.39-.3-34.47-.57-6.55-.16-12.84-.41-19-.75-12.3-.67-23.52.1-35.95-1.35-4.77-.51-13.62-.24-18.22-.18-6.16,1-3,3.43-2.68,3.57,3.79,2.11,6.75.94,14.47,2.18-5.26-.71,3.88-1.36,8.84.08,7.18,2.2,17.42.44,26.28,1,2.22.14,4.57,0,7.22.08,13.73.75,26.48-.18,40.91,0,3.83,0,7.19-.54,10.41-.83,2.35-.1,4.87.18,6.78.18a80.81,80.81,0,0,0,8.08-.46c-2.78.1-4.8.26-7.89.35-2.06,0,1.43-.74,2.8-.9.58-.13,1.5.51,2.08.38a30.71,30.71,0,0,0,3.8-.43c.59-.12.52.45.81.39,1.86-.13,3.29-.87,4.48-.71.9.08,1.71.17,2.51.26a12.89,12.89,0,0,0,1.53,0l1-.14a1.18,1.18,0,0,1-.46-.61c.49,0,1.18.16,1.67.19-.49,0-1.18-.16-1.67-.19a1.18,1.18,0,0,0,.46.61c2.44-.34,5.26-.64,7.89-.89l0-.05a17.77,17.77,0,0,1-4.62-.35c.69.13.6.29-.18.32l-.6-.28a9.22,9.22,0,0,1,4,.09l.88-.2c.43.08.41.26.5.42l.91,0A20.1,20.1,0,0,0,189.36,45.81Z" fill="#751b1b"/><path d="M173.59,45.79l.74,0-3-.08A4.48,4.48,0,0,0,173.59,45.79Z" fill="#751b1b"/></g></g></g></g></svg>