<svg xmlns="http://www.w3.org/2000/svg" viewBox="0 0 282.58 80.25"><title>inputArea-1950</title><g style="isolation:isolate"><g id="圖層_2" data-name="圖層 2"><g id="_1920x1080" data-name="1920x1080"><g id="wordOnPaper"><g opacity="0.78" style="mix-blend-mode:color-burn"><path d="M57.87,27.75c.16.07.52,0,.44-.16l-.61-.13Z" fill="#792020"/><path d="M58.93,26.42a1.54,1.54,0,0,0-1.38-.24c.59.17.35.24,1.05.44.08.19-.17.35-.4.32.16.07-.12.3.27.4.45-.26.46-.6.05-.91C58.65,26.35,58.81,26.41,58.93,26.42Z" fill="#792020"/><path d="M50.43,9.35l.06.13A.22.22,0,0,0,50.43,9.35Z" fill="#792020"/><path d="M49.08,1c.1,0,.15-.07.15-.12S49.07.9,49.08,1Z" fill="#792020"/><path d="M46.91.25l.13,0C47,.23,46.94.2,46.91.25Z" fill="#792020"/><path d="M50.43,9.35,50.27,9C50.14,9.14,50.32,9.22,50.43,9.35Z" fill="#792020"/><path d="M57.18,24.05a.42.42,0,0,0,.18.13,1,1,0,0,1-.08-.14Z" fill="#792020"/><path d="M54.85,12.73l.07.07.24-.09Z" fill="#792020"/><path d="M57.41,16.19c0-.09-.49.14-.7.22a.5.5,0,0,1,.41,0A1.58,1.58,0,0,0,57.41,16.19Z" fill="#792020"/><path d="M59,22.76l.1.1A.94.94,0,0,0,59,22.76Z" fill="#792020"/><path d="M52.76,10.45a.56.56,0,0,0,.09-.17A.56.56,0,0,0,52.76,10.45Z" fill="#792020"/><path d="M56.22,31.9l.09,0C56.26,31.89,56.23,31.88,56.22,31.9Z" fill="#792020"/><path d="M59.22,27.75l0,.06.28,0Z" fill="#792020"/><path d="M42.74,0h0C42.86,0,42.8,0,42.74,0Z" fill="#792020"/><path d="M14,32.8c.34-.5.74.53,1.08-.19C14.91,32.72,14.17,32.22,14,32.8Z" fill="#792020"/><path d="M57.23,23.94l0-.15A.28.28,0,0,0,57.23,23.94Z" fill="#792020"/><path d="M15.09,32.61h0l0-.07Z" fill="#792020"/><path d="M34.09,4a.49.49,0,0,0,.2.13A.44.44,0,0,0,34.09,4Z" fill="#792020"/><path d="M40.66,1.64h-.18A.29.29,0,0,0,40.66,1.64Z" fill="#792020"/><path d="M21.5,10.8c-.1,0-.17,0-.22.14l.07,0C21.34,10.88,21.36,10.81,21.5,10.8Z" fill="#792020"/><path d="M19,13.54h.12l.05-.11Z" fill="#792020"/><path d="M52.28,40.4a2.16,2.16,0,0,1,.45.19C52.42,40.39,52.63,40,52.28,40.4Z" fill="#792020"/><path d="M57.46,24c-.13,0-.19,0-.23,0a.47.47,0,0,0,.05.1A.32.32,0,0,0,57.46,24Z" fill="#792020"/><path d="M24.17,13.84l-.42.27A1.3,1.3,0,0,0,24.17,13.84Z" fill="#792020"/><path d="M31.9,46.63l.13,0A.1.1,0,0,0,31.9,46.63Z" fill="#792020"/><path d="M22.83,15.24a.83.83,0,0,0-.46,0,.56.56,0,0,0,.07.13Z" fill="#792020"/><path d="M52.73,40.59Z" fill="#792020"/><path d="M49.36,47.65s0,0,0-.07l-.15,0,0,.17Z" fill="#792020"/><path d="M50.5,9.51v0a.27.27,0,0,1,0,.09S50.5,9.53,50.5,9.51Z" fill="#792020"/><polygon points="32.97 46.65 32.94 46.77 33.04 46.68 32.97 46.65" fill="#792020"/><path d="M53.42,14.64a.3.3,0,0,0-.06.14A.23.23,0,0,0,53.42,14.64Z" fill="#792020"/><path d="M54.69,16.61l0,.38A1.36,1.36,0,0,0,54.69,16.61Z" fill="#792020"/><path d="M55.38,18.27a.86.86,0,0,0,.21-.07h0Z" fill="#792020"/><path d="M31.57,8.83l-.06,0C31.39,9,31.48,8.93,31.57,8.83Z" fill="#792020"/><path d="M50,3a1.31,1.31,0,0,1-.3.2C49.84,3.24,50,3.27,50,3Z" fill="#792020"/><path d="M24.21,13.81h0l0,0Z" fill="#792020"/><path d="M49.29,3.15a.33.33,0,0,0,.4,0A.5.5,0,0,0,49.29,3.15Z" fill="#792020"/><path d="M57.37,25.6v.09a.14.14,0,0,1,.09,0Z" fill="#792020"/><path d="M57.45,25.69l.06.09C57.51,25.73,57.5,25.7,57.45,25.69Z" fill="#792020"/><path d="M57.65,26l-.14-.18C57.51,25.85,57.5,25.93,57.65,26Z" fill="#792020"/><path d="M57.21,23.26l-.18,0A.69.69,0,0,0,57.21,23.26Z" fill="#792020"/><path d="M57,22.59c0,.17-.28.5-.1.7H57C56.73,23.24,57.33,22.67,57,22.59Z" fill="#792020"/><path d="M58.16,18.87c.05.22.07.45.1.68.14-.18.34-.43.49-.16C59,18.37,58.4,19.72,58.16,18.87Z" fill="#792020"/><path d="M57.52,16.88c.24.28.25-.14.36-.17C57.61,16.59,57.54,16.56,57.52,16.88Z" fill="#792020"/><path d="M56.91,2.89l.22-.41C56.85,2.42,57.06,2.65,56.91,2.89Z" fill="#792020"/><path d="M53.52,4.19a3.45,3.45,0,0,1,.14.34l.24-.37Z" fill="#792020"/><polygon points="52.77 0.56 52.91 0.53 52.4 0.57 52.77 0.56" fill="#792020"/><path d="M19.05,12.72l.49.3C19.59,12.82,19.12,12.37,19.05,12.72Z" fill="#792020"/><path d="M14.77,22.91c-.32.05-.55.33-.3.57C14.54,23.24,14.8,23,14.77,22.91Z" fill="#792020"/><polygon points="29.03 50.27 28.74 50.37 29.21 50.37 29.03 50.27" fill="#792020"/><path d="M48,46.61l-.38,1c.07-.16.15-.32.23-.48A2,2,0,0,0,48,46.61Z" fill="#751b1b"/><path d="M47.21,48.49l-.08.17-.05.15Z" fill="#751b1b"/><path d="M46.46,50.16a9.23,9.23,0,0,0,.41-.84C46.76,49.56,46.6,49.82,46.46,50.16Z" fill="#751b1b"/><path d="M47.13,48.86c-.07.09-.11.13-.05,0h0l-.21.51C47,49.15,47.05,49,47.13,48.86Z" fill="#751b1b"/><path d="M47.13,48.86l.19-.29C47.26,48.65,47.2,48.75,47.13,48.86Z" fill="#751b1b"/><path d="M47.49,49.53c-.05.18-.19.07-.31.43s-.29.79-.43,1.17a10,10,0,0,1-.5,1.11,1.93,1.93,0,0,1-.37.56,2.05,2.05,0,0,0-.41.53c-.1.2-.22.49-.35.79s-.27.59-.36.84c-.2.49-.24.76.11.17a33.28,33.28,0,0,0,2.27-4.62,41.45,41.45,0,0,0,1.3-4.14c.1-.4.21-.77.32-1.14-.15.48-.28,1-.48,1.53A7.84,7.84,0,0,0,47.94,48C47.82,48.44,47.68,49,47.49,49.53Z" fill="#751b1b"/><path d="M49.43,39v.56c0,.41-.1.83-.14,1.25s-.07.86-.13,1.28l.09-.37c.07-.49,0-.55,0-.12a19.29,19.29,0,0,0,.25-2.92C49.46,38.72,49.44,38.71,49.43,39Z" fill="#751b1b"/><path d="M49.49,38.09v0Z" fill="#751b1b"/><path d="M44.62,53.6a24.21,24.21,0,0,1-4.7,5.13c-.07.17-.11.34-.31.44a1.83,1.83,0,0,0-.45.17,9,9,0,0,1-.73.53l-.25.24h0c-.14.17-.11.23,0,.25a.86.86,0,0,1,.28,0s-.2,0-.28,0a1.28,1.28,0,0,0-.4.14h0A3.79,3.79,0,0,1,37,60a2.62,2.62,0,0,1,.72.5h0l.43-.4L38.3,60l-.54.38-1.08-.88c-.13-.07-.24-.16-.35-.23-.43-.26-.92-.56-1-1L35.08,58l0,.09s-.05-.1-.07-.14c-.39-.4-.78-.79-1.14-1.23a8.42,8.42,0,0,1-1-.6l0-.47a1.16,1.16,0,0,1-.61-.3c.06.34.1.67.18.95,0,.5,1,.26.91,1,.08-.69-.88-.45-.91-1-.08-.28-.12-.61-.18-.95a2.72,2.72,0,0,1-.87-1.57,2.27,2.27,0,0,1,.87,1.57,1.16,1.16,0,0,0,.61.3l0,.47a8.42,8.42,0,0,0,1,.6,16.37,16.37,0,0,1-1-1.27l-.51-.65-.47-.69a29.56,29.56,0,0,1-4.27-9.54A26.23,26.23,0,0,1,27.23,34a25.25,25.25,0,0,1,4.46-10.56,37.08,37.08,0,0,1,3.12-3.78c.57-.56,1.13-1.15,1.74-1.67.3-.26.59-.54.91-.78l.12-.09,0,0,.09-.05a1.92,1.92,0,0,0,.17-.13l.46.34,1.18.84c.4.3.78.63,1.17.95s.74.69,1.12,1A23.89,23.89,0,0,1,45.6,25,26.37,26.37,0,0,1,48,30.17a23.7,23.7,0,0,1,1.1,5.55c.23,3.85.4,1.86.41,1.67a11.62,11.62,0,0,0,0-1.77l-.07-.91c0-.31-.08-.63-.13-1A31.93,31.93,0,0,0,48,28.34c.5,1.6.28,1-.2-.33s-1.46-3.38-2.16-4.82a25.9,25.9,0,0,0-2.78-4.57A29.43,29.43,0,0,0,40.9,16.3l-.55-.56-.27-.29a1.52,1.52,0,0,0-.38-.32l-2.22-1.54c-.36.25-.71.45-1.07.73l-.87.63c-.41.29-.79.62-1.19.92s-.76.63-1.14.94-.75.64-1.11,1a23.51,23.51,0,0,0-3.25,3.68,25.83,25.83,0,0,0-5.46,12.72,32.54,32.54,0,0,0,1.35,14.31,18.94,18.94,0,0,0,3.8,6.18c.45.67.94,1.35,1.35,2a16.85,16.85,0,0,0,1.33,1.8c.36.39.7.76,1.06,1.09s.73.63,1.09.92c.18.15.37.27.55.4l.6.41c.51.38,1.09.72,1.61,1-.57-.41-1.14-.79-1.62-1.18s-.7-.51-1-.78a22.33,22.33,0,0,1-2.07-1.88c-.5-.52-.19-.45.32-.2.26.13.56.31.85.48s.59.34.78.47c.37.17.38,1.08.78,1.24a3.75,3.75,0,0,0,.51.38c.23.16.48.33.73.48l1.56.84c.37.15.33.58.44.8a.11.11,0,0,0,.1,0,9.2,9.2,0,0,0,1.94-1.6,6.29,6.29,0,0,1,1.2-1.57L42,58.64a5.44,5.44,0,0,0,.67-.76L43,57.3a.69.69,0,0,1-.48,0c.22-.22.58-.51.78-.76-.2.25-.56.54-.78.76a.69.69,0,0,0,.48,0c.83-1.42,1.78-3,2.54-4.48h0a14.29,14.29,0,0,1-.79,1.23,9.46,9.46,0,0,1-1,1.11c.31-.31.35-.22.06.2l-.36.2c.25-.36.47-.74.72-1.08a8.57,8.57,0,0,1,.82-1l.23-.51c.18-.22.24-.17.32-.18s.19-.33.28-.51Z" fill="#751b1b"/><path d="M37.73,60.49h0l.35-.32-.34.24-1-.84C36.83,60,37.31,60.28,37.73,60.49Z" fill="#751b1b"/><path d="M49.18,10.17l1-.17-.53,0A1.73,1.73,0,0,0,49.18,10.17Z" fill="#751b1b"/><path d="M51.19,9.88h.19l.15,0Z" fill="#751b1b"/><path d="M53,9.7a7,7,0,0,0-.93.06C52.35,9.74,52.65,9.74,53,9.7Z" fill="#751b1b"/><path d="M51.55,9.77c.12,0,.17,0,0,.06h0l.55-.08Z" fill="#751b1b"/><path d="M51.55,9.77l-.35,0Z" fill="#751b1b"/><path d="M52,9.12c.19,0,.16.12.53.05S53.31,9,53.71,9a11.8,11.8,0,0,1,1.21-.12,1.74,1.74,0,0,1,.67,0,2.43,2.43,0,0,0,.67.09l.85-.09L58,8.77c.53-.08.78-.17.1-.18A33.18,33.18,0,0,0,53,8.93c-1.45.23-2.81.57-4.24.94-.39.12-.77.21-1.15.3.5-.11,1-.25,1.57-.35a9.62,9.62,0,0,0,1.23-.31C50.85,9.37,51.36,9.25,52,9.12Z" fill="#751b1b"/><path d="M41.85,12.72l.48-.28c.37-.18.77-.33,1.15-.51s.78-.37,1.18-.52l-.37.1c-.46.19-.5.24-.09.08a17.85,17.85,0,0,0-2.65,1.24A.83.83,0,0,0,41.85,12.72Z" fill="#751b1b"/><path d="M41.05,13.1l.5-.27h0l-.5.28Z" fill="#751b1b"/><path d="M56.91,9.57a24.6,24.6,0,0,1,6.79,1.5.76.76,0,0,1,.55,0,1.74,1.74,0,0,0,.37.31c.28.1.55.24.82.36l.33.11h0c.22,0,.26,0,.24-.11a.68.68,0,0,1-.12-.26c0,.06.1.17.12.26a1.07,1.07,0,0,0,.31.28h0a3.86,3.86,0,0,1-.08.87,2.39,2.39,0,0,1,.07-.86h0l-.56-.17-.18,0,.59.28L66,13.51c0,.15,0,.3,0,.42,0,.51,0,1.08-.37,1.34l-.11.38.07-.06-.09.13c-.15.54-.3,1.07-.49,1.6a9,9,0,0,1,0,1.16l-.39.26a1.26,1.26,0,0,1,0,.68c.26-.22.53-.42.73-.63.41-.28-.28-1,.37-1.26-.65.27,0,1-.37,1.26-.2.21-.47.41-.73.63A2.75,2.75,0,0,1,63.65,21a2.28,2.28,0,0,1,.93-1.53,1.26,1.26,0,0,0,0-.68l.39-.26a9,9,0,0,0,0-1.16c-.17.51-.36,1-.58,1.54l-.31.76-.37.76a29.4,29.4,0,0,1-6.12,8.46,26.46,26.46,0,0,1-9,5.62,25.32,25.32,0,0,1-11.37,1.41,36.2,36.2,0,0,1-4.84-.81c-.77-.21-1.56-.4-2.31-.67-.38-.13-.76-.24-1.13-.4l-.14-.06-.05,0-.08,0a1.31,1.31,0,0,0-.21-.08l.08-.57.13-1.44c.06-.5.15-1,.24-1.49s.22-1,.34-1.49A23.4,23.4,0,0,1,31.63,23,26.66,26.66,0,0,1,35,18.38a23.21,23.21,0,0,1,4.25-3.72c3.23-2.13,1.42-1.28,1.24-1.19a12.15,12.15,0,0,0-1.53.88l-.75.51c-.26.19-.51.4-.78.61a32.31,32.31,0,0,0-4,3.82c1.14-1.23.75-.75-.18.34S31,22.58,30.08,23.91a25.31,25.31,0,0,0-2.57,4.69,26.6,26.6,0,0,0-1,2.85l-.22.75-.1.37a1.46,1.46,0,0,0-.09.49c-.08.9-.15,1.8-.23,2.69.4.19.75.39,1.17.57l1,.44c.46.21.93.38,1.39.57s.93.34,1.39.51.92.34,1.39.48a23,23,0,0,0,4.81,1A25.8,25.8,0,0,0,50.7,37.67a32.75,32.75,0,0,0,11.72-8.32A18.82,18.82,0,0,0,65.87,23c.36-.73.7-1.49,1.09-2.2a16.5,16.5,0,0,0,.9-2.05c.15-.5.31-1,.41-1.46s.18-.94.25-1.4c0-.23,0-.46.07-.68l.06-.72c.07-.64.08-1.31.1-1.92-.07.7-.11,1.38-.21,2s-.09.86-.15,1.29a22.62,22.62,0,0,1-.6,2.74c-.2.68-.29.39-.33-.18,0-.29,0-.65,0-1s0-.67,0-.9c0-.4.75-.87.68-1.29a4.66,4.66,0,0,0,.08-.64c0-.27,0-.57,0-.87,0-.57,0-1.15,0-1.77,0-.4.35-.58.48-.78,0,0,0-.05-.08-.07a9.71,9.71,0,0,0-2.35-.89,6.47,6.47,0,0,1-2-.24l-1.69-.58a5.26,5.26,0,0,0-1-.2h-.68a.72.72,0,0,1,.21.43c-.31-.08-.73-.24-1-.29.32.05.74.21,1,.29a.72.72,0,0,0-.21-.43c-1.64,0-3.46-.06-5.15,0l0,0a14.27,14.27,0,0,1,1.46.07,9.76,9.76,0,0,1,1.46.31c-.43-.11-.36-.19.14-.16l.36.22c-.44,0-.88,0-1.3-.08a8.61,8.61,0,0,1-1.25-.23l-.56.06c-.27-.05-.26-.12-.31-.19h-.58Z" fill="#751b1b"/><path d="M66.33,12.09h0l-.45-.15.38.18L66,13.43A1.79,1.79,0,0,0,66.33,12.09Z" fill="#751b1b"/><path d="M16,27.91l-.66-.82.3.44A1.9,1.9,0,0,0,16,27.91Z" fill="#751b1b"/><path d="M14.7,26.31l-.1-.16L14.49,26Z" fill="#751b1b"/><path d="M13.64,24.82c.17.27.33.54.51.78C14,25.38,13.85,25.11,13.64,24.82Z" fill="#751b1b"/><path d="M14.42,26.05c-.05-.1-.06-.16.07,0h0l-.34-.43A4.85,4.85,0,0,1,14.42,26.05Z" fill="#751b1b"/><path d="M14.42,26.05l.16.31C14.54,26.27,14.48,26.17,14.42,26.05Z" fill="#751b1b"/><path d="M13.67,26c-.14-.14,0-.2-.22-.48s-.54-.66-.8-1a11.66,11.66,0,0,1-.71-1,2.17,2.17,0,0,1-.3-.61,2.23,2.23,0,0,0-.25-.62l-.5-.7c-.19-.26-.38-.53-.55-.74-.33-.41-.54-.59-.21,0A33,33,0,0,0,13,25.23c.92,1.15,1.89,2.15,2.92,3.21.3.28.56.56.83.84-.34-.37-.71-.74-1.08-1.18a7.49,7.49,0,0,0-.89-.91C14.43,26.86,14.06,26.48,13.67,26Z" fill="#751b1b"/><path d="M21.81,33l-.48-.28c-.35-.23-.67-.5-1-.74s-.7-.5-1-.77l.27.28c.4.3.46.3.12,0a18.59,18.59,0,0,0,2.4,1.69A.88.88,0,0,0,21.81,33Z" fill="#751b1b"/><path d="M22.54,33.51l-.48-.3h0l.49.3Z" fill="#751b1b"/><path d="M11.59,21.5a24.14,24.14,0,0,1-2.08-6.64.69.69,0,0,1-.23-.5,2,2,0,0,0,.09-.47c-.06-.3-.07-.6-.1-.89l-.07-.34h0c-.07-.21-.15-.22-.21-.15a.66.66,0,0,1-.17.23s.11-.17.17-.23a1.18,1.18,0,0,0,.09-.41v0a3.28,3.28,0,0,1,.8-.36,2.63,2.63,0,0,1-.79.36v0l.13.57.06.17,0-.65,1.29-.49.38-.19c.44-.24.95-.52,1.34-.34l.39-.1-.09,0h.16c.53-.14,1.07-.27,1.63-.37a8.92,8.92,0,0,1,1-.55l.43.21a1.22,1.22,0,0,1,.57-.38c-.33-.12-.64-.25-.92-.32-.44-.22-.72.73-1.28.31.56.42.84-.53,1.28-.31.28.07.59.2.92.32a2.75,2.75,0,0,1,1.79,0,2.26,2.26,0,0,1-1.79,0,1.22,1.22,0,0,0-.57.38l-.43-.21a8.92,8.92,0,0,0-1,.55c.53-.1,1.07-.2,1.62-.26l.82-.11.84-.06A29.33,29.33,0,0,1,28,11.34a26.3,26.3,0,0,1,9.33,5A25.13,25.13,0,0,1,44.2,25.5a36.89,36.89,0,0,1,1.7,4.59c.2.78.43,1.56.57,2.35.07.39.17.78.21,1.18l0,.15v.15a1.91,1.91,0,0,0,0,.21l-.53.22L44.89,35c-.46.19-.94.36-1.41.53s-1,.3-1.46.44a23.75,23.75,0,0,1-6.18.81,27.13,27.13,0,0,1-5.68-.57,23.15,23.15,0,0,1-5.35-1.84c-3.45-1.74-1.81-.59-1.65-.48a11.65,11.65,0,0,0,1.53.88l.82.4c.28.14.59.25.91.38a32.39,32.39,0,0,0,5.32,1.59c-1.64-.38-1-.28.38,0s3.65.44,5.26.55a25.49,25.49,0,0,0,5.34-.1,30.25,30.25,0,0,0,3-.52l.75-.18.39-.1a1.56,1.56,0,0,0,.46-.16l2.45-1.15c0-.43,0-.84-.09-1.29l-.11-1.07c0-.5-.13-1-.19-1.49s-.17-1-.25-1.46-.17-1-.27-1.44A24.14,24.14,0,0,0,47.31,24a25.82,25.82,0,0,0-8.26-11.11,32.65,32.65,0,0,0-13-6,19,19,0,0,0-7.25.18c-.81.06-1.64.13-2.45.15a15.56,15.56,0,0,0-2.22.24c-.51.12-1,.22-1.47.37s-.92.31-1.35.48c-.21.08-.42.18-.62.28l-.65.3c-.59.26-1.18.58-1.72.87.64-.29,1.25-.59,1.83-.81.43-.18.79-.34,1.2-.5A23.54,23.54,0,0,1,14,7.59c.69-.17.48.06,0,.38-.24.15-.54.33-.84.49s-.58.34-.79.44-1.13-.22-1.47,0a3.76,3.76,0,0,0-.58.25c-.25.12-.53.25-.78.4L8,10.52c-.31.25-.67,0-.91,0,0,0,0,.05,0,.1a9.46,9.46,0,0,0,.4,2.48,6.62,6.62,0,0,1,.77,1.83l.34,1.75a4.92,4.92,0,0,0,.32,1l.33.59a.61.61,0,0,1,.27-.39,10.12,10.12,0,0,0,.27,1.05,10.12,10.12,0,0,1-.27-1.05.61.61,0,0,0-.27.39c.81,1.43,1.67,3,2.59,4.45v0a13.31,13.31,0,0,1-.67-1.3,11.21,11.21,0,0,1-.46-1.42c.12.42,0,.41-.2-.05v-.41c.18.39.4.77.58,1.16a10,10,0,0,1,.42,1.2l.33.45c.09.27,0,.29,0,.37s.19.33.3.5Z" fill="#751b1b"/><path d="M9.08,12.08h0l.09.47,0-.42,1.25-.47A1.8,1.8,0,0,0,9.08,12.08Z" fill="#751b1b"/><path d="M31.53,55.64c0-.16.19-.2.1-.36.13-.1.35-.14.45,0v.2C31.9,55.51,31.67,55.72,31.53,55.64Z" fill="#751b1b"/><path d="M38.43,50.9c0-.06,0-.15.09-.21s.07.06.06.14A.12.12,0,0,1,38.43,50.9Z" fill="#751b1b"/><path d="M35.88,50.79c0-.13-.08-.18-.09-.33a1,1,0,0,1,.75-.52c.08,0,.1.1.07.18-.13.27-.23.55-.5.68S36,50.54,35.88,50.79Z" fill="#751b1b"/><path d="M39.37,48.32l-.09.11c0-.06.13-.25.1-.32l-.23.14c0-.08.06-.14.11-.2-.26-.07-.2-.31-.46-.41l.21-.18c0-.13-.12-.15-.11-.27.27-.09.15-.36.29-.57s.28-.28.43-.3a1.21,1.21,0,0,1,0-.45l.08.06c.1-.11.12-.22.06-.26s.16-.18.22-.22-.33,0-.34-.32a2.27,2.27,0,0,1,.22-.54c.13.06.38-.17.45-.12-.05.22.17.28,0,.57a.45.45,0,0,0,.28-.14c.06-.16-.12-.12,0-.29a1.39,1.39,0,0,1,.46.08l.06-.15c0,.29.48.14.49.32a3.13,3.13,0,0,1-.28,1.23c-.22,0-.24.4-.34.54s-.08-.15-.17,0,.21,0,0,.36c-.29.14-.5.67-.72.91s-.24-.15-.44.22c.12,0-.06.1-.09.2S39.42,48.39,39.37,48.32Z" fill="#751b1b"/><path d="M36.83,46.64c0-.07.06-.18.1-.26s.26-.12.33-.08-.07.26-.16.38S36.87,46.71,36.83,46.64Z" fill="#751b1b"/><path d="M39.54,44.61a.33.33,0,0,1,0-.25c.11-.16.22-.32.34-.36s.24,0,.19.22S39.65,44.75,39.54,44.61Z" fill="#751b1b"/><path d="M32.86,47.52c-.2-.14.07-.35.18-.58.34,0,.16-.42.48-.44.06,0,.14,0,.1.17-.34.24.06.52-.29.74C33.18,47.56,33,47.51,32.86,47.52Z" fill="#751b1b"/><path d="M35.55,46.18a.4.4,0,0,1,.16-.35.15.15,0,0,1,.24,0,.39.39,0,0,1-.17.34C35.65,46.29,35.62,46.21,35.55,46.18Z" fill="#751b1b"/><path d="M37,45.22c0-.08.06-.12.1-.2s.13,0,.18,0l-.09.22C37,45.32,37,45.28,37,45.22Z" fill="#751b1b"/><path d="M35.69,45.58a.88.88,0,0,1,.19-.32c.11,0,.26,0,.2.16s-.1.16-.18.29A.18.18,0,0,1,35.69,45.58Z" fill="#751b1b"/><path d="M37.09,44.63c0-.12-.08-.14-.15-.17.12-.17.06-.33.1-.46.13,0,.24-.23.38-.36s.44.11.33.48c-.18.19-.28.61-.48.51S37.17,44.56,37.09,44.63Z" fill="#751b1b"/><path d="M39.77,42.83l-.15-.25c.1-.29.44-.56.49-.71s.21.27.41,0c.16,0,.24.1.21.31-.2.47-.65.3-.77.76C40,42.79,39.92,42.75,39.77,42.83Z" fill="#751b1b"/><path d="M35.73,45.11a1.1,1.1,0,0,1,.05-.35,3,3,0,0,0,.32-.15.61.61,0,0,1-.07.44C35.93,45.17,35.76,45.21,35.73,45.11Z" fill="#751b1b"/><path d="M35.35,44.57c.15-.25.25-.1.4-.16s0,.11,0,.21a.53.53,0,0,1-.28.27C35.35,44.87,35.45,44.64,35.35,44.57Z" fill="#751b1b"/><path d="M33,45.26c-.05-.12.1-.2.17-.29s.17,0,.17.1S33.08,45.43,33,45.26Z" fill="#751b1b"/><path d="M36.05,42.47c0-.09.17-.26.22-.17l-.09.23S36.05,42.55,36.05,42.47Z" fill="#751b1b"/><path d="M18.6,46.32s0,0,0,0v.06S18.62,46.32,18.6,46.32Z" fill="#751b1b"/><path d="M30,42.53c.12-.22.54-.6.29-.64-.41.08-.23-.37-.47-.46.12-.09.21-.26.1-.34s-.11,0-.16,0c.09-.12.44-.4.51-.64.28-.19.69-.42.84-.56s-.09,0,0-.11c.06.14.34.11.51.16l.05-.09c.24,0,.27.16.3.3s.17-.1.22-.1-.29.37-.14.44l.24-.09c-.11.12-.27.11-.32.28a1,1,0,0,1,0,.2c-.26.15-.24.53-.52.68-.17-.07-.3.2-.39.33l0-.19a1.19,1.19,0,0,1-.56.37l0-.11C30.26,42,30.14,42.4,30,42.53Z" fill="#751b1b"/><path d="M30.36,42.25h0l-.11.18S30.33,42.3,30.36,42.25Z" fill="#751b1b"/><path d="M31.53,41.56s0-.06.08-.08S31.59,41.57,31.53,41.56Z" fill="#751b1b"/><path d="M41.09,38.76c.15-.14.07.06.09.1S41,38.89,41.09,38.76Z" fill="#751b1b"/><path d="M31.82,41.09v0l0,0S31.83,41.1,31.82,41.09Z" fill="#751b1b"/><path d="M29.51,41.46s.12-.07.08,0S29.52,41.47,29.51,41.46Z" fill="#751b1b"/><path d="M29,41.2s0-.05,0-.05v.06S29,41.21,29,41.2Z" fill="#751b1b"/><path d="M30,40.35v0l0,0S30,40.37,30,40.35Z" fill="#751b1b"/><path d="M29.9,39.32c-.23.14-.11-.21-.32-.19,0,0,.28-.13.21-.22s-.17.08-.12-.06c.07.07.31-.07.37-.15L30,38.62c.22,0,.51,0,.46.29s-.25.21-.35.43C30.14,39.17,29.89,39.42,29.9,39.32Z" fill="#751b1b"/><path d="M33.4,38s.06-.16.14-.18S33.53,38,33.4,38Z" fill="#751b1b"/><path d="M28.53,39.56c0-.05,0-.11.07-.17s.09.07,0,.15S28.56,39.53,28.53,39.56Z" fill="#751b1b"/><path d="M29.4,35.93c-.24.16-.41-.07-.75.17.12,0,.27-.22.3-.13-.18,0,.13-.39-.08-.46a5.46,5.46,0,0,0,.63-.58.42.42,0,0,0,.4-.07v0c.13.1.12.21.41.07l0-.05c-.05.12-.11.08-.21.21.08,0,0,.14.13.07-.08.18-.24.39-.2.54C29.89,35.5,29.46,36.16,29.4,35.93Z" fill="#751b1b"/><path d="M30.6,35.41c.06,0,.15-.09.14,0a.23.23,0,0,1-.15.14A.11.11,0,0,1,30.6,35.41Z" fill="#751b1b"/><polygon points="28.78 35.51 28.78 35.55 28.71 35.56 28.78 35.51" fill="#751b1b"/><polygon points="29.82 34.66 29.84 34.69 29.81 34.69 29.82 34.66" fill="#751b1b"/><path d="M29,34.46c0-.08.17-.1.2-.15S29.1,34.4,29,34.46Z" fill="#751b1b"/><path d="M29.86,34a.31.31,0,0,0-.16.16c0-.21-.27,0-.41.07,0-.25-.28-.27-.4-.46,0,0,0,.05,0,.07.22-.24.08-.37.13-.57.13.07.16-.14.19-.21a.25.25,0,0,1-.3-.12L29,33c.13-.08.27-.1.35-.23s-.07,0,0-.1a.08.08,0,0,1,.09,0c.18-.13.21-.24.18-.33a1.85,1.85,0,0,0,.83-.25l.05-.12c-.09.12.09.11.1.17.32-.2.26.2.56.06-.17.26,0,.28,0,.45h0c0,.31-.44.7-.53,1-.21,0-.37.28-.61.27l-.17.21C29.84,34.17,30,34,29.86,34Z" fill="#751b1b"/><path d="M28.77,34h0Z" fill="#751b1b"/><path d="M28.56,33.91l-.15,0Z" fill="#751b1b"/><polygon points="37.97 30.58 37.95 30.58 38 30.46 38.02 30.45 37.97 30.58" fill="#751b1b"/><path d="M36.81,31a.21.21,0,0,1,.13-.07C36.93,31,36.83,31,36.81,31Z" fill="#751b1b"/><path d="M28.06,33.34h0Z" fill="#751b1b"/><path d="M28.62,32.79c.1,0,.05.13.15.12S28.57,32.91,28.62,32.79Z" fill="#751b1b"/><polygon points="29.1 32.67 29.13 32.7 29.08 32.71 29.1 32.67" fill="#751b1b"/><path d="M27.45,32.92c.06-.12.13-.08.14,0S27.44,33,27.45,32.92Z" fill="#751b1b"/><polygon points="28.34 32.64 28.43 32.69 28.38 32.68 28.34 32.64" fill="#751b1b"/><path d="M30.35,30.47c-.08-.06,0-.19.14-.3s.25-.06.29-.18c0,.06.24.13,0,.35S30.41,30.58,30.35,30.47Z" fill="#751b1b"/><path d="M29.42,30.41c-.14.16-.15,0-.25.13s-.16-.18-.48-.13c.18-.09.1-.25,0-.16a5,5,0,0,1,.53-.59c.15,0,.33,0,.48-.17a.18.18,0,0,0,.3.07,1.72,1.72,0,0,1-.15.58c-.07.09-.43.2-.37.34C29.43,30.46,29.46,30.42,29.42,30.41Z" fill="#751b1b"/><path d="M38.21,27.35c.07-.11.12-.16.21-.3s.18,0,.35-.17c.09.09.15.12,0,.34a2,2,0,0,1-.26.18C38.28,27.52,38.32,27.35,38.21,27.35Z" fill="#751b1b"/><polygon points="28.53 30.07 28.6 30.08 28.52 30.09 28.53 30.07" fill="#751b1b"/><path d="M34.87,27.91c0-.07.09-.12.11-.17.18-.11.35-.22.43-.12s.06.1,0,.22-.2.17-.27.18S34.84,28,34.87,27.91Z" fill="#751b1b"/><path d="M33.17,28.17c-.17.08-.23,0-.35,0,.06-.14,0-.18.17-.34s.32,0,.57-.11a3,3,0,0,1-.4.47Z" fill="#751b1b"/><path d="M24.45,29.69l.06,0-.05.07S24.44,29.71,24.45,29.69Z" fill="#751b1b"/><path d="M37.6,26.43a.4.4,0,0,1,.29-.29c.14-.07.16,0,.21,0s-.18.25-.31.32S37.56,26.53,37.6,26.43Z" fill="#751b1b"/><path d="M27.55,28.49l.08-.1Z" fill="#751b1b"/><path d="M29.16,28c.09,0,.28-.08.25,0s-.19.16-.27.22C29.15,28.12,29,28.09,29.16,28Z" fill="#751b1b"/><path d="M35.85,40.6a1,1,0,0,0-.39.21c0-.08.14-.19,0-.19s-.38-.17-.71.06c.1-.09.25-.11.35-.27a.24.24,0,0,0-.16-.23c.12,0,.09-.17.13-.21,0-.26-.39-.16-.43-.34.14,0,.26.23.48,0s.06-.38.11-.52,0,.05.06.07c.13-.19.43-.36.36-.54a3.84,3.84,0,0,1,1.3-.55,5.6,5.6,0,0,1,.3.48.63.63,0,0,0,.12-.11.82.82,0,0,0,0,.79c-.06.18-.15,0-.24.22s-.1.24-.15.36c-.33.3-.5.46-.8.78C36.35,40.3,35.82,40.78,35.85,40.6Z" fill="#751b1b"/><path d="M24.18,28.63s0,0,0,0l-.57.08.09-.06a4.4,4.4,0,0,1-.51-.29c-.07-.31.34-.71.34-1,.21-.19.08.05.23,0s.3-.11.16-.16a3.85,3.85,0,0,0,.47-.08l.05-.12c.17,0,.21.1.46,0,0-.11-.12-.07,0-.19,0,.24.35.19.35.43l.15-.12c0,.1-.2.29,0,.31l.08-.06c-.05.23-.24.47-.32.71S24.55,28.48,24.18,28.63Z" fill="#751b1b"/><path d="M30.58,27.49a.25.25,0,0,1,.12-.13c.13-.05.16,0,.12.08S30.6,27.53,30.58,27.49Z" fill="#751b1b"/><path d="M29.77,27.61s.05-.05.08-.06,0,.06,0,.1S29.77,27.64,29.77,27.61Z" fill="#751b1b"/><path d="M27.06,27.46h0Z" fill="#fff"/><path d="M26.68,27.34c.11-.09.15,0,.13.05S26.68,27.39,26.68,27.34Z" fill="#751b1b"/><polygon points="23.6 27.48 23.58 27.48 23.64 27.38 23.66 27.38 23.6 27.48" fill="#fff"/><polygon points="25.69 27.1 25.52 27.31 25.61 27.16 25.69 27.1" fill="#751b1b"/><path d="M23.26,27.3a.15.15,0,0,1,.13-.05S23.28,27.32,23.26,27.3Z" fill="#751b1b"/><path d="M23.76,27l0-.1Z" fill="#751b1b"/><path d="M24.29,26.77c.13,0,0-.06,0-.09.24,0,0,.16.17.19C24.37,26.86,24.26,26.85,24.29,26.77Z" fill="#751b1b"/><path d="M19,24.18c.12-.25-.27-.35-.15-.56,0,0,.05.05.1,0-.19-.2.41-.28.21-.47l.14.05a.23.23,0,0,0,.15-.21s0,.09,0,.1a1.59,1.59,0,0,1,.56-.16l0,0a.7.7,0,0,1,.45.08.11.11,0,0,0,.08-.11c-.23.26.35.39,0,.73.18.06-.1.2-.16.31s-.18.18-.35.23A1.45,1.45,0,0,1,19,24.18Z" fill="#751b1b"/><path d="M31.17,25.82c0-.07.12-.12.2-.16s.05.1,0,.17A.14.14,0,0,1,31.17,25.82Z" fill="#751b1b"/><path d="M22.3,26.43l-.1,0Z" fill="#751b1b"/><path d="M28.11,25.91l0,0,0,.05S28.12,25.93,28.11,25.91Z" fill="#751b1b"/><path d="M28.17,25.67h0l-.05.08S28.16,25.69,28.17,25.67Z" fill="#751b1b"/><path d="M28.76,25.42v-.14c.21,0,.26-.07.5-.1-.06.09.09.12-.07.29a.67.67,0,0,1-.33.15C28.8,25.56,28.5,25.55,28.76,25.42Z" fill="#751b1b"/><polygon points="18.42 23.52 18.47 23.54 18.43 23.54 18.42 23.52" fill="#751b1b"/><polygon points="28.68 25.46 28.67 25.47 28.62 25.48 28.68 25.46" fill="#751b1b"/><polygon points="9.05 24.73 9.14 24.78 9.06 24.75 9.05 24.73" fill="#751b1b"/><path d="M29.46,25.22v0Z" fill="#751b1b"/><path d="M19,23.34l-.06-.1Z" fill="#751b1b"/><polygon points="18.6 23.18 18.64 23.23 18.62 23.21 18.6 23.18" fill="#751b1b"/><path d="M18.44,23s0,0,.07,0S18.47,23.06,18.44,23Z" fill="#751b1b"/><path d="M19.84,22.92c.08,0,0,0,0,0S19.83,22.94,19.84,22.92Z" fill="#751b1b"/><path d="M20.34,22.82c0,.07.11.09.05.13S20.16,22.9,20.34,22.82Z" fill="#751b1b"/><path d="M19.09,22.85v0Z" fill="#751b1b"/><polygon points="19.76 22.86 19.88 22.85 19.85 22.89 19.74 22.89 19.76 22.86" fill="#751b1b"/><path d="M29.34,24.49c.15-.15.25,0,.12.05S29.33,24.54,29.34,24.49Z" fill="#751b1b"/><path d="M29,24.48c.13-.08.14,0,0,.08S29,24.53,29,24.48Z" fill="#751b1b"/><path d="M29.72,24.21c.12-.06.05,0,0,.05S29.65,24.29,29.72,24.21Z" fill="#751b1b"/><path d="M31.12,23.51c.09,0,.36-.1.29,0S31.17,23.57,31.12,23.51Z" fill="#751b1b"/><path d="M31.39,23.4s.13,0,.05,0Z" fill="#751b1b"/><polygon points="31.24 23.4 31.29 23.42 31.25 23.41 31.24 23.4" fill="#751b1b"/><polygon points="31.35 23.31 31.43 23.32 31.34 23.32 31.35 23.31" fill="#751b1b"/><path d="M31,23c.07-.05.13,0,.07,0S31,23,31,23Z" fill="#751b1b"/><path d="M19.84,20.88l.14-.13c.23,0,.21.17.16.24A.19.19,0,0,1,19.84,20.88Z" fill="#751b1b"/><path d="M24.89,20.74c.07,0,.07,0,.07.07S24.7,20.83,24.89,20.74Z" fill="#751b1b"/><polygon points="23.05 20.29 23 20.38 22.97 20.31 23.05 20.29" fill="#751b1b"/><path d="M26.22,38.07c.09.1.17.22.23.27s.19.26.15.24l-.1-.11A4.65,4.65,0,0,1,26.22,38.07Z" fill="#751b1b"/><path d="M30.9,44.28a1.58,1.58,0,0,1,.15.18L31,44.4A.52.52,0,0,1,30.9,44.28Z" fill="#751b1b"/><path d="M30.25,43.14l.17.16a7,7,0,0,1,.51.67c0,.05,0,0-.09-.07-.19-.24-.38-.45-.53-.66S30.44,43.36,30.25,43.14Z" fill="#751b1b"/><path d="M32.64,46.31l-.08-.1s.17.21.21.24l-.14-.19.14.17c0-.08.12.09.11,0l.16.21c.07.08.05,0,.13.11a4.44,4.44,0,0,0,.41.49l.29.39.27.29h0a.88.88,0,0,0,.17.19s.15.19.18.24-.07-.14.1,0l.37.43s.2.29.19.3c-.14-.16-.11-.09-.33-.36A2.18,2.18,0,0,0,35,49c.11.13,0,0,.16.15a.76.76,0,0,1,.08.18l.1.12c-.16-.17.05.15,0,0s-.52-.56-.79-.88c-.08-.13-.3-.37-.4-.5s.06,0-.06-.09.06.1-.2-.21-.52-.66-.72-.91,0,0-.25-.35c0,0-.07-.09-.14-.16S32.61,46.29,32.64,46.31Z" fill="#751b1b"/><path d="M32.87,46.08s.12.14.18.2.14.2.14.22a3.73,3.73,0,0,1-.26-.31C32.78,46,32.84,46.06,32.87,46.08Z" fill="#751b1b"/><path d="M34.82,48.65a.57.57,0,0,1,.14.14c.12.15.24.29.3.38s.08.13-.07,0A2.57,2.57,0,0,1,34.82,48.65Z" fill="#751b1b"/><path d="M31.12,43.5a4.88,4.88,0,0,1,.37.42c.11.19.29.33.4.51,0,0,0,0-.06,0-.25-.32-.27-.27-.5-.58A2.08,2.08,0,0,1,31.12,43.5Z" fill="#751b1b"/><path d="M32.73,45.69,33,46c.09.12.08.12.06.11a2.64,2.64,0,0,1-.24-.29C32.7,45.68,32.74,45.71,32.73,45.69Z" fill="#751b1b"/><path d="M33.71,47l.14.16c.08.11,0,.06,0,.07L33.73,47C33.67,47,33.69,47,33.71,47Z" fill="#751b1b"/><path d="M33.11,46.11l.23.28s.1.16,0,0-.13-.15-.22-.26S33.06,46.06,33.11,46.11Z" fill="#751b1b"/><path d="M34.08,47.39c.06.06.05,0,0,0,.13.16.2.22.29.32a4.83,4.83,0,0,0,.32.4c.1.16.08.18-.16-.09a4.57,4.57,0,0,1-.43-.55Z" fill="#751b1b"/><path d="M35.9,49.81l.1.07.55.68c0,.06-.1-.06.13.21,0,.1,0,.07-.12-.07-.32-.38-.36-.51-.66-.84C36,50,36,49.93,35.9,49.81Z" fill="#751b1b"/><path d="M33.37,46.39a2.51,2.51,0,0,1,.21.23l.19.25a2.7,2.7,0,0,1-.26-.28C33.4,46.46,33.33,46.35,33.37,46.39Z" fill="#751b1b"/><path d="M33.55,46.5a2,2,0,0,1,.22.3s-.05,0-.11-.11-.17-.2-.24-.29S33.54,46.51,33.55,46.5Z" fill="#751b1b"/><path d="M32.39,44.85a2.23,2.23,0,0,1,.21.25c0,.06.06.09,0,0S32.31,44.78,32.39,44.85Z" fill="#751b1b"/><path d="M34.93,48.05a1.46,1.46,0,0,1,.17.22l-.16-.18S34.88,48,34.93,48.05Z" fill="#751b1b"/><path d="M26.15,35.8l0,0,0,0Z" fill="#751b1b"/><path d="M32.68,44.53c.16.18.52.63.44.49s.09,0,0-.05c.1.12.22.26.22.23l-.07-.1c.09.11.37.46.52.62l.61.78c.07.08,0-.06.05,0s.08.15.12.23l.06.07c.12.18,0,.09,0,0s.11.15.13.18-.29-.36-.27-.3l.14.19c-.1-.13-.16-.22-.27-.34a.29.29,0,0,1-.08-.07c-.18-.23-.37-.41-.55-.66,0-.06-.22-.27-.32-.39l.11.11c-.19-.22-.28-.35-.41-.52l.07.07C33.06,45,32.82,44.71,32.68,44.53Z" fill="#751b1b"/><path d="M33,44.92h0l-.13-.15A.63.63,0,0,1,33,44.92Z" fill="#751b1b"/><path d="M33.78,46l.08.09Z" fill="#751b1b"/><path d="M38.59,52.85c.13.16,0,0,0,0S38.5,52.74,38.59,52.85Z" fill="#751b1b"/><path d="M34.14,46.37l0,0h0Z" fill="#751b1b"/><path d="M33.05,44.8s.08.11,0,.05S33.05,44.81,33.05,44.8Z" fill="#751b1b"/><path d="M33,44.62l0,0,0,0Z" fill="#751b1b"/><path d="M33.81,45.66l0,0h0Z" fill="#751b1b"/><path d="M34.27,46.08c-.17-.21,0,0,0-.11s.18.23.19.23-.11-.14,0,0a3.06,3.06,0,0,0,.23.3h0c.07.13.2.31,0,.15s-.2-.25-.35-.42C34.44,46.3,34.22,46,34.27,46.08Z" fill="#751b1b"/><path d="M36.31,48.85a.82.82,0,0,1,.14.16C36.48,49.06,36.34,48.9,36.31,48.85Z" fill="#751b1b"/><path d="M33.58,45.11a.85.85,0,0,1,.12.13c0,.08,0,0-.07-.06Z" fill="#751b1b"/><path d="M35.69,47.31c-.18-.22-.15-.23-.41-.56l.2.26c-.09-.12.24.25.18.15.19.24.31.38.54.65a1.75,1.75,0,0,0,.21.29l0,0s0,0,.15.24l0,0a2.53,2.53,0,0,1-.19-.22c0,.05-.06-.06,0,.05-.12-.13-.29-.33-.34-.37S35.61,47.25,35.69,47.31Z" fill="#751b1b"/><path d="M36.45,48.31c0,.06.1.14.07.1a1,1,0,0,1-.13-.16Z" fill="#751b1b"/><polygon points="35.62 47.1 35.6 47.08 35.56 47.03 35.62 47.1" fill="#751b1b"/><polygon points="36.47 48.14 36.46 48.14 36.45 48.12 36.47 48.14" fill="#751b1b"/><path d="M36.21,47.71a1.56,1.56,0,0,1,.16.2Z" fill="#751b1b"/><path d="M36.78,48.43l-.15-.17c.12.12-.13-.19-.21-.3.12.11,0-.08,0-.07s0,0-.05,0a2.83,2.83,0,0,0,.31.31,1.24,1.24,0,0,0,.19.21c-.11-.13-.09-.14-.08-.14l0,.09c.1.12.17.22.27.33s0,0,0,0,0,.05,0,.05c.14.17.21.24.23.26s.31.41.49.65l.08.08c-.09-.11,0,0,0,0,.24.29,0,.09.23.34-.2-.22-.12-.1-.19-.16l0,0c-.13-.1-.52-.58-.71-.78s-.29-.36-.4-.52l-.17-.19S36.87,48.57,36.78,48.43Z" fill="#751b1b"/><path d="M36.32,47.74l0-.06Z" fill="#751b1b"/><path d="M36.25,47.62l-.09-.11Z" fill="#751b1b"/><polygon points="41.86 55.17 41.85 55.16 41.94 55.25 41.95 55.26 41.86 55.17" fill="#751b1b"/><path d="M41.2,54.26l.09.12Z" fill="#751b1b"/><path d="M36.28,47.53l0-.05Z" fill="#751b1b"/><path d="M36.78,48.12c.06.08,0,0,0,.05S36.71,48,36.78,48.12Z" fill="#751b1b"/><polygon points="37.06 48.49 37.06 48.5 37.03 48.46 37.06 48.49" fill="#751b1b"/><path d="M36.18,47.28c.09.09.1.12.08.11S36.15,47.25,36.18,47.28Z" fill="#751b1b"/><polygon points="36.72 47.99 36.74 48.03 36.72 48.01 36.72 47.99" fill="#751b1b"/><path d="M38.61,50.19s.1.1.19.2a2.13,2.13,0,0,0,.22.27s0,.11-.14-.1A1.28,1.28,0,0,1,38.61,50.19Z" fill="#751b1b"/><path d="M38.19,49.57c-.13-.15,0-.08-.16-.21s0,0-.17-.27c.12.15.16.16,0,0,.22.25.3.33.5.58s.15.22.3.39c0,0,0,0,.12.19L38.5,50c-.07-.08-.29-.37-.32-.38S38.21,49.6,38.19,49.57Z" fill="#751b1b"/><path d="M43.55,56.71l.23.25c.14.17.1.14.24.31,0,0,0,0-.18-.15l-.19-.24C43.5,56.68,43.6,56.78,43.55,56.71Z" fill="#751b1b"/><polygon points="37.93 49.1 37.96 49.14 37.91 49.08 37.93 49.1" fill="#751b1b"/><path d="M41.82,54.24a.83.83,0,0,1,.13.14,1.92,1.92,0,0,1,.25.34.55.55,0,0,1-.12-.12l-.21-.25C41.84,54.28,41.76,54.17,41.82,54.24Z" fill="#751b1b"/><path d="M40.93,53a2.36,2.36,0,0,1-.16-.24A1.92,1.92,0,0,1,41,53a3.32,3.32,0,0,1,.32.43l-.4-.45Z" fill="#751b1b"/><path d="M36.08,46.38l.05.06-.06-.06S36.07,46.37,36.08,46.38Z" fill="#751b1b"/><path d="M43.72,56.65s.18.2.27.32.07.1.08.13a2.91,2.91,0,0,1-.29-.34C43.74,56.7,43.66,56.59,43.72,56.65Z" fill="#751b1b"/><path d="M38.11,49l.08.09Z" fill="#751b1b"/><path d="M39.11,50.28c0,.06.17.22.11.16a2.49,2.49,0,0,1-.22-.27S39,50.12,39.11,50.28Z" fill="#751b1b"/><path d="M35.87,49l-.25-.33c.05.05.15.18.12.13a2.51,2.51,0,0,0-.29-.44l.27.35c.06.05.08.07.06,0s.12.14.16.19-.06-.15,0-.08a.75.75,0,0,0,.16.26,3.88,3.88,0,0,0,.31.33s0,0,0,0c.15.17.35.44.42.49.27.34.54.73.76,1,0,0-.11-.06-.15-.07l.1.12a2.68,2.68,0,0,0-.45-.45c-.12-.13-.05-.09-.19-.25s-.17-.19-.25-.28c-.27-.35-.42-.53-.7-.87C36.2,49.39,35.76,48.83,35.87,49Z" fill="#751b1b"/><path d="M36.36,46.54l0,0-.32-.43.07.09c-.07-.11-.1-.17-.16-.28s.44.46.55.54,0,0,.11.16.19.25.13.16l.28.36.07.07a3.74,3.74,0,0,0,.24.33c.06.07,0-.07.05,0-.11-.09.11.2,0,.13l.12.14s-.21-.23-.12-.09l.07.07c-.11-.1-.3-.31-.44-.45S36.6,46.85,36.36,46.54Z" fill="#751b1b"/><path d="M40,51.43a1.43,1.43,0,0,1,.11.12c.09.11.08.12,0,.06A.75.75,0,0,1,40,51.43Z" fill="#751b1b"/><path d="M39.55,50.82s.05,0,.07.08l-.06-.07S39.55,50.81,39.55,50.82Z" fill="#751b1b"/><path d="M38.27,49l0-.06Z" fill="#fff"/><path d="M38.13,48.72c.09.11.08.12,0,.08S38.11,48.71,38.13,48.72Z" fill="#751b1b"/><polygon points="36.5 46.48 36.49 46.46 36.55 46.53 36.56 46.55 36.5 46.48" fill="#fff"/><polygon points="37.72 48.1 37.56 47.91 37.66 48.02 37.72 48.1" fill="#751b1b"/><path d="M36.39,46.29l.08.11A.48.48,0,0,1,36.39,46.29Z" fill="#751b1b"/><path d="M36.74,46.72h0Z" fill="#751b1b"/><path d="M37.12,47.18c.08.11,0,0,0,0,.14.19-.06-.05,0,.07C37.13,47.22,37.07,47.14,37.12,47.18Z" fill="#751b1b"/><path d="M35.17,44c.15.15,0-.12.1,0l0,.07c0-.09.32.37.26.26l.07.09a1.76,1.76,0,0,0,.14.16s0,0,0,0l.36.45,0,0,.22.31.08.08c-.21-.22.07.17-.24-.17.08.11-.13-.13-.19-.2a2.37,2.37,0,0,1-.27-.31C35.48,44.44,35.25,44.14,35.17,44Z" fill="#751b1b"/><path d="M41,52.39l.16.2c0,.07,0,0-.08-.07A.6.6,0,0,1,41,52.39Z" fill="#751b1b"/><path d="M36.2,45.84l0-.06Z" fill="#751b1b"/><path d="M39.42,50.19v0h0S39.42,50.2,39.42,50.19Z" fill="#751b1b"/><path d="M39.53,50.3l0,0,0,0S39.52,50.29,39.53,50.3Z" fill="#751b1b"/><path d="M39.94,50.81l.05,0c.1.15.16.21.29.39-.06-.07,0,0-.14-.14a3.45,3.45,0,0,1-.23-.28S39.75,50.58,39.94,50.81Z" fill="#751b1b"/><polygon points="35.04 43.7 35.06 43.74 35.04 43.71 35.04 43.7" fill="#751b1b"/><polygon points="39.88 50.74 39.87 50.73 39.84 50.69 39.88 50.74" fill="#751b1b"/><polygon points="29.37 36.44 29.41 36.5 29.37 36.44 29.37 36.44" fill="#751b1b"/><path d="M40.37,51.37h0Z" fill="#751b1b"/><path d="M35.4,44.15v0Z" fill="#751b1b"/><polygon points="35.24 43.91 35.25 43.93 35.24 43.92 35.24 43.91" fill="#751b1b"/><path d="M35.2,43.82l0,.06S35.2,43.84,35.2,43.82Z" fill="#751b1b"/><path d="M36,44.89c0,.07,0,0,0,0S36,44.89,36,44.89Z" fill="#751b1b"/><path d="M36.33,45.29s0,.07,0,0S36.21,45.14,36.33,45.29Z" fill="#751b1b"/><path d="M35.62,44.34l0,0Z" fill="#751b1b"/><polygon points="35.99 44.85 36.06 44.94 36.03 44.91 35.97 44.83 35.99 44.85" fill="#751b1b"/><path d="M40.59,51.5c.13.14.13.18,0,.06S40.56,51.47,40.59,51.5Z" fill="#751b1b"/><path d="M40.44,51.28c.09.11.05.09,0,0S40.39,51.23,40.44,51.28Z" fill="#751b1b"/><path d="M40.89,51.84c.08.11,0,0,0,0S40.82,51.77,40.89,51.84Z" fill="#751b1b"/><path d="M41.88,53.06c0,.06.21.29.12.2A.71.71,0,0,1,41.88,53.06Z" fill="#751b1b"/><path d="M42.06,53.29s.08.11,0,0Z" fill="#751b1b"/><polygon points="41.98 53.18 42 53.21 41.98 53.19 41.98 53.18" fill="#751b1b"/><polygon points="42.07 53.29 42.11 53.35 42.06 53.28 42.07 53.29" fill="#751b1b"/><path d="M42,53.1c.05.07.08.11,0,0Z" fill="#751b1b"/><path d="M36.63,45.31l.12.13c.13.17.06.12,0,.06S36.62,45.31,36.63,45.31Z" fill="#751b1b"/><path d="M39.51,49.13c.05.06,0,0,0,0S39.38,49,39.51,49.13Z" fill="#751b1b"/><polygon points="38.62 47.83 38.56 47.78 38.57 47.77 38.62 47.83" fill="#751b1b"/><path d="M78.77,39.5c-.4-.08-.69-.48-1-.41-.38-.29-.69-.72-.5-.82l.48.1C78.09,38.75,78.83,39.29,78.77,39.5Z" fill="#751b1b"/><path d="M60.88,24a2,2,0,0,1-.62-.32c0-.08.1-.08.3,0S60.85,23.89,60.88,24Z" fill="#751b1b"/><path d="M62.67,28.59c-.33-.07-.4.05-.77,0A5,5,0,0,1,60,26.86c-.09-.15.16-.12.4,0a8.34,8.34,0,0,1,2.16,1.34C63.26,28.69,61.91,28.16,62.67,28.59Z" fill="#751b1b"/><path d="M53.54,20.62l.34.23c-.13,0-.73-.39-.91-.38l.54.51c-.18,0-.39-.19-.58-.31,0,.44-.65.19-.7.62l-.63-.5c-.32-.07-.29.14-.61,0-.43-.56-1.05-.49-1.7-.87a7,7,0,0,1-1.12-1A5.76,5.76,0,0,1,47,18.64l.11-.1c-.37-.26-.65-.35-.72-.27.07-.11-.59-.41-.73-.55-.32.08.16.63-.58.48a11.79,11.79,0,0,1-1.57-.72c0-.21-.72-.83-.65-.94.6.22.59-.17,1.47.34a2,2,0,0,0-.55-.61c-.47-.21-.25.15-.72-.06-.21-.43-.11-.51-.16-.85l-.43-.2c.75.12,0-.86.47-.78a14.79,14.79,0,0,1,3.39,1.25c.25.43,1.22.7,1.64,1,.09.15-.32.06.19.33.72.26-.17-.4.91.17A22.34,22.34,0,0,0,52,19c.9.61-.21.37.91,1,0-.19.31.18.59.29S53.68,20.57,53.54,20.62Z" fill="#751b1b"/><path d="M51.36,24.5c-.14,0-.51-.22-.74-.33-.66-.33-.53-.56-.49-.68a3,3,0,0,1,1.09.51C51.82,24.39,51.5,24.45,51.36,24.5Z" fill="#751b1b"/><path d="M43.86,18.18a.88.88,0,0,1-.63-.07A5.19,5.19,0,0,1,42,17.27c0-.2-.24-.49.4-.26S44.11,18,43.86,18.18Z" fill="#751b1b"/><path d="M57.37,32.53c-.12.31-.93-.3-1.59-.61-.36-.66-1.22-.52-1.59-1.14,0-.11,0-.24.33-.11.94.78,1.23.13,2.12.92A1.87,1.87,0,0,1,57.37,32.53Z" fill="#751b1b"/><path d="M51.4,26.72a2.31,2.31,0,0,1-1-.47c-.36-.27-.25-.4-.15-.45a2.05,2.05,0,0,1,1,.49C51.56,26.58,51.39,26.59,51.4,26.72Z" fill="#751b1b"/><path d="M47.65,23.54a3.22,3.22,0,0,1-.58-.3C46.74,23,47,23,47,22.92l.63.28C47.85,23.43,47.75,23.46,47.65,23.54Z" fill="#751b1b"/><path d="M49.76,26.16a4.33,4.33,0,0,1-1-.52c-.09-.2-.36-.52.2-.31a3.84,3.84,0,0,1,.88.49C50,26,50,26.15,49.76,26.16Z" fill="#751b1b"/><path d="M46.05,23c-.3-.05-.28.09-.27.22a4.75,4.75,0,0,0-1.25-.4c0-.23-.81-.58-1.25-.92s-.15-.83.88-.43c.63.43,1.79.84,1.71,1.18C45.89,22.73,45.79,22.79,46.05,23Z" fill="#751b1b"/><path d="M39.12,16.86,38.6,17c-.82-.35-1.81-1.14-2.24-1.32-.12-.26.53-.28-.38-.82-.19-.33.05-.44.62-.28,1.36.62,1.31,1.45,2.59,1.9C38.83,16.41,38.8,16.53,39.12,16.86Z" fill="#751b1b"/><path d="M48.57,25.88a4.56,4.56,0,0,1-.93-.28c-.13-.18-.46-.44-.67-.67a2.32,2.32,0,0,1,1.14.32C48.53,25.5,48.79,25.85,48.57,25.88Z" fill="#751b1b"/><path d="M47.58,26.37c-.76-.42-.48-.53-.79-.86.06-.07.23-.05.51,0a3.21,3.21,0,0,1,.93.66C48.33,26.5,47.66,26.21,47.58,26.37Z" fill="#751b1b"/><path d="M51.69,31.22c-.23.05-.58-.27-.89-.45-.16-.2-.17-.33.08-.3C51.41,30.6,52.05,31.17,51.69,31.22Z" fill="#751b1b"/><path d="M41.67,24.11c-.21,0-.8-.45-.65-.52l.67.27C41.71,24,41.88,24.14,41.67,24.11Z" fill="#751b1b"/><path d="M72.51,59.68s-.08,0-.16-.07h.13C72.56,59.66,72.48,59.64,72.51,59.68Z" fill="#751b1b"/><path d="M48.7,36.3C48,36,46.63,35,46.85,35.54c.69.83-.58.35-.48.82-.37-.28-.88-.49-.93-.29,0,0,.08.2.22.32a14.11,14.11,0,0,0-2.13-1.18c-.79-.63-1.83-1.5-2.35-1.84-.27-.13.13.19-.22,0,.24-.1-.17-.67-.26-1l-.28-.12c-.43-.5,0-.51.32-.54.07-.09-.42-.37-.49-.46.09,0,1.22.67,1.2.39l-.51-.53c.41.26.58.6,1.07.75a1.5,1.5,0,0,1,.4,0c.68.56,1.53.63,2.24,1.25.05.33.83.66,1.26.87l-.49-.12A6.75,6.75,0,0,1,47,35.07L46.68,35A14.78,14.78,0,0,0,48.7,36.3Z" fill="#751b1b"/><path d="M47.54,35.4l0,0,.54.27S47.69,35.46,47.54,35.4Z" fill="#751b1b"/><path d="M44.5,32.84a.82.82,0,0,1-.3-.18A.4.4,0,0,1,44.5,32.84Z" fill="#751b1b"/><path d="M27.58,12.45c-.51-.38.07-.13.17-.16C28,12.5,28,12.65,27.58,12.45Z" fill="#751b1b"/><path d="M43,32.13l-.08,0L43,32C43,32.08,43,32.11,43,32.13Z" fill="#751b1b"/><path d="M46.75,36.88c0-.06-.32-.27-.09-.15S46.76,36.86,46.75,36.88Z" fill="#751b1b"/><path d="M46.81,37.84a.38.38,0,0,1-.16-.06h.13C46.85,37.83,46.81,37.82,46.81,37.84Z" fill="#751b1b"/><path d="M43.52,35.57l-.08,0,0-.1C43.54,35.52,43.57,35.56,43.52,35.57Z" fill="#751b1b"/><path d="M41.3,35.59c.64.51-.32.2,0,.62.05,0-.67-.59-.79-.47s.43.38,0,.24c.08-.13-.57-.64-.84-.79l-.11.1c-.23-.45-.64-1.06.06-.9s.81.56,1.45.8C40.65,35.07,41.55,35.63,41.3,35.59Z" fill="#751b1b"/><path d="M33.84,28.15c-.07.06-.45-.15-.58-.31S33.77,27.9,33.84,28.15Z" fill="#751b1b"/><path d="M43.67,38.44c-.09,0-.19.06-.48-.18s.05-.17.32,0A.37.37,0,0,0,43.67,38.44Z" fill="#751b1b"/><path d="M34.3,36.15c.69.5.42.84,1.44,1.57-.23-.25-.88-.58-.74-.65.29.4-1-.29-.9.14-.78-.51-1.22-.81-2.17-1.34A1.83,1.83,0,0,0,31.2,35h-.12c0-.27.28-.25-.42-.86l-.16-.07c.33.09.33.22.75.44-.13-.17.31,0,0-.26.52.17,1.21.52,1.49.44C32.66,35.1,34.72,36,34.3,36.15Z" fill="#751b1b"/><path d="M31.46,33.6c-.19-.13-.4-.32-.23-.29a1.25,1.25,0,0,1,.52.32S31.61,33.67,31.46,33.6Z" fill="#751b1b"/><polygon points="34.22 37.4 34.31 37.4 34.44 37.54 34.22 37.4" fill="#751b1b"/><polygon points="30.86 35.18 30.91 35.15 30.94 35.2 30.86 35.18" fill="#751b1b"/><path d="M31.54,36.82c-.17,0-.47-.36-.62-.44C31.11,36.49,31.32,36.68,31.54,36.82Z" fill="#751b1b"/><path d="M29.4,35.07a1.92,1.92,0,0,0,.6.36c-.53-.1.46.56.73.85-.56,0-.17.6-.41.84a.37.37,0,0,0,.2.08c-.84-.45-.92-.16-1.42-.26-.05-.27-.55-.34-.76-.4.38.37.25.54.18.62l-.16-.35a5.72,5.72,0,0,0-1-.74c.06.09,0,.17-.15.08s-.09-.15-.08-.2c-.55-.37-.84-.42-1-.37a9.52,9.52,0,0,0-1.78-1.75L24,33.74c.38.19.1-.2.23-.22-.9-.67.07-.56-.68-1.19.83.35.58-.06.95-.1l-.08,0c.64-.09,2.19.92,3,1.12.32.44,1.14.78,1.48,1.29l.69.35C29.74,35.12,29.07,34.7,29.4,35.07Z" fill="#751b1b"/><path d="M30.86,37.38l.13.16Z" fill="#751b1b"/><path d="M31.05,37.82l.3.32Z" fill="#751b1b"/><polygon points="10.58 17.64 10.61 17.68 10.25 17.57 10.21 17.54 10.58 17.64" fill="#751b1b"/><path d="M13,20.19a1.1,1.1,0,0,1-.36-.31A.57.57,0,0,1,13,20.19Z" fill="#751b1b"/><path d="M30.54,38.86l.08.16Z" fill="#751b1b"/><path d="M28.5,37.7c-.2-.22.21-.12.05-.32C28.48,37.46,28.83,37.79,28.5,37.7Z" fill="#751b1b"/><polygon points="27.52 36.69 27.54 36.62 27.64 36.72 27.52 36.69" fill="#751b1b"/><path d="M30.56,40.16c-.36-.13-.36-.26-.27-.28S30.73,40.19,30.56,40.16Z" fill="#751b1b"/><polygon points="28.6 38.29 28.57 38.1 28.63 38.2 28.6 38.29" fill="#751b1b"/><path d="M20.89,34.2c0,.18-.47-.06-.85-.26s-.5-.53-.83-.6c.06-.09-.07-.53.69-.15S21.05,34.07,20.89,34.2Z" fill="#751b1b"/><path d="M22.2,36.2c.54.27.13.32.64.51.43.48-.14.36.45,1-.46-.37-.68-.18-.28.09-.87-.47-1.25-.53-2.07-1-.3-.32-.44-.72-1.11-1,.12-.09.15-.36-.33-.66a5.91,5.91,0,0,1,1.49.25c.31.14,1.1.89,1.32.75C22.29,36.18,22.14,36.11,22.2,36.2Z" fill="#751b1b"/><path d="M2.64,17.4c-.36-.13-.54-.24-1-.4-.55-.36-.32-.41-.88-.78.1-.21.09-.35.82,0,.31.17.51.38.77.55C2.94,17.23,2.48,17.16,2.64,17.4Z" fill="#751b1b"/><polygon points="22.83 38.14 22.74 37.98 22.91 38.16 22.83 38.14" fill="#751b1b"/><path d="M8.56,24.76c-.2-.06-.39-.17-.55-.22-.51-.38-1-.72-.88-.94.17,0,.13-.15.55.07a6,6,0,0,1,.8.57C8.59,24.47,8.85,24.8,8.56,24.76Z" fill="#751b1b"/><path d="M11.64,28.45c.43.35.34.5.53.76a2.56,2.56,0,0,1-1-.31c-1-.51-.46-.7-1.1-1.22a15.56,15.56,0,0,1,1.65.79Z" fill="#751b1b"/><path d="M28.73,46.86a.75.75,0,0,1-.18-.14l.23.1C28.81,46.88,28.77,46.87,28.73,46.86Z" fill="#751b1b"/><path d="M1.34,19a1.93,1.93,0,0,1-1.1-.59C-.11,18.09,0,18,0,17.91a3.06,3.06,0,0,1,1.17.64C1.32,18.73,1.62,19.05,1.34,19Z" fill="#751b1b"/><path d="M21.14,40.51l-.35-.16Z" fill="#751b1b"/><path d="M17.43,37.18c-.17-.18-.62-.58-.33-.54s.63.38.9.54C17.78,37.16,18,37.49,17.43,37.18Z" fill="#751b1b"/><path d="M37.28,23.83a5.3,5.3,0,0,0,.92.85c-.2-.05-.61-.33-.52-.16.2.44,0,.72.94,1.47a6.76,6.76,0,0,0-1.06-.81c-.25,0-.4.05-.37.27-.11-.24-.5-.24-.65-.33-.6-.05.07.76-.32.79-.15-.29.24-.47-.46-1s-1-.23-1.38-.36c-.07,0,.1,0,.11-.09-.61-.34-1.36-1-1.73-.91A18.39,18.39,0,0,1,30,20.74c.18-.23.6-.32.85-.51-.11-.08-.25-.19-.4-.28,1,.43,1.9.54,2,.34.52.19.18.31.77.56a4.11,4.11,0,0,0,1.07.42c1.07.78,1.66,1.18,2.75,1.89C36,22.73,37.77,24,37.28,23.83Z" fill="#751b1b"/><path d="M27.09,47.63c-.11-.08-.12-.06-.16-.07l1.13,1.19-.29-.19a9,9,0,0,1,.35,1.15c-.47.23-1.95-.53-2.51-.45-.71-.38,0-.17-.33-.49-.22-.13-.74-.61-.57-.29-.29-.35-.68-.64-1-1l-.33-.08a2.46,2.46,0,0,0-.79-1c-.29-.06.08.29-.31.14.52,0-.24-.8.22-.86L22,45.44c.15-.08.9.34.6-.09l-.26-.16c.51,0,1.33.39,1.95.51A10.6,10.6,0,0,1,27.09,47.63Z" fill="#751b1b"/><path d="M14.17,34.23a1.72,1.72,0,0,1-.46-.22c-.31-.28-.25-.36,0-.29S14.23,34.17,14.17,34.23Z" fill="#751b1b"/><path d="M15.73,36c-.06,0-.19-.11-.26-.16s0-.14.28.06S15.77,36,15.73,36Z" fill="#751b1b"/><path d="M19.88,41.81,20,42Z" fill="#fff"/><path d="M20.28,42.66c-.37-.22-.29-.32-.13-.3S20.38,42.64,20.28,42.66Z" fill="#751b1b"/><polygon points="25.86 49.16 25.9 49.2 25.62 49.11 25.58 49.07 25.86 49.16" fill="#fff"/><polygon points="21.48 44.82 22.18 45.12 21.74 44.98 21.48 44.82" fill="#751b1b"/><path d="M26.11,49.92a.76.76,0,0,1-.31-.26C25.92,49.7,26.13,49.87,26.11,49.92Z" fill="#751b1b"/><path d="M24.74,49l-.16.08Z" fill="#751b1b"/><path d="M23.3,47.9c-.31-.26-.1.05-.15.06-.5-.5.32,0,.05-.43C23.32,47.7,23.51,47.94,23.3,47.9Z" fill="#751b1b"/><path d="M28.27,59.91c-.66-.16-.08.7-.67.52-.05-.06,0-.1-.18-.21,0,.48-1.28-.74-1.2-.22L26,59.68a.88.88,0,0,0-.64-.21c0-.07.18,0,.08-.15a8.17,8.17,0,0,1-1.34-1.08.51.51,0,0,0,.15.07,2.55,2.55,0,0,1-.71-1c-.2-.15-.31-.14-.35-.11.88.35,0-.91,1.3-.29-.22-.39.56.14.85.21a2.8,2.8,0,0,1,1.07.63A6.87,6.87,0,0,1,28.27,59.91Z" fill="#751b1b"/><path d="M9.74,33.41A1.58,1.58,0,0,1,9.07,33c-.15-.23.13-.13.39,0S9.72,33.33,9.74,33.41Z" fill="#751b1b"/><path d="M26.19,52.21l.11.21Z" fill="#751b1b"/><path d="M15,40l-.08,0,.06-.06C15.08,40,15,40,15,40Z" fill="#751b1b"/><path d="M14.43,40l-.07-.05.24.08C14.62,40.05,14.47,40,14.43,40Z" fill="#751b1b"/><path d="M12.91,38.76l-.28.06a14.81,14.81,0,0,0-1.05-1.06c.28.1.08-.25.69.05a3.68,3.68,0,0,1,.85.66C13.12,38.62,13.62,39.29,12.91,38.76Z" fill="#751b1b"/><polygon points="28.33 61.44 28.26 61.34 28.34 61.42 28.33 61.44" fill="#751b1b"/><polygon points="13.12 38.92 13.16 38.94 13.26 39.05 13.12 38.92" fill="#751b1b"/><polygon points="48.78 80.25 48.68 80.05 48.79 80.23 48.78 80.25" fill="#751b1b"/><path d="M11.32,37.32l-.1,0Z" fill="#751b1b"/><path d="M27,60.4l0,.17Z" fill="#751b1b"/><polygon points="27.41 61.23 27.41 61.12 27.42 61.17 27.41 61.23" fill="#751b1b"/><path d="M27.48,61.63c-.07,0-.12-.08-.17-.14S27.47,61.57,27.48,61.63Z" fill="#751b1b"/><path d="M24.57,58.76c-.19-.17.07,0,.13,0S24.61,58.76,24.57,58.76Z" fill="#751b1b"/><path d="M23.42,57.74c.19,0-.05-.27.13-.17C23.58,57.69,23.91,58.08,23.42,57.74Z" fill="#751b1b"/><path d="M25.91,60.36l-.16.06Z" fill="#751b1b"/><polygon points="24.61 58.95 24.38 58.7 24.5 58.74 24.71 58.98 24.61 58.95" fill="#751b1b"/><path d="M10.07,37.85c-.54-.25-.45-.53-.1-.26C10.14,37.75,10.2,37.86,10.07,37.85Z" fill="#751b1b"/><path d="M10.57,38.52c-.36-.25-.17-.31.11-.09C10.7,38.51,10.76,38.61,10.57,38.52Z" fill="#751b1b"/><path d="M8.88,37.15c-.33-.23-.05-.12,0-.11S9.15,37.27,8.88,37.15Z" fill="#751b1b"/><path d="M5.07,34.38c-.07-.23-.79-.74-.38-.65C5,34.06,5.11,34.24,5.07,34.38Z" fill="#751b1b"/><path d="M4.4,33.83c.11.06-.32-.26-.05-.12Z" fill="#751b1b"/><polygon points="4.65 34.16 4.6 34.04 4.66 34.14 4.65 34.16" fill="#751b1b"/><polygon points="4.27 33.96 4.15 33.77 4.31 33.97 4.27 33.96" fill="#751b1b"/><path d="M4.24,35c-.22-.13-.31-.28-.09-.15S4.21,34.91,4.24,35Z" fill="#751b1b"/><path d="M21.18,59.77l-.5-.23c-.47-.45-.13-.52.1-.44C21.33,59.45,21.25,59.69,21.18,59.77Z" fill="#751b1b"/><path d="M11.13,49.21c-.18-.14-.09-.16,0-.19C11.38,49.11,11.63,49.56,11.13,49.21Z" fill="#751b1b"/><polygon points="13.91 53.39 14.16 53.43 14.09 53.53 13.91 53.39" fill="#751b1b"/></g><g opacity="0.78" style="mix-blend-mode:color-burn"><path d="M264.52,59.27l-2.2,0a6.64,6.64,0,0,1,1.11.27A1.64,1.64,0,0,0,264.52,59.27Z" fill="#751b1b"/><path d="M260.29,59.19h-.39l-.33.06Z" fill="#751b1b"/><path d="M256.47,59.39a15.71,15.71,0,0,0,1.95,0A8.61,8.61,0,0,0,256.47,59.39Z" fill="#751b1b"/><path d="M259.52,59.57c-.24-.11-.35-.23,0-.31h0l-1.15.11A6.33,6.33,0,0,1,259.52,59.57Z" fill="#751b1b"/><path d="M259.52,59.57c.22.11.58.21.71.27A5.27,5.27,0,0,0,259.52,59.57Z" fill="#751b1b"/><path d="M258.55,62.24c-.38.08-.29-.67-1.06-.5a42.5,42.5,0,0,1-5,.55c-.76.17-2-.67-2.72-.5C248,62,243.41,63,246.1,63c4.06-.11,6.7-.31,10.34-.45,3-.31,5.81-.67,8.83-.94a21.74,21.74,0,0,1,2.44.07c-1-.11-2.1-.23-3.29-.34C262.87,61.1,261,62.07,258.55,62.24Z" fill="#751b1b"/><path d="M280.68,59.73l-1.14.25a12.51,12.51,0,0,0-5.28-.12l.79.38c1,0,1.14-.25.23-.42a23.25,23.25,0,0,0,6.07.45C281.22,60.07,281.25,59.83,280.68,59.73Z" fill="#751b1b"/><path d="M282.53,60.21c-.39,0-.79,0-1.18.06a.43.43,0,0,0,0,.07l1.19-.11Z" fill="#751b1b"/><path d="M248.37,60.08c-5.09,0-9.87,0-14.54-.08a1.64,1.64,0,0,1-1.09.23,5.69,5.69,0,0,0-1.1-.27l-2,0-.72.06h0c-.38.09-.27.2,0,.32a5.27,5.27,0,0,1,.71.27c-.13-.06-.48-.17-.71-.27a5.34,5.34,0,0,0-1.1-.22,12.58,12.58,0,0,1-1.95,0,8.61,8.61,0,0,1,1.95,0l1.15-.1.33-.07-4.65-.11-1,.06a5.79,5.79,0,0,1-2.94-.16l-.83,0,.16.06-.31-.07-3.52-.09c-.76.14-1.55.32-2.33.42l-.79-.37a3.4,3.4,0,0,1-1.31.37c.63.23,1.21.48,1.75.63.79.38,1.76-.75,2.69,0-.93-.71-1.9.42-2.69,0-.54-.15-1.12-.4-1.75-.63a9.45,9.45,0,0,1-3.71-.36,6.52,6.52,0,0,1,3.71.36,3.4,3.4,0,0,0,1.31-.37l.79.37c.78-.1,1.57-.28,2.33-.42l-7-.2c-15.27-.48-29.36-.39-45.21-.75-8.58-.22-16.83-.54-24.92-1-16.13-.88-30.85.13-47.15-1.78C85.61,55.2,74,55.56,68,55.64c-8.08,1.26-3.89,4.5-3.51,4.68,5,2.77,8.85,1.23,19,2.85-6.89-.92,5.08-1.77,11.59.12,9.42,2.88,22.85.58,34.47,1.31,2.91.19,6,.06,9.47.12,18,1,34.73-.24,53.66,0,5,0,9.43-.71,13.65-1.09,3.09-.13,6.39.24,8.89.24a101.65,101.65,0,0,0,10.6-.61c-3.64.14-6.29.34-10.34.46-2.71,0,1.87-1,3.66-1.18.77-.17,2,.67,2.74.5a43.13,43.13,0,0,0,5-.56c.77-.17.68.59,1.06.51,2.44-.17,4.32-1.14,5.87-.94l3.29.35a19,19,0,0,0,2,0l1.32-.19a1.57,1.57,0,0,1-.6-.79c.65,0,1.56.2,2.2.25-.64,0-1.55-.21-2.2-.25a1.57,1.57,0,0,0,.6.79c3.21-.44,6.91-.84,10.35-1.16a.43.43,0,0,0,0-.07,23.25,23.25,0,0,1-6.07-.45c.91.16.8.37-.23.42l-.79-.38a12.35,12.35,0,0,1,5.28.12l1.15-.26c.56.11.54.35.66.55l1.18-.06A24.32,24.32,0,0,0,248.37,60.08Z" fill="#751b1b"/><path d="M227.68,60.06l1-.06-3.91-.1A6,6,0,0,0,227.68,60.06Z" fill="#751b1b"/></g></g></g></g></g></svg>