<svg xmlns="http://www.w3.org/2000/svg" viewBox="0 0 28.73 57.22"><title>next</title><g id="圖層_2" data-name="圖層 2"><g id="_1920x1080" data-name="1920x1080"><g id="wordOnPaper"><path d="M1.92,5.2A7.83,7.83,0,0,0,3.18,6.51c.95.82,1.14,2,2.1,2.81,1.21,1,1.77,2.45,2.94,3.53A44.16,44.16,0,0,1,14.4,19.2c3.25,4.52,6.52,8.35,9.39,12.93l.1.16c0,.06.08.12.07.12v.25a.31.31,0,0,1-.08.19.86.86,0,0,1-.27,0h-.09l-.06,0-.08.07-.33.27c-.87.73-1.72,1.49-2.52,2.26-1.71,1.65-5.49,4.65-6.52,6.54a43,43,0,0,1,6.31-5.39c-4.23,4.1-8.77,8.24-12.61,12.63a106.49,106.49,0,0,1,9.32-9q2.46-2.07,5-4c.85-.63,1.71-1.25,2.57-1.85l.3-.21.25-.15.54-.34L26.92,33c-.35-.67-.82-1.52-1.37-2.49s-1-1.86-1.5-2.8c.58.82,1.18,1.66,1.78,2.52l2,2.83-3.38,2.62c-1.07.83-2.15,1.67-3.23,2.53C19.1,40,17,41.73,14.89,43.55A72.18,72.18,0,0,0,4.14,55a18.35,18.35,0,0,0-1.41,2.25,60.26,60.26,0,0,1,11.41-12.6c2.25-1.95,4.6-3.84,7-5.65q1.77-1.36,3.53-2.67l.88-.66L26,35.3l.53-.41,2.25-1.75L27.4,31.3l-.71-1-.29-.41-.25-.35a158.54,158.54,0,0,0-10-13.29c-.93-1.22-1.89-2.41-2.86-3.6-2-2.43-4-4.85-6.16-7.14C5.19,3.5,1.9-.22,0,0,.54.72,1.33,1.35,1.81,2.07a6.91,6.91,0,0,1-1-.55,5,5,0,0,0,.76.82,1.24,1.24,0,0,0-.7-.29A4.42,4.42,0,0,0,2,2.93c.17.11,1.07.58,1.19.82a16,16,0,0,0-2.11-1c.15.19.32.36.45.56-.3-.13-.71-.52-.95-.5.4.43.83.76,1.22,1.23a7,7,0,0,0,1,1,6.77,6.77,0,0,0-1.51-1,2.2,2.2,0,0,0,.53.61.16.16,0,0,0-.1,0c.08.08.15.23.24.32s0,.08-.09.09l.07-.06" fill="#843333"/></g></g></g></svg>