<svg xmlns="http://www.w3.org/2000/svg" viewBox="0 0 16.03 23.38"><title>numbers-8</title><g id="圖層_2" data-name="圖層 2"><g id="wordOnPaper"><path d="M10.55,0a2.71,2.71,0,0,1,1.73.69,8.5,8.5,0,0,1,1.6,1.25,3.26,3.26,0,0,0,.69.91,1.55,1.55,0,0,0,.41,1,2.41,2.41,0,0,1,.36,1.53,1.09,1.09,0,0,1-.22.62v.91a2.1,2.1,0,0,0-.42.83l-.82.77c-.21,0-.52.25-.91.75L11,10.2v.14q1.34.35,4,2.91a3.64,3.64,0,0,0,.7,1.11l.35,1.8a6.61,6.61,0,0,1-1,3.34A8.88,8.88,0,0,1,13.47,21h-.16c0,.26-.27.56-.82.89,0,.4-.81.74-2.43,1a6.19,6.19,0,0,1-2.23.48A11.71,11.71,0,0,1,3.4,22.33a2.22,2.22,0,0,1-1.6-.89A4,4,0,0,1,.14,18.66,3,3,0,0,1,0,17.55a3,3,0,0,1,.41-1.66,2.17,2.17,0,0,1,.77-1.25q0-.46,1.53-1.53c0-.15.3-.33.9-.55a2.13,2.13,0,0,1,.91-.69v-.22Q1.33,8.79,1.32,8.12A5.48,5.48,0,0,1,.83,6.17c.36-1.91.67-2.9.9-3A6.36,6.36,0,0,1,5.27.48Q6.05,0,10.55,0ZM5.69,12.35c-.13.37-.25.55-.35.55-.42,0-.93.79-1.53,2.36a4.41,4.41,0,0,0-.55,2.29v.28L4,19.91a2.26,2.26,0,0,0,.77,1.32,6,6,0,0,0,2.56,1.1h.14l3-.76c1.34-1.13,2-1.85,2-2.14l.14-1.53a3.73,3.73,0,0,0-1.19-2.71l-.89-.83A17,17,0,0,1,8.4,12.9L8,13a2.43,2.43,0,0,1-.82-.48l-.49-.07-.07.07H6.53ZM4.59,3.68c0,1.91.34,3.11,1,3.6A7,7,0,0,0,8.19,9.43L9,9.78h.14A4.82,4.82,0,0,0,11.23,8,3.14,3.14,0,0,0,12,6.8l.34-1.32L12,4.16l-.14-.83V2.71A2.76,2.76,0,0,0,9.78,1.25c0-.09-.35-.18-1-.27a4.06,4.06,0,0,0-2.85,1c-.22.07-.61.52-1.17,1.32Z"/></g></g></svg>