<svg xmlns="http://www.w3.org/2000/svg" viewBox="0 0 16.91 25.84"><title>numbers-7</title><g id="圖層_2" data-name="圖層 2"><g id="wordOnPaper"><path d="M.3,23.38H.44l.15.15v.07l-.22.22H.15L0,23.68ZM.74,0h.53l.67.07L2.23,0l.46.07L2.91,0,3,.07C3,.22,2.9.3,2.75.3V.37h.09L4.32,0H6a23.87,23.87,0,0,1,3.2.15L16.38,0c.35.06.53.17.53.3V.74c0,.2-.51.57-1.49,1.12L13.63,3.72a3.24,3.24,0,0,1-.89,1.5L11.69,6.48,10.51,8.87a4.34,4.34,0,0,0-.38,1.55l-1,1.72-.07.22.07.44a1.9,1.9,0,0,1-.51,1.13l-.09,1.64.09.59c-.13,2.44-.28,3.65-.46,3.65v.07l.07.3L8,20.93h.08c.2,0,.29.1.29.22v.15c0,.15-.09.22-.29.22l.6.89v.09l-.16.14L8,22.19c0,.65-.07,1-.22,1H7l-.76.07-.07-.07V24L6,24.12,6,24.05v-.23L6,23.45H5.88v-.07L6,23.16H5.88a1.68,1.68,0,0,1-.74.29l-.07-.07c0,.35.09.52.29.52V24a.66.66,0,0,1-.66.45l.15.23-.09.06H4.47l-.15-.13v-.24c0-.1.15-.17.44-.22L4.7,23.6v-.15H4.47q0,.45-.15.45H4.24l-.14-.15.07-.07V23.6l-.37-.07.07.07v.08l-.15.14H3.65l-.22-.22c0-.25,0-.37.15-.37l-.08-.29H3.28l.07.37L3,23.68H2.84l-.09-.08-.22.08.07.07v.07c0,.13-.25.23-.74.3v.07l.15.23-.07.07H1.79c-.26,0-.41-.07-.45-.22v-.08l.52-.37c0-.09.1-.14.3-.14l-.08-.37v-.08h.15l.23.15h.38l.07-.22-.07-.22h.07l-.22-.44v-.09l.15-.22-.09-.06-.37.06H2.31L2.08,22H2c0,.1-.12.15-.37.15l.07.07v.09c-.11,0-.19.12-.22.37l.3.29-.15.15H1.49c-.26,0-.41-.08-.44-.22l.22-.22v-.15l-.15-.22v-.09A.59.59,0,0,1,1.64,22v-.08l-.07-.07v-.08l.22-.14h.29l.3.22H2.6a1.14,1.14,0,0,0,.68-.59l-.15-.15v.15H2.91l-.16-.15.22-.3-.06-.38L3,20.34h.16l.22.15a1.69,1.69,0,0,0,.37-1.27,11.58,11.58,0,0,1,1-3.28,8.21,8.21,0,0,1,1.11-2.68,4.16,4.16,0,0,1,.74-1.42A12.21,12.21,0,0,0,7.67,9.09a31.4,31.4,0,0,1,4.85-7.15l-1-.15H11.1l-.75.07L9,1.71l-.3.08L8,1.71H7.23l-.9.23H6l-.6-.15H4.92l-.22.15H2.6c-.79.17-1.18.41-1.18.74-.17.06-.49.53-1,1.42L.3,4V.22C.35.07.5,0,.74,0Zm.75,25.39h.08c0,.26-.08.41-.23.45l-.14-.15Zm.89-4.9.08.07v.06l-.15.16-.08-.07v-.09Zm.9,3.93h.07c.1,0,.15.1.15.29.14,0,.22.05.22.16V25c0,.12-.22.24-.66.37v-.08L3,25,3.21,25l-.08-.37Zm1.11.82.08.08v.07L4,25.84l-.15-.15C3.87,25.6,4,25.45,4.39,25.24Zm4.85-3.42.15.15-.15.16L9.09,22Z"/></g></g></svg>