<svg xmlns="http://www.w3.org/2000/svg" viewBox="0 0 19.77 24.89"><title>numbers-6</title><g id="圖層_2" data-name="圖層 2"><g id="wordOnPaper"><path d="M11.73,0h.63a3.81,3.81,0,0,1,2.21.47c2,.83,3,1.52,3.08,2.05.2,0,.41.56.62,1.5,0,.22-.54.62-1.57,1.18l-.87.56h-.08V5.67l.08-.23-.23-.08-.23.08.15.55-.09.08h-.31l-.62-.31V5.67l.07-.08h.08l-.08-.07V5.44l.24-.4h-.55L14,5.2c-.08,0-.16-.1-.24-.31h-.15c-.21.07-.32.15-.32.23.16,0,.24.11.24.32a2.58,2.58,0,0,1,.63,1c-.12,0-.25.24-.4.71l-.32.07c-.24,0-.37-.18-.38-.55L12.13,6V5.91a.9.9,0,0,1,.95-.79c-.05-.37-.21-.55-.48-.55l-.15-.23V4.25l.08-.08c.22-.36.45-.54.7-.55,0-.42.13-.68.4-.78h.23l.09.08a2.07,2.07,0,0,0,.78-.63V2.2a1.16,1.16,0,0,1-.78.4l.47-.4a.28.28,0,0,0-.32-.31l.08-.07V1.65c-.08-.18-.48-.36-1.18-.55h-.24l-.23.17H11.11Q7.6,2.61,6.54,5c-.12.57-.25.86-.4.86L5,5l-.15.16C5.62,5.79,6,6.26,6,6.62l-.4.7.08.32a7,7,0,0,0-.31,2v.15l.15.17L7.17,8.74A9.46,9.46,0,0,1,9.61,8l.23-.16.72.08.87-.24a10.75,10.75,0,0,1,3.94,1,2.59,2.59,0,0,1,1.41.79q.21,0,1,.87.15,0,.87.78c.35,0,.72,1.16,1.1,3.47V16.3A10.59,10.59,0,0,0,18.59,19a8.23,8.23,0,0,0-1.5,2.12,3.42,3.42,0,0,0-1.17,1.73h-.09v-.38a1.24,1.24,0,0,0-.55.77H15.2V23a.91.91,0,0,0,.17-.64l.23-.08L15.52,22c-.2,0-.54.72-1,2.12h-.17a3.69,3.69,0,0,1,.48-1.4v-.17l-.79.64H14v-.24h-.17l-.23.16h-.09l.09-.07v-.24l-.32.24v-.09l.08-.08v-.07h-.08L12,23.08H10.79l-.71.08-.79-.08H8.43l-1.26-.31-.55.46v-.07l.24-.47H6.69l-.23.15-.32-.15-.47.23H5.36l-.24-.23q.32,0,.39-.48H5.44l-.24.16a.81.81,0,0,0-.86-.63H4.25c0,.08.19.19.55.32v.08H4.72l.32.55-.47.39v.23l.08.23-.08.09H4.49l-.32-.24c-.09.37-.2.55-.31.55H3.79a.51.51,0,0,1-.55-.47c-.17,0-.35-.15-.56-.46v-.24l.39-.4L2.68,22l.07-.06v-.09c-.31,0-.47-.13-.47-.4H2.2c-.12.37-.22.55-.31.55a1.06,1.06,0,0,1-.24-.62,1.31,1.31,0,0,0,.79-.48H2.6l-.08-.55H2.44l-.24.17V20.4L2.44,20H2.05l.15-.32a2.35,2.35,0,0,1-.93-1.42,3.31,3.31,0,0,1-.8-2.52L0,14c.25-2.22.51-3.46.78-3.71a13,13,0,0,1,.56-2.36l.48-1.26a2.66,2.66,0,0,1,.93-1.5l.72-.87a6.67,6.67,0,0,1,2.9-2.43A10,10,0,0,1,11.43.23ZM2.12,22.14l.08.07v.08c0,.21-.18.32-.55.32l.08.08v.15l-.23.24H1.42l-.08-.56Zm-.55-1.42h.08v.15L1.5,21,1.42,21v-.09Zm.63,2.44h.08l.16.15-.16.16H2.12L2,23.31Zm.17,1.17h.07l.16.16-.23.16-.17-.16Zm.38-3v.07l.17.17c0-.11.08-.17.23-.17v-.07Zm.79,2.83.08.08v.23l-.38.4-.09-.08v-.4C3.15,24.29,3.28,24.21,3.54,24.18Zm0-3v.08l.16.32h.09L4,21.35l-.16-.16Zm.16,1.73V23c0,.09.13.16.39.22L4,22.84l.15-.15.24.08v-.08l-.16-.17Zm.09-1.1.07.24H4l.07-.24Zm1.17,2H5l.16.16L5,24.09,5,24ZM10.79,9.06c0,.12-.39.2-1.18.23a7.26,7.26,0,0,0-2.92,1.89,7.34,7.34,0,0,0-.62,1.67,1.58,1.58,0,0,0-.56,1.33v.63l-.15.24v.32A13.19,13.19,0,0,0,6,18.67h.08l.39-.23c.68.21,1,.39,1,.55l-.25.15H7.09L6.86,19H6.77v.08a1.14,1.14,0,0,0,1,.78l.55-.23-.07-.08v-.17c0-.15.24-.28.71-.38l.55.63c.26,0,.4.11.4.32s-.32.46-.55.46L9,20.24l-.09.08L8.74,20H8.51l-.08.31.31.17v.15c0,.08-.23.21-.7.4.13.31.31.47.55.47l-.08.08v.15a3.71,3.71,0,0,0,1.65.55h.72c1.41-.54,2.12-1.12,2.12-1.73a9.5,9.5,0,0,0,2.05-4.49v-.15a13.67,13.67,0,0,0-.63-4l-.79-1.57A5.66,5.66,0,0,0,10.79,9.06Zm-5,15.27.07.08v.08l-.23.16-.08-.07v-.09Zm.56-.7v.15l-.17.16v-.16ZM6.86,20l.15.31h.08v-.23L7,20Zm.55.16v.07l.08.25-.32.07v.16l.32.24.23-.32-.16-.4.08-.07ZM7.79,18H8l.62.31a.53.53,0,0,1-.55.32H7.79l-.23-.23v-.17ZM9,21.66h.31l.17.16v.09H9.14L9,21.74Zm.63-3.14h.23v.15l-.31.08Zm.63-12.3h.15l.17.15c0,.09-.11.17-.32.25l-.08-.08V6.46ZM11.43,5h.15l.15.16-.07.08h-.08L11.43,5Zm2-1.34.15.17h.23V3.54Zm1.48,2.75.09.09v.08l-.09.08h-.07l-.08-.08V6.46l.08-.09Zm.95,16.55v.24h-.15v-.08Z"/></g></g></svg>