<svg xmlns="http://www.w3.org/2000/svg" viewBox="0 0 9.64 23.45"><title>numbers-1</title><g id="圖層_2" data-name="圖層 2"><g id="wordOnPaper"><path d="M.19,3H.26l.14.13L.26,3.3H.14L0,3.17ZM.92,1.32h.21c.06,0,.15.16.26.47L.85,2,.66,1.51ZM7.2,0h.39l.13.14V1l-.13.19v.28a1.57,1.57,0,0,1-.13.72A5.76,5.76,0,0,0,7.79,3.7c-.13,3.12-.27,4.68-.4,4.68l.07,1.26c.09,0,.13.07.13.2l.07,5.95.06.39-.13.4v.47l.07.66c-.11,0-.18.26-.2.78a1.39,1.39,0,0,0,.2.8v.52a3.63,3.63,0,0,0,1.39,3c.38.24.58.39.59.46v.06l-.14.14H2.24l-.13-.14v-.12A4,4,0,0,0,3.9,21.07a4.61,4.61,0,0,0,.4-1.33.65.65,0,0,1,.38-.19v-.14c-.13,0-.19,0-.19-.12h.07l-.26-.4v-.07h.26v-.07c-.31,0-.47-.06-.47-.19l-.12-3a9.06,9.06,0,0,1,.19-1.92L4,13.08l.07-.47L4,12.09l.07-.66L3.83,9.78,4,9.58V9.51l0-1L4,7.39V6.94a7.14,7.14,0,0,0-.45-2.31H3.43L3,4.75V5L2.71,5,2.64,5v0l.07.33-.07.07H2.57c-.09,0-.13-.06-.13-.19s-.19.17-.26.52c-.09,0-.13.07-.13.21L2,6.07H1.84l-.19-.19c.4-.35.59-.57.59-.66V5.08H2.18l-.4.14C1.16,5.14.85,5,.85,4.82V4.63q0-.24,1.26-.87l.13-.13L1.91,3.1l-.26.07.07.07V3.3l-.07.07H1.58c-.06,0-.17-.15-.33-.46.05-.27.11-.4.2-.4l.39.26h.21l.06-.33L2,2.31l.59-.13V2.12l-.33-.47.07-.19H2.24q-.33-.06-.33-.21c0-.06.09-.13.27-.19l.53.33-.14.45.27.34L3,2.12l-.13-.21V1.65H3c.07,0,.22.2.46.59l.14-.59-.14-.14c0-.06.09-.12.26-.19L4,1.65l-.39.4.13.13.14-.13L4,2.12l0,.19h.07C5.9.77,6.93,0,7.2,0Zm-5,3L2.24,3v.13l-.06.07V3.3h.13L2.44,3V2.91H2.38ZM2.84.59,3,.73,2.84.85H2.77L2.64.73Z"/></g></g></svg>