<svg xmlns="http://www.w3.org/2000/svg" viewBox="0 0 19.25 23.3"><title>numbers-3</title><g id="圖層_2" data-name="圖層 2"><g id="wordOnPaper"><path d="M10.28.4a11.57,11.57,0,0,1,3.65.52,2.34,2.34,0,0,0,1.27.61c.44,0,.66-.17.66-.4L15.74,1V.87l.12-.14.26.07L16.4.59l.12.14V.87c-.17,0-.26,0-.26.12s.21.05.21.14l-.28.19v.07a.93.93,0,0,1,.61.28l.12-.14-.07-.33.07-.07H17l.14.14H17l.07.05V1.6L17,1.67v.05h.07a.94.94,0,0,0,.52-.45h.07l.21.12h.33v.07c0,.09-.2.2-.61.33v.14h.14v.19c-.14,0-.4.27-.8.8a.89.89,0,0,0-.66.4c0,.08.13.19.4.33l.66-.19v.12l-.59.33a1.7,1.7,0,0,1,.19.87V5a2.59,2.59,0,0,1-1,1.86A11.38,11.38,0,0,1,12.8,9.76a2.2,2.2,0,0,1,1.08.66c1.49.62,2.24,1.08,2.24,1.39a1.52,1.52,0,0,1,.94.94l.14.85v.26a4.31,4.31,0,0,1,.38,1.41V16.4l-.45,1.46A3.93,3.93,0,0,0,16,19.65a2.52,2.52,0,0,0-1.2,1.06c-1.83,1.37-3.15,2.05-4,2.05L9,23.16l-2.32.14a7.46,7.46,0,0,1-2.13-.6l-1.26-.46a2.05,2.05,0,0,1-1.27-.8,2.41,2.41,0,0,1-1-1l.07-.07q0-.15-.54-.66l0-.47H.4l-.14.14.07.39v.06c-.16,0-.27-.35-.33-1.06,0-1.22.73-2.08,2.19-2.59a3.15,3.15,0,0,1,1.06-.12h.47a2.06,2.06,0,0,1,2,1.13l.07.38v.54c0,.46-.38.79-1.13,1l-1.2-.19H3.18a.84.84,0,0,0-.52.8v.45a2.82,2.82,0,0,0,1,.8l.4-.07a7.09,7.09,0,0,0,2.45.94,2.21,2.21,0,0,0,.87.13h.26l.47-.06.13.12c2-.36,3.06-.64,3.06-.85a2.7,2.7,0,0,0,1.91-2.47,1.12,1.12,0,0,0,.4-.85v-.07l-.12-.21v0l.19-.28V16.8c-.11,0-.2-.56-.26-1.67-.12-.53-.28-.8-.47-.8L13,14l-.66-1.13c-.49-.57-.8-.85-.94-.85a11.07,11.07,0,0,0-2.05-.28H9a6.84,6.84,0,0,0-3.12.87H5.25L5,12.75c-.2-.09-.31-.18-.34-.28V12c0-.13.38-.31,1.13-.54l2.39-1.32a5.28,5.28,0,0,0,3-1.8,2.45,2.45,0,0,1,.53-1.13,5.06,5.06,0,0,0,.46-1.39L12,5.37l.33-1.18.33-.61V3.51h-.07c0,.14-.09.25-.26.35h-.07c0-.14-.15-.21-.47-.21,0-.17-.21-.32-.52-.47,0-.32-.58-.7-1.73-1.13-.54,0-.8.08-.8.14L8.3,2.12H6.9A14,14,0,0,1,3.32,3a8.81,8.81,0,0,0-2.26.92H1V3.86q0-1.14,3.39-2.4l.07.07h.07a6.5,6.5,0,0,1,1.59-.4c.13-.28.5-.47,1.12-.59l.4-.07.93.07ZM15.6,1.53c0,.13-.27.19-.8.19v.07q.33.08.33.33l.33-.19.07.07h.07l.19-.07c-.09.17-.2.26-.33.26v.14h.07l.21-.07,0,.07-.12.33h.07l.52-.26V2.33l-.07-.07V2.19l.14-.14V2a.19.19,0,0,1-.21-.21l-.05.07h-.14V1.72h.14V1.67ZM15.27.47c.13,0,.19.18.19.4l-.19.19L15.06.8V.66Zm1.2,2-.61.47v.14h.26l.73-.54ZM16.59,0l.14.14-.26.12L16.4.19v0Zm2,.4.07.19.59-.12V.54c0,.12-.18.2-.54.26V.87h.21L19.11.8l.07.07V1q0,.15-.33.21L18.71.92h-.05l-.21.14A.83.83,0,0,1,17.93.8h-.07l-.66.4h-.07a2.34,2.34,0,0,1,.66-.73l.54.07Z"/></g></g></svg>