<svg xmlns="http://www.w3.org/2000/svg" viewBox="0 0 19.84 24.41"><title>numbers-2</title><g id="圖層_2" data-name="圖層 2"><g id="wordOnPaper"><path d="M8,1.27l.63.15.63-.15h1a8.49,8.49,0,0,1,2.6.62l.39-.07.08.23-.15.15v.09c.31,0,.47.1.47.31l1-.48h.08v.17c-.12,0-.22.1-.32.31q.79,0,1.89,1.26l.95,1.65c.14,0,.32.84.55,2.52v.4A5.3,5.3,0,0,0,17,10a9.83,9.83,0,0,0-1.57,2.28,5,5,0,0,0-1.41,2L6.54,21.19,5.82,22a1.23,1.23,0,0,0-.55.62l.09.09.46-.09.64.09.47-.09,1.58.17L9,22.59h4.57c2.15-.51,3.22-1,3.22-1.57a10.7,10.7,0,0,1,1.89-1,1.32,1.32,0,0,1,1.18.61v.25c0,.37-.81,1.29-2.44,2.76a1.66,1.66,0,0,1-1.65.78l-.87-.08-.08.08h-.08l-.7-.15-.09.07h-.08l-.47-.07-.86.15H10.86l-.23-.15h-.15l-2.77.15H6.46a2.67,2.67,0,0,1-1-.15l-4.19.15H1.1L.7,24v-.07a6.39,6.39,0,0,1,1.74-2.13,51.74,51.74,0,0,1,5.82-5.19A4,4,0,0,1,9.45,14.8,12.28,12.28,0,0,0,12,10.31l.4-.7V9.45l-.08-.39.15-1.65a7.25,7.25,0,0,0-1.1-3A2.88,2.88,0,0,0,9.45,3.22a8.33,8.33,0,0,0-1.89-.38L7.41,3H7.32c-1.68,0-2.51.42-2.51,1.26L4.72,5v1.1C4.72,7,4,7.57,2.6,7.88H2.52A2.52,2.52,0,0,1,0,6.37V6.22C0,5.67.42,5,1.25,4.34L2.44,3.15a2.55,2.55,0,0,0,1.42-.78A8.88,8.88,0,0,1,6,1.82C6,1.6,6.67,1.41,8,1.27Zm5.2-.17v.08l-.16.16H13l-.17-.16.08-.08Zm.15-.95V.23L13.23.4,13.07.23l.08-.08Zm.95,1.12.07.07v.23l-.15.16h-.4l-.15-.16Q13.7,1.42,14.33,1.27ZM15.27,0h.16l.39.32h.48c.39,0,.59.07.62.23L16.3,1H16L15.82.78,15.9.7,15.27.55,15.2.63V.7c.2,0,.3.06.3.17L15,1.18c-.73-.13-1.1-.34-1.1-.63a1.78,1.78,0,0,1,1.19-.4Zm.16,1.27h.32l.15.15-.15.23c-.37,0-.55-.13-.55-.23Z"/></g></g></svg>