<svg xmlns="http://www.w3.org/2000/svg" viewBox="0 0 20.34 23.65"><title>numbers-0</title><g id="圖層_2" data-name="圖層 2"><g id="wordOnPaper"><path d="M.43,2.16l.15.22v.07l-.22.22H.29L0,2.38C0,2.28.14,2.21.43,2.16ZM1.45,0l.06.07V.14L1.29.36,1.73,1l-.28.5H1.23C1.08,1.51,1,1.34,1,1a1.85,1.85,0,0,1-.72.44L.07,1.09C.07.75.34.53.87.43.87.2,1.06.06,1.45,0ZM9.67.8,10,.87h.51L12.25.8c2.18.47,3.55,1,4.12,1.51,1,.72,1.51,1.2,1.51,1.43.59,1,1,1.49,1.16,1.52l.43,1.16a3,3,0,0,0,.58,1.73v.58l.29,1.51-.14,1.37.14.73-.22,2.81V16a3.09,3.09,0,0,0-.58,1.52A18,18,0,0,1,18,20.05a7.59,7.59,0,0,1-2.16,1.73c-.46.65-1.71,1.16-3.74,1.52l-1.31.29-.57.06q-3.24-.28-3.24-.57c-1.86-.63-2.79-1.06-2.81-1.3a4.65,4.65,0,0,1-1.89-2,5,5,0,0,1-.94-2.17L.94,17,1,16.37a9.45,9.45,0,0,1-.79-2.52l.07-.65v-.66L.14,11.4v-.29A4.59,4.59,0,0,1,.8,9.45L.72,9.22l.57-2.29A4,4,0,0,0,1.94,5.7q1-.9,1-1.29V4.32l-.8-1V3.25l1,.87.22.07V4.12c0-.2.12-.29.35-.29l-.06-.09V3.61A.42.42,0,0,0,4,3.39h.09l-.22-.5H4q.15,0,.15.21l.07.07h.06L4.39,3l.08.07v.07a17.58,17.58,0,0,1,2.46-1,5.06,5.06,0,0,1,1.73-.87l.07-.06L9.67.87ZM1.29,21.71h.09l.35.36c-.1.43-.27.65-.5.65,0,.19-.05.29-.14.29q-.66-.24-.66-.36v-.29c0-.1.09-.15.29-.15C.72,22,.91,21.84,1.29,21.71ZM1.16,21c.11,0,.18.12.22.36l-.22.15-.22-.07V21.2Zm.93-19V2l-.15.14-.07-.07V2l.07-.08ZM2.38.07l.07.07L2.52.07h.29L3,.22V.29a.5.5,0,0,1-.51.29L2.16.36V.29ZM2.52,2.6l.58.57L3,3.25A.7.7,0,0,1,2.52,2.6Zm5.63.5H8.08q0-.21-.15-.21c-.46,0-.82.31-1.07.94l-.38.71.22.07L5.91,6.77,6,6.86h.07a24.58,24.58,0,0,0-.65,5.55L5.48,15a4.21,4.21,0,0,0-.29,1.38c.22,0,.44.74.65,2.23a9.35,9.35,0,0,0,1.8,2.67,3.46,3.46,0,0,0,2.53,1h.28c2,0,3.42-1.66,4.41-5a5.3,5.3,0,0,1,.71-1.94v-.09L15.5,15l.07-.49v-.44l-.07-1.15.15-.44v-.42l.07-.73L15.65,11l.07-.79-.29-.08q0-5.37-2.38-7.28c0-.4-.74-.63-2.23-.72L10.6,2H10A6.46,6.46,0,0,0,8.15,3.1Zm3.9,9.24h.36l.13.13h-.07l.07.07v.22c0,.15-.22.22-.58.22l-.2-.44Zm1-.16h.14l.15.16-.22.2h-.07l-.14-.13v-.07Z"/></g></g></svg>