<svg xmlns="http://www.w3.org/2000/svg" viewBox="0 0 18.41 23.49"><title>numbers-9</title><g id="圖層_2" data-name="圖層 2"><g id="wordOnPaper"><path d="M7.15,0,9,.19h2.24a17.81,17.81,0,0,1,3.23,1.23q.39.1,1.41,1.47c.65.5,1,.91,1,1.23a4.15,4.15,0,0,0,.64,1.48A2.69,2.69,0,0,0,18,6.69L17.9,7l.19.59L18,9v.51a1.24,1.24,0,0,1,.39,1,9.84,9.84,0,0,1-1.35,4.57,8.65,8.65,0,0,1-1,2.77c-.78,1-1.45,1.91-2,2.77-.17,0-.54.32-1.09,1-.23,0-.75.35-1.55,1a8.94,8.94,0,0,1-3.79.9,8.11,8.11,0,0,1-3.68-.7c0-.1-.35-.28-1-.53a1.29,1.29,0,0,1-.65-.89,1.53,1.53,0,0,1-.38-1.16v-.38l1.15-1.68.46-.27H3.8A6,6,0,0,1,6,18.66l.6.26-.07.64v1a2,2,0,0,1-1.3.77v.07c0,.24.22.47.65.7h.26l1,.14L7.92,22H8l.19.14H8.3l1.81-.65a6,6,0,0,1,1.15-1.42c.09,0,.33-.27.72-.82A3.1,3.1,0,0,0,12.3,18a6.16,6.16,0,0,0,1-2.19l.05-.07V15.5l-.25-.31L13.26,14l-.46-.05-.19.24,0-.05h-.2a1.48,1.48,0,0,1-.78.44c-.2.38-.67.58-1.41.58l-1,.26H8.62a1.87,1.87,0,0,1-1.09.19H6.76l-.91-.19-.51.12v-.05l.13-.19H5.41l-.19.12H5.15L5,15.26l0-.07-.38-.13v.13c.17,0,.26.08.26.19l-.46.38.2.27-.25.19H4.06c0,.17,0,.26-.14.26H3.86l-.25-.26v-.07c0-.1.17-.17.51-.19q0-.51.33-.51l-.26-.39H4.06l.06.06v.07c0,.08-.07.12-.2.12l-.19-.05v-.14l.07-.06V15c-.17-.09-.26-.19-.26-.31H3.35v.05l.19.26v.07a.7.7,0,0,0-.32.51l-.45.19c-.17.26-.32.39-.46.39l.07.07v.07l-.19.19H2.12c-.1,0-.16-.09-.19-.26s.28-.33.84-.72L3,15c-.22,0-.33-.06-.33-.19A.54.54,0,0,0,3,14.29v-.07l-.14-.12-.05.25h-.2c0-.13,0-.2-.13-.2H2.38l.07.07v.26l-.14.13-.12-.13V14.1l.32-.33a.38.38,0,0,1-.39-.25c.09,0,.14-.09.14-.26h.12v.12h.13c-.78-.62-1.16-1.07-1.16-1.35-.1,0-.36-.55-.77-1.66A2.77,2.77,0,0,1,0,8.3V8.11A7.82,7.82,0,0,1,1.87,2.84l1-1c.16,0,.35-.17.58-.52A11.16,11.16,0,0,1,7.15,0ZM1.8,14.22H2l.07.07h.05l-.05.06v.07l.12.19L2,14.68v.05c.17,0,.26,0,.26.14v.19l-.39.44H1.61l-.26-.38V15q0-.12.33-.12l-.14-.19A.46.46,0,0,1,1.8,14.22ZM2,16.73h.19l.19.19v.14l-.19.19H2.07l-.2-.19v-.19Zm1-.51h.19l.19.26L3,16.8H3l-.26-.26Zm.51-.65.12.13-.12.13H3.47l-.12-.13Zm1.1-8.75v.45a1.55,1.55,0,0,0-.33.91A8.26,8.26,0,0,1,4.5,10.3l.58,1c.28.39.47.58.58.58l.45-.32c.39,0,.58.15.58.44l-.32.2H6.31L6,12l0,.34a1.65,1.65,0,0,1,.77.5l-.19.13H6.5l-.39-.32H6l.07.07v.06L6,12.93l.2.07v.12H6.18L6,13H5.92v.12c.09.18.2.26.32.26l.19-.05.21.25-.07.19h.07A2.35,2.35,0,0,0,8,14.48h.44l.13-.13.32.07a3,3,0,0,0,1.74-.71,10,10,0,0,0,1.68-1.8,5.5,5.5,0,0,0,1.15-3.35V6.37a7.52,7.52,0,0,0-.84-2.64l-.7-1.16A3.26,3.26,0,0,0,9.4.89L9.33.84H9.21a3.18,3.18,0,0,0-1.29.65,3.08,3.08,0,0,0-1.81,1.4,3.25,3.25,0,0,0-.64,1.35A5.23,5.23,0,0,0,5,6,1.5,1.5,0,0,0,4.64,6.82Zm.89,4.51h.13v.06l-.13.13Zm.78-.77.12.19v.06L6.31,11l-.2-.2Zm.9,1.74.06,0v.07l-.19.12H7v-.19Z"/></g></g></svg>