<svg xmlns="http://www.w3.org/2000/svg" viewBox="0 0 24.42 23.38"><title>numbers-5</title><g id="圖層_2" data-name="圖層 2"><g id="wordOnPaper"><path d="M.17,2.66H.25l.16.15L.25,3H.17L0,2.81Zm3.13.48h.4l.57.15.47-.15h.08l.25.23v.17A2.07,2.07,0,0,1,4,4.1v.07c.22,0,.33.06.33.17V4.5c0,.13-.21.21-.65.24,0-.1-.16-.21-.48-.32L3,4.65H2.82l-.25-.23V4.34l.09-.09-.09-.08V4.1C2.57,3.74,2.82,3.42,3.3,3.14Zm.09,2.08h.07l.16.16-.23.24-.17-.15V5.38ZM11.08,0c.92.07,1.38.18,1.38.32l1.6-.07h.64a2,2,0,0,0,.89-.17l.56.09L17.28.08l1.2.17,3-.08L22.1.08l.08.09V.25A5.45,5.45,0,0,0,23.94,0L24,.08V5l-.17.16c-.08,0-.24-.46-.48-1.37a4.2,4.2,0,0,0-3.29-1.93H18l-.57-.15-1.84.07a4.76,4.76,0,0,0-1.28-.23l-.65.16-.72-.16-.64.31h-.57A2.16,2.16,0,0,1,11,3a1.45,1.45,0,0,1-.88,1.45L9.8,5.62v.56A2.33,2.33,0,0,0,8.84,8c-.09,0-.15.13-.17.4l.25.16h.32a10.89,10.89,0,0,1,2.24-.64,4.57,4.57,0,0,1,1.86-.4l3.86.15a6.92,6.92,0,0,0,2.89,1.13l.8.4q2.77,2.12,3.14,3.62A2.6,2.6,0,0,1,24.42,14a2,2,0,0,0-.24,1v1.3l-.64,1.84a5.82,5.82,0,0,1-1.61,1.53,6,6,0,0,0-1.44,1.6c-.16,0-.43.21-.8.64-.74.55-2.3.95-4.67,1.2,0,.12-.24.2-.71.25h-.17q-4.82,0-7-1.61c-.33,0-.66-.32-1-1-.49,0-.76-.64-.8-1.92l-.16-.8c.11,0,.27-.32.48-1A2.84,2.84,0,0,1,7,16.71a8.15,8.15,0,0,0,1.77.57,2.1,2.1,0,0,1,1,1.6l-.73.81V20q0,1.26,4.51,1.84a8,8,0,0,0,4.66-1.53q1.77-3,1.77-4.17a.73.73,0,0,1,.24-.48v-.08l-.89-2.18A16,16,0,0,0,17,11.33c0-.18-.4-.32-1.2-.4l-.89-.41-2.25-.07a8.8,8.8,0,0,0-3.62.8,8.33,8.33,0,0,0-3.6,1.28l-.33.08H4.82L4.5,12.3v-.09c.14-1.55.41-2.32.8-2.32L6,7.79A9.43,9.43,0,0,0,7.15,5,6.46,6.46,0,0,0,8.52,1.93,7.38,7.38,0,0,0,9.64.17h.81Z"/></g></g></svg>