<svg xmlns="http://www.w3.org/2000/svg" viewBox="0 0 18.93 23.43"><title>numbers-4</title><g id="圖層_2" data-name="圖層 2"><g id="wordOnPaper"><path d="M15.13,0l.14.14V.21l-.14.15.14.2V.7H15.2l.07.84V3.37l-.21,1.06v.36l.14.55a14.34,14.34,0,0,0,.21,2.89v.21l-.14.78v.07l.07.49c-.09,0-.16.23-.21.71l-.07.07v.63l.07.42a1.78,1.78,0,0,0-.14.78l.14,1V14l.28.43-.07.07v.07c0,.33.2.49.49.49a1,1,0,0,1,.64-.29l.7.07,1.2-.07h.2l.36.22v.64l-.14.56v.07l.14.14-.07.07.07.35V17h-.27c-.24,0-.36,0-.36-.14l-.91.14-.15-.14-1,.14L16.19,17h-.07L16,17H16L15.56,17c-.22,0-.34.33-.36,1l-.14.15.14,2c.16,0,.3.47.43,1.4A3.65,3.65,0,0,0,17.46,23v.15l-.15.14H14.86L14.07,23v-.07l-1,.36-.63-.14h-.22l-.41.07-.36-.07-.14.14-.07-.07H10.7l-.36.07v-.07l-.07.07H9.79l-.15-.14V23c.08-.15.43-.31,1.06-.49l.7-.63c.24,0,.36-.52.36-1.55l.07-1-.29-.72.07-1.11c-.07-.43-.28-.64-.64-.64l-.63-.15-2,.15h-3L4.79,17H4.5a15,15,0,0,0-3-.36,1.32,1.32,0,0,0-.84.22c-.42-.18-.65-.34-.7-.49V16A5.51,5.51,0,0,0,1.13,14.7,3.1,3.1,0,0,1,2,13.44a12.92,12.92,0,0,1,1.55-2A11.28,11.28,0,0,0,4.93,8.94,18.63,18.63,0,0,0,6.76,6.2,31.66,31.66,0,0,0,9.22,2.6c.26-.07.47-.35.64-.84A11,11,0,0,0,10.9,0ZM.91,13.23l.22.21-.63.7H.43L.28,14C.38,13.49.59,13.23.91,13.23Zm.56-1.33h.07l.15.13-.29.28-.13-.14V12.1Zm9.86-7.74c-.24.56-.54.84-.91.84A36,36,0,0,1,7.81,8.8c0,.14-.16.37-.49.7-.56,1.2-1.11,1.86-1.62,2A2.09,2.09,0,0,0,5,12.74v.42a14.71,14.71,0,0,0-1.34,2.18l.42.22h.28A4.07,4.07,0,0,0,5.7,15.2l.36.21.7-.07,1.2.07,1-.07.13.14H9.5a1.52,1.52,0,0,0,.7-.28h1.2c0-.15.19-.33.56-.56l.28-.43V13.8L12,13.16V13l.14-.22v-.41l-.2-1.13L12,9.71l-.2-.21V8.73l-.22-.29.15-.56V7.17L12,6.06c-.13-.79-.32-1.24-.56-1.35V4.16ZM6.76,13.93h.07V14a2.06,2.06,0,0,1-1,.57V14.5A1.44,1.44,0,0,1,6.76,13.93Zm-.56-.2h.06V14H6.2l-.14-.14Zm6.33,9.5.07.07v.06l-.07.07H12V23.3Z"/></g></g></svg>