<svg xmlns="http://www.w3.org/2000/svg" viewBox="0 0 27.65 26.08"><title>O</title><g id="圖層_2" data-name="圖層 2"><g id="圖層_7" data-name="圖層 7"><path d="M23.76,6l-.18-.35-.2-.34a1.44,1.44,0,0,1,.06.43C23.48,5.87,23.61,5.89,23.76,6Z" fill="#843333"/><path d="M23,4.65l-.08-.11-.11-.07Z" fill="#843333"/><path d="M22,3.68a2.88,2.88,0,0,0,.47.51A1.69,1.69,0,0,0,22,3.68Z" fill="#843333"/><path d="M22.61,4.59c0-.11,0-.2.17-.12h0l-.31-.28A1.25,1.25,0,0,1,22.61,4.59Z" fill="#843333"/><path d="M22.61,4.59c0,.1,0,.24,0,.3A1,1,0,0,0,22.61,4.59Z" fill="#843333"/><path d="M21,5.44c-.12-.05.28-.35,0-.46-.48-.33-1-.5-1.34-.82A.21.21,0,0,1,19.6,4c0-.07-.05-.15-.08-.24s-.1-.37-.23-.39a2.74,2.74,0,0,0-.54-.15,2.68,2.68,0,0,0-.61-.06c-.36,0-.55.08-.2.26l.19.09.18.1a3.9,3.9,0,0,1,.35.19L19,4l.31.19.29.2a2.73,2.73,0,0,1,.3.21l.3.22.29.26a2.83,2.83,0,0,1,.28.2l.28.2c.17.14.36.28.53.43a9.48,9.48,0,0,1,1,1,2.42,2.42,0,0,1,.29.71l-.05-.25-.06-.26-.07-.26-.09-.26c-.06-.26-.32-.43-.62-.59s-.31-.16-.47-.26A2,2,0,0,1,21,5.44Z" fill="#843333"/><path d="M25.08,11.49l-.19-.38a2,2,0,0,0-.22-1.82l-.18.32c.05.17.11.25.16.26s.11-.07.13-.24a6.55,6.55,0,0,0-.05,2.11C24.87,11.69,25,11.69,25.08,11.49Z" fill="#843333"/><path d="M24.78,12.14c0-.14,0-.27-.05-.4h0l.08.4Z" fill="#843333"/><path d="M19.56,2.19A13.24,13.24,0,0,0,15,.28c-.14.07-.24.16-.39.09a1.56,1.56,0,0,0-.36-.23l-.7-.08-.25,0h0c-.14.05-.1.13,0,.21a1.08,1.08,0,0,1,.23.18S13.32.37,13.25.3a1.11,1.11,0,0,0-.37-.15,3,3,0,0,1-.67,0,1.55,1.55,0,0,1,.67,0l.39-.06.12,0c-.27,0-.54,0-.81,0h-.81l-.33.08c-.39.11-.75.25-1,.05l-.29,0,.06,0-.11,0a2.84,2.84,0,0,0-.31.06l-.3.06L9.16.4l-.3.08C8.63.65,8.42.87,8.2,1L8.06,1,7.84.92a.91.91,0,0,1-.3.41c.26,0,.51.12.71.13s.26-.1.36-.25A.6.6,0,0,1,8.8,1a.29.29,0,0,1,.28.07A.29.29,0,0,0,8.8,1a.6.6,0,0,0-.19.17c-.1.15-.19.31-.36.25s-.45-.09-.71-.13a2.14,2.14,0,0,1-1.25.43,1.2,1.2,0,0,1,1.25-.43.91.91,0,0,0,.3-.41L8.06,1,8.2,1c.22-.16.43-.38.66-.55a12,12,0,0,0-2.31.92A11.55,11.55,0,0,0,3.33,3.84,12.42,12.42,0,0,0,1.11,7.2a13,13,0,0,0-1,4,13.49,13.49,0,0,0,0,2.11,14.59,14.59,0,0,0,.29,2.15,14.29,14.29,0,0,0,4.82,8,11.45,11.45,0,0,0,4.12,2.18,13.84,13.84,0,0,0,2.27.46,14.87,14.87,0,0,0,2.31.07l.58,0L15,26l.58-.08.57-.11a18.84,18.84,0,0,0,2.29-.6A21.18,21.18,0,0,0,22.9,23a8.55,8.55,0,0,0,1.75-1.58,11.59,11.59,0,0,0,1.55-2.32,13.44,13.44,0,0,0,1-2.59,14.92,14.92,0,0,0,.44-2.27,4.77,4.77,0,0,0-.09-.6,3.85,3.85,0,0,0-.16-.48,2.21,2.21,0,0,0-.42-.65,1.3,1.3,0,0,0-1-.37,2.47,2.47,0,0,0-.87.24,2.34,2.34,0,0,0-.42.24l-.33.29-.27.28a3.89,3.89,0,0,0-.42.53,4,4,0,0,0-.29.54c-.09.19-.17.38-.25.58a9.26,9.26,0,0,1-.63,1.34,5.19,5.19,0,0,1-1.33,1.45c.4-.33.6-.4.66-.27s0,.44-.24.83a4,4,0,0,1-1.1,1.17,3.09,3.09,0,0,1-1.61.62,11.06,11.06,0,0,0-2.24.34c-.7.18-1.39.42-2.14.59l-.28.07L14,21a5.86,5.86,0,0,1-.58.1,7.84,7.84,0,0,1-1.19.08A5.67,5.67,0,0,1,11,21.08L10.73,21l-.14,0-.14,0-.27-.11-.25-.13c-.17-.08-.34-.18-.51-.25l-.26-.13a2.24,2.24,0,0,1-.27-.13L8.61,20l-.27-.16L8.2,19.8l-.13-.09c-.09-.06-.18-.11-.27-.18A13.4,13.4,0,0,1,5.62,17a10.38,10.38,0,0,1-1.33-3,9,9,0,0,1-.22-3.36A7.58,7.58,0,0,1,5.31,7.34c.34-.54.63-1.08.94-1.61a8.32,8.32,0,0,1,1-1.49,3.16,3.16,0,0,1,.53-.37l.29-.14.15-.07.15-.05.29-.11L9,3.41l.27-.08.25-.09L11,2.71c.46-.17.91-.32,1.36-.46a10.62,10.62,0,0,0-2.76.87c-.34.15-.28-.05-.07-.32a3.21,3.21,0,0,1,.41-.42,2.41,2.41,0,0,1,.44-.31c.09-.08.26,0,.42.07s.33.16.43.09.23,0,.34-.09L11.86,2a6.36,6.36,0,0,1,.74-.27c.23-.12.2.38.31.32a1.77,1.77,0,0,0,.51-.15l.48-.2a2.68,2.68,0,0,1,.43-.14.54.54,0,0,1,.38,0,3.48,3.48,0,0,1,.48.21,3,3,0,0,1,.44.23,3.49,3.49,0,0,0,.57.2h.42a1.51,1.51,0,0,1,0-.56,1.82,1.82,0,0,1,.3.21c.1.07.2.15.29.2-.09-.05-.19-.13-.29-.2a1.82,1.82,0,0,0-.3-.21,1.51,1.51,0,0,0,0,.56,8,8,0,0,1,1.59.29,9.17,9.17,0,0,1,1.6.63l0,0A6.1,6.1,0,0,1,18.3,1.8c.11.11.14.2.1.24s-.14,0-.29,0L18,1.67l.44.11a3.12,3.12,0,0,1,.42.18,1.31,1.31,0,0,1,.35.27,1.07,1.07,0,0,1,.26.39l.41.09c.11.17,0,.29,0,.42l.33.21a2.64,2.64,0,0,0-.31-.72c-.07-.12-.15-.23-.2-.31A.73.73,0,0,0,19.56,2.19Z" fill="#843333"/><path d="M12.86.13l.33,0-.33,0h-1a.68.68,0,0,0,.46.14A2.9,2.9,0,0,0,12.86.13Z" fill="#843333"/></g></g></svg>