<svg xmlns="http://www.w3.org/2000/svg" viewBox="0 0 45.26 28"><title>skip</title><g id="圖層_2" data-name="圖層 2"><g id="_1920x1080" data-name="1920x1080"><g id="wordOnPaper"><path d="M.89,21.93h0L1,22v0l-.07.08H.86L.78,22ZM1.21,9.35h.14s.09.07.11.22h0l0,0v0l-.11.1h-.1L1,9.57v0Zm0,12.87c.17,0,.25.08.25.15l-.11.1H1.32l0,0h0l-.07.07-.07-.07v-.11C1.11,22.27,1.16,22.23,1.25,22.22Zm.1-12.12.07.08,0,0h-.1v0ZM9.21,8.77l.07.07v1c.09,0,.14,0,.14.07L9.35,10l0,0v.08l-.11.14v.12c.09-.13.18-.19.25-.19l.07.11a.33.33,0,0,1-.25.18l0,0v0l0,.18h0c.14-.18.24-.26.32-.26l.11.15v.11c0,.09-.09.14-.29.14L9.6,11l-.21.07v0l0,0v0a2,2,0,0,1-.32.69H9l0,0,0,0,.1-.18c-.1,0-.14,0-.14-.11H8.85l0,0v0l-.07.11,0,0H8.66l-.11.11-.43-.11L8,11.84l-.1-.11c0-.05.1-.1.32-.14l0,0v-.08c0-.07,0-.1-.11-.1l0,0v0l.07-.08h0l0,0h0c0-.15.08-.23.25-.23l0-.17c.12,0,.18,0,.18-.11s-.22-.09-.22-.14l.14,0v-.07A9.85,9.85,0,0,0,5.7,9.82a1.9,1.9,0,0,0-1.88,1.33l0,.33a2.68,2.68,0,0,0,.5,1.37c0,.11.28.36.84.77a5.8,5.8,0,0,1,1,.76,2.8,2.8,0,0,1,1.09.75,3.58,3.58,0,0,1,1.08.76l.4.36a4.06,4.06,0,0,1,.94,2.1v.11c0,.63-.09,1-.29,1.09a1.51,1.51,0,0,1-.47.94c0,.15-.21.38-.61.68a1.47,1.47,0,0,1-.77.33,3.44,3.44,0,0,1-1.37.57l-.32,0a9.3,9.3,0,0,0-1.49.19l0,0v0l0,0H4.25a1.4,1.4,0,0,0-.43.36l-.07-.07v0l.14-.19a.87.87,0,0,1-.44-.25l-.11,0,0,0v0c.17.05.25.1.25.15l-.22.07.11.22-.21.11,0,0v.07l-.18,0h0L3,22.58c.09,0,.14-.07.14-.21l.11,0-.08-.11,0,0c-.05,0-.07,0-.07-.11H3l.07.11L3,22.25H3l-.25-.18-.15.26H2.47s-.07,0-.07-.15L2,22.47H1.94l-.11-.1A1.23,1.23,0,0,0,2.37,22l.1,0,0-.11H2.33c0,.07,0,.11-.07.11s-.06-.09-.18-.11L2,21.93l0,0v0l.25-.39c0-.13-.1-.19-.18-.19s-.24.17-.48.5l-.07-.07V18.32l.07-.08.73,1.27c.06,0,.3.25.73.76l.21.07v0l.14-.14h.08a.45.45,0,0,1-.15.29v0q.13,0,.15.21h0l.37-.36h.07l-.37.44H3.6l.11,0v0l0,0v0l.22,0L4,20.81H4v0L4,21v0a2.34,2.34,0,0,0,1.3.33h.18l1-.22c.8-.68,1.2-1.23,1.2-1.66l0,0v-.22l0-.5,0,0v0c-.24-.67-.49-1-.72-1.12a2.43,2.43,0,0,0-.87-.8,7.41,7.41,0,0,0-1.59-1,12.38,12.38,0,0,0-1.77-1.41,3.62,3.62,0,0,1-.76-1.42,1.11,1.11,0,0,1-.07-.46V12.2a3,3,0,0,1,.68-1.8l.19-.07.11,0v0l0-.15c.1,0,.26-.19.47-.47a5.38,5.38,0,0,0,1.12-.55,1.94,1.94,0,0,1,.72-.11h.29l0,0h0l0,0,0,0V9.2l.14-.15.3.08c0-.07.13-.11.4-.11h0a7,7,0,0,1,1.26.22h0l.91,0Q8.87,9.28,9.21,8.77Zm-7.42.36,0,0v0l0,0h0l0,0v0l0,0Zm.11.36H2L2,9.57v0l-.1.11L1.83,9.6v0ZM2,21.43h.11v0L2,21.61H1.94l-.08-.07Zm1.55,1.08v0l-.07.07h0v-.07ZM4,19.73h0v0c0,.06-.06.09-.18.11Zm.15.65,0,0v0l-.1.11L4,20.49Zm.14,1.95h0l.1.11,0,0H4.32l-.07-.07ZM7.61,11.45l0,0v.11c0,.05,0,.07-.11.07l-.11,0v-.08C7.43,11.5,7.49,11.46,7.61,11.45Zm.58-.55h.08l0,.11,0,0H8.16L8.09,11Zm.43.29,0,0,0,0h0l0,0v0s-.07.07-.21.11l.07.21a1.26,1.26,0,0,0,.4-.25l-.15-.15.08-.11,0,0v0ZM10,9.78l.07.11c0,.17-.09.25-.22.25s-.15-.07-.15-.11v0S9.77,9.88,10,9.78Z" fill="#751b1b" stroke="#751b1b" stroke-miterlimit="10"/><path d="M32.14,2.55a4.18,4.18,0,0,0,.62.64c.47.4.56,1,1,1.37s.86,1.2,1.44,1.73a21.15,21.15,0,0,1,3,3.11c1.59,2.21,3.19,4.08,4.6,6.32l0,.08,0,.06V16a.16.16,0,0,1,0,.09l-.14,0h0s0,0,0,0l0,0-.16.14c-.43.35-.84.72-1.23,1.1a21.41,21.41,0,0,0-3.19,3.2A21.48,21.48,0,0,1,41.15,18c-2.07,2-4.29,4-6.17,6.18a51,51,0,0,1,4.57-4.38c.79-.68,1.61-1.33,2.44-1.95.42-.31.83-.61,1.26-.91l.14-.1.13-.07.26-.17.6-.39c-.17-.33-.4-.74-.67-1.21s-.5-.92-.74-1.37l.88,1.23,1,1.38-1.66,1.28L41.6,18.71c-1.05.84-2.1,1.71-3.11,2.6a35.47,35.47,0,0,0-5.26,5.59,9,9,0,0,0-.69,1.1,29.93,29.93,0,0,1,5.58-6.17c1.1-.95,2.25-1.87,3.41-2.76.57-.45,1.15-.88,1.72-1.31l.43-.32.22-.17.26-.2,1.1-.85-.65-.9-.35-.48-.14-.2L44,14.47A79.81,79.81,0,0,0,39.09,8c-.46-.59-.93-1.17-1.4-1.75-1-1.2-2-2.38-3-3.5S32.13-.11,31.2,0c.27.34.65.65.89,1a3,3,0,0,1-.5-.26,2.3,2.3,0,0,0,.37.39A.71.71,0,0,0,31.61,1a2.21,2.21,0,0,0,.56.43,2.92,2.92,0,0,1,.59.4,7.93,7.93,0,0,0-1-.48,1.86,1.86,0,0,1,.22.27c-.14-.06-.34-.25-.46-.25.2.22.4.38.6.61a3.27,3.27,0,0,0,.47.51A3.31,3.31,0,0,0,31.81,2a1.06,1.06,0,0,0,.26.3h0s.08.11.12.16a.11.11,0,0,1,0,0l0,0" fill="#843333"/><path d="M23.26,2.55a4.65,4.65,0,0,0,.61.64c.47.4.56,1,1,1.37s.87,1.2,1.44,1.73a21.22,21.22,0,0,1,3,3.11C31,11.61,32.56,13.48,34,15.72l0,.08s0,.06,0,.06V16a.15.15,0,0,1,0,.09l-.13,0h-.05l0,0,0,0-.16.14c-.42.35-.84.72-1.23,1.1a21.9,21.9,0,0,0-3.19,3.2A22.11,22.11,0,0,1,32.27,18C30.2,20,28,22,26.1,24.13a49.55,49.55,0,0,1,4.56-4.38c.8-.68,1.62-1.33,2.45-1.95.41-.31.83-.61,1.25-.91l.15-.1.12-.07.26-.17.6-.39c-.17-.33-.4-.74-.67-1.21s-.5-.92-.73-1.37L35,14.81l1,1.38L34.3,17.47l-1.58,1.24c-1,.84-2.11,1.71-3.11,2.6a35.55,35.55,0,0,0-5.27,5.59,10.41,10.41,0,0,0-.69,1.1,29.71,29.71,0,0,1,5.59-6.17c1.1-.95,2.25-1.87,3.4-2.76.58-.45,1.16-.88,1.73-1.31l.43-.32.22-.17.26-.2,1.1-.85-.65-.9-.35-.48-.14-.2-.12-.17A79.94,79.94,0,0,0,30.2,8c-.45-.59-.92-1.17-1.4-1.75-1-1.2-2-2.38-3-3.5S23.25-.11,22.32,0c.26.34.65.65.88,1a3.43,3.43,0,0,1-.5-.26,2.3,2.3,0,0,0,.37.39A.72.72,0,0,0,22.73,1a2,2,0,0,0,.56.43,3.16,3.16,0,0,1,.58.4,7.83,7.83,0,0,0-1-.48c.07.09.15.17.22.27-.15-.06-.35-.25-.47-.25.2.22.41.38.6.61a3.33,3.33,0,0,0,.48.51A3.36,3.36,0,0,0,22.92,2a1.29,1.29,0,0,0,.27.3h-.05s.07.11.12.16l-.05,0,0,0" fill="#843333"/><path d="M16.76,9l0,0L17,9l0,0,0,0,.17,0h.61a.9.9,0,0,1,.4.07,6.24,6.24,0,0,1,1.06-.07h0l.08.07a5.61,5.61,0,0,1-1,.43c-.46.36-.71.63-.75.82-.1,0-.2.14-.32.38-.57.59-1.06,1.12-1.46,1.61-.12,0-.38.3-.78.82,0,.09-.13.24-.39.46q0,.13-.33.39l-.21.32A3.84,3.84,0,0,0,15,15.59l.43.61a3.05,3.05,0,0,0,.67.89,2,2,0,0,0,.43.61,8,8,0,0,0,.86,1,6,6,0,0,0,.85,1.14,3.91,3.91,0,0,0,.64.75,3.64,3.64,0,0,0,1,.53h.36a.83.83,0,0,1,.49-.1h.4l.07.07c-.09.38-.72.6-1.89.67H19a3.91,3.91,0,0,1-1.67-.64,1.74,1.74,0,0,0-.46-.39,2.22,2.22,0,0,0-.47-.57L15.58,19c-.07,0-.11-.09-.11-.25-.11,0-.24-.17-.39-.5-.09,0-.28-.22-.57-.64s-.46-.56-.46-.65-.16-.27-.47-.57A.85.85,0,0,0,13.2,16L13,15.73c-.3.19-.45.34-.45.44l.07.74,0,.47h.07v.18c0,.17,0,.27-.1.31a3.22,3.22,0,0,0,.14.82v.9l0,.14c.06.67.16,1.05.28,1.14s.23.33.68.6c.12,0,.18,0,.18.11l-.07.07H10l-.07-.07a1.73,1.73,0,0,1,.5-.32,1.31,1.31,0,0,0,.42-1L11,19.09,10.91,19v-.47l-.07-.11v-.21l0-.32-.07-.28,0-.18,0,0v0a.78.78,0,0,0,.07-.43h0l0-.36v-.71l-.07-.57v-.25l0-.14,0,0v0l.07-.28-.07-.47.07-.71,0-.32v-.5h-.07l0-.89V11.5l0-.35.07-.07v-.44a2.13,2.13,0,0,0-.11-.6l0,0v0c-.06,0-.17-.14-.32-.43-.31-.18-.46-.28-.46-.32L10,9.15h.71l.32,0a2.1,2.1,0,0,0,.64.11L12,9.15h1.63l.07.07a2.3,2.3,0,0,0-.82.57l-.17.71,0,.18v.07l0,.14,0,.15c0,.23-.07.35-.1.35l0,0v0l0,.14,0,.15,0,.57v.18l0,.21,0,0v0l0,.14-.07.33,0,.17-.07.32v.15c0,.31.08.46.24.46A17.78,17.78,0,0,0,14,13c.16,0,.38-.28.67-.85a5.88,5.88,0,0,1,.86-.92l.28-.58c0-.07.07-.17.22-.28l.14-.5c0-.17-.17-.38-.5-.61v-.1l.07-.07h1Zm-1,4.56c0,.07,0,.1.11.1l0,0v.08l-.18,0-.11.11-.07-.07V13.7A.22.22,0,0,1,15.75,13.6Zm1,.93h.07l.21.21v.07l-.1.11-.14-.14h0v0l0,0v0c-.08,0-.11,0-.11-.07Zm1.17-.9.08.07v0l-.08.08-.07-.08v0Z" fill="#751b1b" stroke="#751b1b" stroke-miterlimit="10"/><path d="M19.91,13.7a.58.58,0,0,0,.32.1l0,0v.07l0,0v0c.12,0,.17,0,.17.07l-.1.1h-.18l0,0h0v.07l0,.11,0,0H20l0,0,0,0h0l-.11,0v-.11c.1,0,.15,0,.15-.11V14c-.07,0-.11,0-.11-.07l0,0,0,0V13.8A.1.1,0,0,0,19.91,13.7Zm1,.14H21l.08.07L21,14h0l-.06-.07v0ZM21.29,9h3.93l.07.07s-.14.14-.43.25c0,0-.08.15-.25.31a5.51,5.51,0,0,0-.35,1.57l0,0v0l-.11,1.13s.07,0,.07.11l-.07.49,0,0h0l0,.35v.35l0,.21-.07.4.07.88-.07.24,0,.15v.07l0,0a3,3,0,0,1,.11.91l0,.53.07.33,0,0v0l0,.14-.1.2.07.68v.07l0,.15.11.38,0,.57.07.32v.35a1.64,1.64,0,0,0,.68.92l.38.21v0l-.07.07H21.25l-.07-.07v0s.18-.12.53-.24a1.41,1.41,0,0,0,.57-1.21s.06-.14.11-.42l0-.14,0-.25v-.46l0-.5,0-.1-.08-.43.08-.42-.08-.56.08-.29c-.05-.17-.08-.25-.11-.25l0-.25v-.42l0-.15L22.28,15l0-.14,0-.12,0,0h0l0,0,0-.28-.07-.82.07-.6V12.7l-.11-.42v0l0-.14L22.2,12l.08-.81c-.09-.38-.16-.57-.22-.57v-.1h.11l0,0v-.18a1.07,1.07,0,0,0-.56-1l-.11,0,0,0h0l-.17-.15v0Z" fill="#751b1b" stroke="#751b1b" stroke-miterlimit="10"/><path d="M25.83,9.42l0,0h0l0,0v0l0,.1,0,0h-.07l-.07-.07V9.53Zm1.28-.82,0,0v0l-.07.21h.18V8.74h.07l0,.14,0,0h0l0,0,.21-.07.07.07V8.81h.08v.07l1,0,.31,0,0,0,.43,0h1.72a6.23,6.23,0,0,1,2.25.61,5.15,5.15,0,0,1,.79.82c.17,0,.36.25.57.76a4.73,4.73,0,0,1,.25,1.5,4,4,0,0,1-.68,1.79c-.09,0-.22.15-.39.46L33,15.68a4.53,4.53,0,0,0-.82.35h0v-.1h-.07l-.24.18,0,0v.15c0,.07-.09.11-.22.11l-.07-.07.07-.08v0h-.14c0,.07-.09.14-.28.21-.06.24-.11.36-.14.36L31,16.72v0l.18-.39,0,0h-.18c-.1.36-.25.54-.43.54,0,.12-.06.18-.11.18l-.07-.08.28-.46h0v-.1h-.07c0,.09,0,.14-.11.14l-.07-.07h.07v0h-.07l-.07.07h-.07c0-.12,0-.19-.11-.21l-.22.14L30,16.29l.14-.15,0,0v0l-.18.07q0-.13-.57-.21v0l-.08.4.08.79s-.08.09-.15.28l0,.68v.25l.11.36h0l0,.11-.08.32v.07l.15.22v.11l-.07.28c.09.5.16.75.22.75,0,.37.28.69.85.93l.11,0v0l0,0v0l0,0h-.25a2.47,2.47,0,0,1-.75-.11,1,1,0,0,1-.54.11h-.71l-.25.21-.15,0-.11,0,0,0V22l-.14.14c-.09,0-.14-.07-.14-.11l.07-.1v0h-.15l-.1.07h-.07c-.05,0-.07,0-.07-.14h-.08a.1.1,0,0,1-.11.11.42.42,0,0,1-.25.35l0,0v0l.07-.07a.13.13,0,0,1-.14-.14l.14-.14-.25-.08v-.1l0,0v0h-.14l-.37,0L26,21.54s.15-.1.44-.17a1.62,1.62,0,0,0,.85-1.4s.05-.17.07-.5l0-.68.07-.61a1.38,1.38,0,0,1-.11-.54l0,0h-.07v0l.07-.1,0,0,.11-.57-.07-.57,0-.43-.07-.47,0-.18,0-.68L27.4,14l0,0,.07-.32a.9.9,0,0,1-.14-.43v-.07l.07-.29,0-.25,0-.14,0,0v0l0-.15-.07-.07v0c0-.33.05-.51.11-.54l-.25-1.82a1.34,1.34,0,0,0-.47-.43v0l0,.17,0,0h0c-.13,0-.2,0-.21-.11l0,0-.11,0a.1.1,0,0,0-.11.11l0,0h-.1L26,9.49c.05,0,.07-.05.07-.14l.14-.07V9.2h0l0,0h0l0,0v0l0,0v0c-.21,0-.31,0-.31-.1V9s.13-.07.38-.07l0,0V8.78l.15,0,.46-.14v0s-.08.08-.25.1v0l.14,0C26.88,8.69,27,8.6,27.11,8.6ZM26.36,22l.08.07-.08.07h0l-.08-.07Zm.86.14.07.07v.11l-.07.07h-.11L27,22.33v0a.1.1,0,0,0,.11-.11l0,0ZM29.76,9.67h-.11c-.19,0-.29.26-.29.64l-.07,5h0l.9.18c.16,0,.28-.16.35-.49l0,0h0v0l-.07.31h.29s.07,0,.07-.1l0,0h.25l-.07-.25,0,0h0c.07,0,.14.14.21.35l.14,0,0,0v0q.2-.39.3-.39l.17-.11h0c.05,0,.09.07.14.18s.33-.22.54-.65c.09,0,.19-.23.28-.68l.07-.17,0-.11,0-.18,0-.15,0-.49V12.1a2.6,2.6,0,0,0-1-2,3.59,3.59,0,0,0-1.36-.47l-.14,0-.22-.07ZM30,16.61h0l.22.18-.12.07c-.18,0-.28-.05-.28-.11Zm.61.57,0,0v0l0,0h-.1Zm.65-1.93v0l.07.07.07-.1Zm.14,1.39.07.08v0l-.07.07-.11-.1Zm.21-2.21h.07l.08.07-.11.1h0l-.11-.1Zm.11,1.64.08.07v-.07c.06,0,.1,0,.1-.07v0h0l-.11.11ZM32,14.89l0,0V15h.1v0Z" fill="#751b1b" stroke="#751b1b" stroke-miterlimit="10"/></g></g></g></svg>