<svg xmlns="http://www.w3.org/2000/svg" viewBox="0 0 210.75 93.95"><title>title</title><g style="isolation:isolate"><g id="圖層_2" data-name="圖層 2"><g id="wordOnPaper"><g style="mix-blend-mode:multiply"><path d="M.56,11.68h.2l.4.36-.4.4H.4L0,12Zm2.13-5h.6c.19,0,.44.46.76,1.37l-1.56.56L1.93,7.22ZM21,2.81h1.12l.4.4V5.7l-.4.56v.8a4.82,4.82,0,0,1-.36,2.09,15.06,15.06,0,0,0,1,4.46c-.41,9.09-.79,13.64-1.17,13.64l.2,3.65q.36,0,.36.6l.2,17.34.2,1.13-.4,1.16v1.36l.2,1.93c-.32,0-.5.76-.56,2.29A4.09,4.09,0,0,0,22.31,59v1.52a10.54,10.54,0,0,0,4.06,8.67c1.12.7,1.7,1.15,1.72,1.36v.16l-.4.41H6.54l-.4-.41v-.36a11.62,11.62,0,0,0,5.22-6.18,12.66,12.66,0,0,0,1.16-3.85,1.86,1.86,0,0,1,1.13-.56v-.4q-.57,0-.57-.36h.2l-.76-1.17v-.2h.76v-.2c-.91,0-1.36-.19-1.36-.56L11.56,48a26.79,26.79,0,0,1,.56-5.58l-.4-1.52.2-1.37-.2-1.52.2-1.93-.76-4.82.56-.56v-.2l-.16-2.89.16-3.29V23a21,21,0,0,0-1.33-6.75H10l-1.12.37v.8l-1-.2-.2.2v.16l.2,1-.2.2H7.5c-.26,0-.4-.18-.4-.56-.29,0-.55.51-.76,1.53q-.36,0-.36.6l-.2.16h-.4L4.82,20C6,18.93,6.54,18.29,6.54,18v-.4h-.2L5.18,18c-1.8-.21-2.69-.6-2.69-1.16v-.57q.12-.67,3.65-2.52l.4-.37-1-1.56-.76.2.2.2v.2l-.2.2h-.2c-.19,0-.51-.45-1-1.36.14-.78.32-1.17.56-1.17l1.17.77H6l.16-1-.36-.36,1.72-.4V9l-1-1.36.2-.57h-.2q-1-.15-1-.6c0-.19.25-.37.76-.56l1.57,1L7.5,8.19l.77,1L8.87,9l-.4-.6V7.63h.2c.19,0,.63.57,1.32,1.72l.4-1.72L10,7.22c0-.18.26-.37.77-.56l1,1L10.6,8.79l.36.36.4-.36.2.2.16.56h.2Q19.83,2.81,21,2.81ZM6.34,11.48l.2.2V12l-.2.2v.2h.4l.36-.76v-.4H6.94ZM8.27,4.54l.4.4-.4.36h-.2l-.36-.36Z" fill="#b70000"/></g><g style="mix-blend-mode:multiply"><path d="M53,5.62h3.61q.65,0,2.53,7a7,7,0,0,0,1.24,2.73q1.2,5.51,2.37,7a17,17,0,0,0,1.6,4.34l.57,1.64-.21.16v.21a34.81,34.81,0,0,0,2.37,5.57c0,.57.78,2.92,2.33,7.07q0,1.48,2.53,6.66,2.52,7.43,3.25,10.67c.29,0,.65.85,1.08,2.53q.72.6,2,5.42c1.79,2.28,3.17,3.41,4.13,3.41v.56l-.36.37h-.52L79,71.16l-2-.73h-.53q0,.57-.36.57h-.2l-1.8.16L71.6,71H69.07a1.93,1.93,0,0,1-1.25-.57h-.56l-1.6.93q0-.36-.72-.36l-.21-.21v-.52l2.17-1.08C67.62,68.49,68,68,68,67.54q-2-6.5-2.53-7.22l.2-.16L61,45.71q-1.08,0-1.08-.36l-1.45.52-1.28-.16-3.77.36v-.36H53l-3.09.16v-.16l-.17.16-.92-.16-4,.16q0,1.05-5.78,16.82l-1.61,5.94a6.8,6.8,0,0,0,2.53,2v.16l-.36.37H34.23l-.72-.37-.2.21h-.16l-1.81-.37c-.13.35-.49.53-1.08.53h-.72c-.35,0-.54-.3-.56-.89l-1.25.89h-.2l-.36-.37v-.52L29,69.19l.56.16v-.16c0-.38.41-1,1.24-2l1.45-4.13q.6-.07,4.17-10.68l5.42-14.24,2.33-6.51.56-1.08c2.27-.61,3.41-1.22,3.41-1.8l-.72-.37-.16.16H47l-.53-.16-.2.16h-.16q-.72-.15-.72-.72a51.11,51.11,0,0,1,3.25-8.47l1.61-5.61q1.08-4.31,2.36-5.58l-.2-.2V7.79l.2-.93-.2-.16V6.5C52.61,5.91,52.8,5.62,53,5.62Zm.16,17.5L47.6,39.37l-.72,2H59.32l-1.09-4.7c-.26-.19-.68-1.27-1.24-3.25q-.36,0-2.73-7.78C53.75,24,53.39,23.12,53.18,23.12Z"/></g><g style="mix-blend-mode:multiply"><path d="M104.55,3.69l1.84.44,1.85-.44h3q6.86,1.13,7.58,1.81l1.13-.2.24.68-.44.44v.24c.91,0,1.36.31,1.36.93l3-1.41h.24v.48c-.35,0-.65.31-.92.93,1.52,0,3.36,1.21,5.5,3.65l2.77,4.81q.6,0,1.6,7.35v1.16c-.37.19-1.22,1.71-2.53,4.58a28.64,28.64,0,0,0-4.57,6.66c-1.47,1-2.85,3-4.14,5.74L100.21,61.76l-2.08,2.29a3.44,3.44,0,0,0-1.61,1.81l.24.24,1.37-.24,1.84.24,1.37-.24,4.61.48,1.37-.48h13.32Q130,63.61,130,61.28a33.2,33.2,0,0,1,5.5-3A3.86,3.86,0,0,1,139,60.12v.72q0,1.6-7.1,8c-.78,1.52-2.38,2.29-4.82,2.29l-2.53-.24-.24.24h-.24l-2-.45-.24.21h-.24l-1.36-.21-2.53.45h-4.82l-.68-.45h-.44l-8.07.45H100a7.58,7.58,0,0,1-3-.45l-12.2.45h-.44L83.2,70v-.2a18.51,18.51,0,0,1,5-6.22q11.09-10.95,17-15.13a11.77,11.77,0,0,1,3.45-5.3q6.5-8.46,7.34-13.08l1.17-2v-.48L117,26.41l.44-4.82c0-1.9-1.07-4.81-3.21-8.75a8.43,8.43,0,0,0-5.5-3.45,25,25,0,0,0-5.5-1.12l-.44.44h-.24c-4.9,0-7.34,1.23-7.34,3.69l-.25,2v3.21c0,2.65-2.06,4.41-6.18,5.3h-.24c-3.56,0-6-1.46-7.34-4.38v-.44q0-2.41,3.65-5.5l3.45-3.45A7.33,7.33,0,0,0,92.39,6.9a27.18,27.18,0,0,1,6.22-1.6Q98.61,4.34,104.55,3.69Zm15.17-.48v.24l-.49.44H119l-.48-.44.24-.24Zm.44-2.77V.68l-.44.48-.49-.48.25-.24Zm2.77,3.25.2.2v.69l-.44.48h-1.17l-.44-.48C121.08,4.28,121.7,4,122.93,3.69ZM125.66,0h.48l1.12.92h1.41q1.68,0,1.8.69l-1.8,1.16h-.93l-.48-.48.24-.24-1.84-.44-.2.24v.2c.58,0,.88.16.88.48L125,3.45c-2.14-.4-3.21-1-3.21-1.84A5.23,5.23,0,0,1,125.22.44Zm.48,3.69h.92l.44.44-.44.69c-1.07-.16-1.6-.39-1.6-.69Z" fill="#b70000"/></g><g style="mix-blend-mode:multiply"><path d="M142.15,67.52v.73h-.26l-.52-.47.26-.26Zm6.1-61.77L149,6l1.46-.26q0,1.2,2,1.2c0-.49,1.39-.73,4.17-.73v.26l.21-.26h3.44l.73-.47h.52l.21.26.26-.26,3.44.47h.47L178.64,6q11.37,1.77,15,5.63,1.41.11,4.17,4.38a9.89,9.89,0,0,1,2.45,6.88v2a14.72,14.72,0,0,1-3,8.55q0,2.25-7.56,8.34h-.52q0,.58,7.61,2.71,9.54,5.27,9.54,8.08,2.24,0,4.43,11v.47q0,2.25-2.92,9.8-6.2,7.88-8.6,7.88-.63,1.77-4.17,2.91l-2.19.27-1-.27a11.24,11.24,0,0,1-4.43,1h-1.72l-1-.27-4.12.73h-.26l-.73-.46-.73.46H161.49v.47h-.26l.26.26v1l-.73.73.21.27v.93c0,.28-.58.7-1.72,1.25a2.79,2.79,0,0,1-.94,2.19,5.89,5.89,0,0,1-2.71-1.92v-.73l.47-.79v-.21l-.47-.72-.26.2h-.26l-1.93-.47-2.45.47-1.25-1.46v-.47l.52-.72c-1.81-.18-2.71-.42-2.71-.73l3.91-3.45V82l-1.72-1.66-1-3.24.26-.2H149l.47.46-.21.27.94.26.26-.26h1.25l.73.46v-.2l-1-1.26v-.26a3.84,3.84,0,0,1,2.19-1.19v-.27l-.47-.46-.73.73h-.73c-1.32-.73-2-1.22-2-1.46v-.27l.26-.26v-.26l-1.51-1.46-.94.53v-.27c-.77.32-1.18.65-1.25,1l.47.72v1l-.94,1.45c-.91,0-2.12-.72-3.65-2.18q1.09-3.18,1.41-3.24h1.25l-.26-.2V68.78l.73-.79h1l2.45,1.52H149l1-.73h.21c2,.86,3,1.51,3,1.92,1,0,1.46-.81,1.46-2.45V35.67l-.26-1.51.26-1.2-.26-5.42c.34,0,.52-.48.52-1.46.21,0,.45-.57.73-1.72h.21q-.63-6.3-2.19-8.55c0-3.61-1-6-2.92-7.14l-3-2.19C148.07,6.48,148.25,6.24,148.25,5.75ZM143.09,79h.73c.48,0,.9.73,1.25,2.19l-.78.73h-.73l-.68-.73.21-.73-.47-.46v-.53Zm.26-2.91.21.2v.53h-.68v-.27Zm4.9-9.07.21.2v.26l-.73.47-.21-.21v-.26Zm-.73,5.1H148v1h-.47ZM155.81,93l.26.2v.26l-.47.47-.26-.2v-.27Zm.78-3.24.21.79A2.1,2.1,0,0,0,159,89.31l-.26-1,.26-.2h-.52C157.79,89.23,157.15,89.78,156.59,89.78ZM163,92.23l.26.26v.26l-.52.47-.47-.47Zm4.43-46v1.93l.47,1.72h-.47v.78l.47.47-.26,1,.52,2.19-.26.26.47.47v.52c-.49,0-.73.16-.73.47l.52,1.72-.26,4.17h.47l-.47,5.17.26,3.9-.26.27v.2l.26.73-.26,2.45q0,6.15,7.82,6.16h7.14a14.46,14.46,0,0,0,12-6.16,8.48,8.48,0,0,0,1.25-4.17l-.26-.73a4.8,4.8,0,0,0,.73-2.45V64.08q0-9.22-9.33-15.17Q183.23,46.21,167.38,46.2Zm1.2-35.08-.73,5.16V18a6.47,6.47,0,0,0,.47,2.71l-.47.47.47.52-.47.47v5.89l.26,1.46-.26.73.47.52V31l-.47.52.26,6.1v3l1.2.21h6.88q5.84,0,9.07-6.83a21.85,21.85,0,0,0,1.46-8.34v-3q0-9-9.07-11.52l-3.44-.21Zm3.18,62.29H172v.73h-.73v-.26Z"/></g><text transform="translate(2.76 88.01)" font-size="14.23" font-family="Requiem, Requiem">TO BE RICH OR DIE</text></g></g></g></svg>