<svg xmlns="http://www.w3.org/2000/svg" viewBox="0 0 26.92 25.56"><title>X</title><g id="圖層_2" data-name="圖層 2"><g id="圖層_7" data-name="圖層 7"><g opacity="0.8"><path d="M26.54,1.11a19.86,19.86,0,0,0-2.07,2c-1,1.07-2.18,1.79-3.34,2.81-.59.5-1.11,1-1.65,1.51a41.76,41.76,0,0,0-3.68,3.21c-.14.11-.58.44-.35.6a25.88,25.88,0,0,0-3.62,3.28c-.45.49-1.11.83-1.57,1.33-.71.84-1.67,1.41-2.4,2.19a2.64,2.64,0,0,1-.31.53,13.89,13.89,0,0,0-2.77,3.23,11,11,0,0,1-1,1.13c0,.12,0,.19-.12.33A15.42,15.42,0,0,1,1.36,25c-.12,0,3-3.18,2.84-3.23S2.16,23.8,2,24C8.4,15.58,5.13,19.41,3.22,22c-.37.33-.72,1-1.39,1.67.33-.48.85-1.6,1-1.82a9.25,9.25,0,0,1,1.55-2c.85-.83,2-2.52,2.7-3.3a7.32,7.32,0,0,1-1.36,2.23c1.37-1,1-1.75,2.25-3a3.38,3.38,0,0,0,.35-.44L8.84,15c1-1,1.81-2,2.87-3-.08.09-.23.05-.33.13a24,24,0,0,0-2.54,2.51c-.2.16-.3.54-.49.73a8.86,8.86,0,0,1-1.21.93,25.56,25.56,0,0,1,2.19-2.4,2.63,2.63,0,0,0,.31-.63c-.36.34-.72.68-1.07,1-1.19,1.28-2.39,3.31-3.53,4L5,18.42a.13.13,0,0,0-.08,0,2.28,2.28,0,0,1-.63.5l.49-.46c1-1.54,2.53-2.81,3.77-4.28.26-.34.91-.68,1.17-1a14.85,14.85,0,0,1,2.76-2.61C16,7.75,19.6,5,23.28,2.42l.21-.23-.15,0,.26-.15a6.29,6.29,0,0,1,1.31-1c.23-.1-.27.28-.33.48l.21-.16a1,1,0,0,0,.05.12c0-.09.14-.08.21-.09-.87.87-1.73,1.75-2.62,2.62.21,0,.45-.27.6-.37a5.23,5.23,0,0,1,.83-.86,28.42,28.42,0,0,1,2.46-2c.16-.1.33-.19.51-.28S26.85.88,26.54,1.11ZM13.86,10.27c.3-.19.61-.35.93-.53l.28-.23a1.82,1.82,0,0,0,.34-.34L17,8a8,8,0,0,0-1.88,1.16A33.91,33.91,0,0,1,20,5.69c.46-.38.92-.78,1.37-1.19s.6-.61.88-.93C18.07,6.83,13.6,9.7,9.64,13.37,11.08,12.35,12.41,11.29,13.86,10.27Zm-.33.56c-.52.47-1,1-1.49,1.44a17.57,17.57,0,0,0-3.39,3.79c1.06-1.25,2.16-2.54,3.39-3.79-1.22,1.14-.32.34,1.29-1.22A1.47,1.47,0,0,1,13.53,10.83Z" fill="#751b1b"/><path d="M21,3.83c.68-.4,1.36-.84,2-1.24a6.72,6.72,0,0,0-1,.29,23.69,23.69,0,0,0-2.47,1.71,52.39,52.39,0,0,0-6.88,5.47,2.44,2.44,0,0,0-.51.51A99.69,99.69,0,0,1,21,3.83Z" fill="#751b1b"/><path d="M8.53,13.73a14,14,0,0,1-1.09,1.2,7.35,7.35,0,0,0,1.29-1c.51-.54,1-1.07,1.53-1.58A17.35,17.35,0,0,0,8.53,13.73Z" fill="#751b1b"/><path d="M12.2,10.57l-.35.29a21.27,21.27,0,0,0-1.59,1.45c.63-.47,1.27-.9,1.89-1.37C12.06,10.85,12.1,10.71,12.2,10.57Z" fill="#751b1b"/></g><g opacity="0.8"><path d="M23.85,25.19a20,20,0,0,0-2-2.08c-1.07-1-1.79-2.18-2.82-3.34-.49-.59-1-1.1-1.5-1.65a40.3,40.3,0,0,0-3.21-3.67c-.12-.15-.44-.59-.6-.36a25.8,25.8,0,0,0-3.28-3.61C9.93,10,9.59,9.36,9.09,8.91,8.25,8.2,7.68,7.24,6.9,6.5a2.55,2.55,0,0,1-.54-.31A13.45,13.45,0,0,0,3.13,3.43,13.62,13.62,0,0,1,2,2.44c-.12.05-.2,0-.33-.13A14.29,14.29,0,0,1,0,0C0-.12,3.18,3,3.22,2.84S1.16.8,1,.6C9.37,7,5.54,3.77,2.94,1.87,2.61,1.5,2,1.14,1.27.47c.48.33,1.6.86,1.81,1a9.37,9.37,0,0,1,2,1.55c.83.85,2.52,2,3.3,2.7A7.12,7.12,0,0,1,6.18,4.39c1,1.37,1.75,1,3,2.25A2.82,2.82,0,0,0,9.57,7l.37.5c1,1,2.05,1.8,3,2.86-.09-.08,0-.23-.13-.33a24.12,24.12,0,0,0-2.52-2.54c-.15-.2-.53-.3-.72-.49a8.6,8.6,0,0,1-.93-1.2A24.13,24.13,0,0,1,11,8a2.63,2.63,0,0,0,.63.31c-.34-.36-.69-.72-1-1.07C9.35,6,7.31,4.83,6.67,3.69l-.13-.08a.21.21,0,0,0,0-.07A2.49,2.49,0,0,1,6,2.9l.46.5C8,4.34,9.28,5.93,10.74,7.16c.35.26.69.91,1,1.17a15.52,15.52,0,0,1,2.61,2.76c2.83,3.57,5.6,7.16,8.16,10.83l.22.21,0-.15.15.26a6.1,6.1,0,0,1,1.05,1.32c.09.22-.28-.28-.48-.33l.15.2-.11.05c.08.05.07.14.09.22-.87-.88-1.75-1.74-2.62-2.63,0,.22.26.46.37.6a5.28,5.28,0,0,1,.86.84,26.86,26.86,0,0,1,2,2.45c.1.17.19.34.28.51S24.08,25.49,23.85,25.19ZM14.69,12.5c.19.3.35.61.52.93l.24.29a1.78,1.78,0,0,0,.34.33L17,15.66a7.77,7.77,0,0,0-1.17-1.89,33.23,33.23,0,0,1,3.48,4.9c.38.46.77.92,1.19,1.37a12.77,12.77,0,0,0,.93.88c-3.26-4.21-6.13-8.68-9.8-12.64C12.61,9.72,13.67,11.05,14.69,12.5Zm-.56-.33c-.48-.52-1-1-1.44-1.49a17.63,17.63,0,0,0-3.8-3.39c1.26,1.06,2.55,2.17,3.8,3.39-1.14-1.21-.34-.31,1.22,1.29Z" fill="#751b1b"/><path d="M21.13,19.64c.4.69.83,1.36,1.23,2.05a5.16,5.16,0,0,0-.28-1,22.79,22.79,0,0,0-1.71-2.48,53.06,53.06,0,0,0-5.47-6.88,2.44,2.44,0,0,0-.51-.51A101.18,101.18,0,0,1,21.13,19.64Z" fill="#751b1b"/><path d="M11.23,7.18A16,16,0,0,1,10,6.08a8,8,0,0,0,1.05,1.3c.53.5,1.07,1,1.58,1.53A15.34,15.34,0,0,0,11.23,7.18Z" fill="#751b1b"/><path d="M14.39,10.84l-.29-.35c-.45-.54-.94-1.07-1.45-1.58.46.62.9,1.26,1.37,1.88C14.11,10.7,14.25,10.74,14.39,10.84Z" fill="#751b1b"/></g></g></g></svg>